{"glyphs":{"0":{"ha":899,"x_min":111,"x_max":949,"o":"m 344 -6 q 172 46 232 -6 q 111 197 111 97 q 117 260 111 231 l 196 760 q 301 965 218 893 q 511 1036 383 1036 l 726 1036 q 892 982 836 1036 q 949 828 949 928 q 943 760 949 810 l 864 260 q 764 63 843 132 q 560 -6 685 -6 l 344 -6 m 535 179 q 622 206 590 179 q 663 290 653 233 l 733 740 q 736 771 736 751 q 649 851 736 851 l 522 851 q 439 823 471 851 q 399 740 407 794 l 328 292 q 325 261 325 267 q 424 179 325 179 l 535 179 z "},"1":{"ha":517,"x_min":171,"x_max":594,"o":"m 358 842 l 171 808 l 192 940 l 411 1028 l 594 1028 l 431 0 l 225 0 l 358 842 z "},"2":{"ha":814,"x_min":64,"x_max":839,"o":"m 89 165 l 481 506 q 594 636 557 574 q 632 750 632 699 q 605 819 632 796 q 517 842 578 842 l 221 842 l 247 1003 q 416 1028 353 1019 q 561 1036 479 1036 q 773 976 707 1036 q 839 810 839 915 q 791 606 839 704 q 636 415 743 508 l 376 186 l 794 186 l 765 0 l 64 0 l 89 165 z "},"3":{"ha":804,"x_min":56,"x_max":853,"o":"m 444 -8 q 56 21 226 -8 l 81 175 l 396 175 q 525 198 483 175 q 576 279 567 221 q 586 338 586 332 q 547 406 586 382 q 440 433 507 431 l 214 443 l 238 590 l 485 604 q 632 701 617 611 q 638 758 638 744 q 496 851 638 851 l 210 851 l 233 1006 q 590 1036 439 1036 q 788 990 722 1036 q 853 836 853 944 q 836 706 853 810 q 781 583 824 629 q 678 517 739 536 q 758 459 726 503 q 790 350 790 415 q 778 244 790 335 q 672 57 760 122 q 444 -8 583 -8 z "},"4":{"ha":860,"x_min":82,"x_max":894,"o":"m 556 218 l 106 218 l 82 315 l 528 1028 l 739 1028 l 339 393 l 583 393 l 614 593 l 674 711 l 839 711 l 789 393 l 894 393 l 872 251 l 761 218 l 726 1 l 521 1 l 556 218 z "},"5":{"ha":843,"x_min":96,"x_max":906,"o":"m 435 -7 q 96 15 307 -7 l 122 178 l 472 178 q 578 211 542 178 q 622 294 614 244 l 633 365 q 636 396 636 385 q 544 474 636 474 l 464 474 q 393 456 418 474 q 356 397 368 438 l 158 397 l 288 1028 l 906 1028 l 875 843 l 454 843 l 407 603 q 463 636 431 624 q 533 649 496 649 l 644 649 q 798 597 746 649 q 850 457 850 544 q 846 403 850 431 l 821 251 q 703 56 800 118 q 435 -7 606 -7 z "},"6":{"ha":843,"x_min":129,"x_max":881,"o":"m 378 -7 q 240 19 294 -7 q 158 111 186 46 q 129 290 129 176 q 248 835 129 633 q 624 1036 367 1036 q 881 1014 778 1036 l 854 851 l 613 851 q 371 596 413 851 q 607 619 458 619 q 790 575 732 619 q 847 444 847 531 q 842 383 847 411 l 818 236 q 722 52 799 111 q 526 -7 644 -7 l 378 -7 m 510 178 q 584 201 557 178 q 619 276 611 224 l 631 344 q 633 376 633 367 q 607 430 633 415 q 521 444 581 444 l 347 444 q 335 315 335 368 q 362 208 335 239 q 447 178 389 178 l 510 178 z "},"7":{"ha":769,"x_min":158,"x_max":886,"o":"m 603 822 l 167 822 l 199 1028 l 847 1028 l 886 940 l 397 0 l 158 0 l 603 822 z "},"8":{"ha":872,"x_min":108,"x_max":907,"o":"m 340 -6 q 108 157 108 -6 q 114 211 108 178 l 138 358 q 185 465 147 419 q 276 524 224 511 q 206 639 206 561 q 208 675 206 654 q 213 704 211 696 l 231 824 q 506 1036 267 1036 l 715 1036 q 859 999 811 1036 q 907 879 907 963 q 901 821 907 865 l 883 704 q 845 602 875 654 q 765 540 815 550 q 833 494 813 529 q 854 411 854 460 q 850 363 854 404 l 826 218 q 734 43 806 92 q 549 -6 663 -6 l 340 -6 m 585 613 q 654 637 632 613 q 683 707 676 661 l 693 772 q 696 801 696 794 q 678 849 696 836 q 628 861 661 861 l 524 861 q 455 842 478 861 q 424 772 432 824 l 414 707 q 411 675 411 694 q 428 628 411 643 q 483 613 446 613 l 585 613 m 517 168 q 595 190 571 168 q 626 256 619 211 l 642 347 l 643 368 q 558 438 643 438 l 456 438 q 382 414 415 438 q 342 347 349 390 l 326 256 q 325 232 325 247 q 414 168 325 168 l 517 168 z "},"9":{"ha":843,"x_min":124,"x_max":875,"o":"m 626 1036 q 764 1010 710 1036 q 847 918 818 983 q 875 739 875 853 q 756 194 875 396 q 381 -7 638 -7 q 124 15 226 -7 l 150 178 l 392 178 q 633 433 592 178 q 397 410 546 410 q 215 454 272 410 q 157 585 157 499 q 163 646 157 618 l 186 793 q 283 977 206 918 q 478 1036 360 1036 l 626 1036 m 494 851 q 420 828 447 851 q 385 753 393 806 l 374 685 q 371 653 371 663 q 397 599 371 614 q 483 585 424 585 l 657 585 q 669 714 669 663 q 642 821 669 790 q 557 851 615 851 l 494 851 z "},"\u0000":{"ha":0,"x_min":0,"x_max":0,"o":""},"\r":{"ha":342,"x_min":0,"x_max":0,"o":""}," ":{"ha":342,"x_min":0,"x_max":0,"o":""},"A":{"ha":967,"x_min":32,"x_max":938,"o":"m 521 1028 l 779 1028 l 938 0 l 724 0 l 694 215 l 343 215 l 243 0 l 32 0 l 521 1028 m 674 400 l 621 850 l 421 400 l 674 400 z "},"Á":{"ha":967,"x_min":32,"x_max":938,"o":"m 521 1028 l 779 1028 l 938 0 l 724 0 l 694 215 l 343 215 l 243 0 l 32 0 l 521 1028 m 674 400 l 621 850 l 421 400 l 674 400 m 714 1293 l 890 1293 l 710 1099 l 578 1099 l 714 1293 z "},"Ă":{"ha":967,"x_min":32,"x_max":938,"o":"m 521 1028 l 779 1028 l 938 0 l 724 0 l 694 215 l 343 215 l 243 0 l 32 0 l 521 1028 m 674 400 l 621 850 l 421 400 l 674 400 m 646 1088 q 525 1126 568 1088 q 482 1243 482 1165 q 488 1297 482 1258 l 582 1297 q 579 1267 579 1275 q 602 1203 579 1224 q 660 1182 625 1182 q 776 1297 760 1182 l 875 1297 q 799 1139 858 1190 q 646 1088 739 1088 z "},"Ắ":{"ha":967,"x_min":32,"x_max":938,"o":"m 521 1028 l 779 1028 l 938 0 l 724 0 l 694 215 l 343 215 l 243 0 l 32 0 l 521 1028 m 674 400 l 621 850 l 421 400 l 674 400 m 728 1463 l 904 1463 l 724 1268 l 592 1268 l 728 1463 m 636 1068 q 510 1101 554 1068 q 467 1200 467 1133 q 469 1236 467 1222 l 565 1236 q 564 1218 564 1229 q 588 1167 564 1183 q 647 1151 611 1151 q 760 1236 746 1151 l 857 1236 q 636 1068 831 1068 z "},"Ặ":{"ha":967,"x_min":32,"x_max":938,"o":"m 521 1028 l 779 1028 l 938 0 l 724 0 l 694 215 l 343 215 l 243 0 l 32 0 l 521 1028 m 674 400 l 621 850 l 421 400 l 674 400 m 646 1088 q 525 1126 568 1088 q 482 1243 482 1165 q 488 1297 482 1258 l 582 1297 q 579 1267 579 1275 q 602 1203 579 1224 q 660 1182 625 1182 q 776 1297 760 1182 l 875 1297 q 799 1139 858 1190 q 646 1088 739 1088 m 374 -314 q 356 -308 363 -314 q 349 -290 349 -301 l 349 -285 l 371 -150 q 404 -119 375 -119 l 499 -119 q 524 -143 524 -119 l 524 -150 l 501 -285 q 490 -306 500 -299 q 468 -314 481 -314 l 374 -314 z "},"Ằ":{"ha":967,"x_min":32,"x_max":938,"o":"m 521 1028 l 779 1028 l 938 0 l 724 0 l 694 215 l 343 215 l 243 0 l 32 0 l 521 1028 m 674 400 l 621 850 l 421 400 l 674 400 m 485 1463 l 650 1463 l 733 1268 l 613 1268 l 485 1463 m 636 1068 q 510 1101 554 1068 q 467 1200 467 1133 q 469 1236 467 1222 l 565 1236 q 564 1218 564 1229 q 588 1167 564 1183 q 647 1151 611 1151 q 760 1236 746 1151 l 857 1236 q 636 1068 831 1068 z "},"Ẳ":{"ha":967,"x_min":32,"x_max":938,"o":"m 521 1028 l 779 1028 l 938 0 l 724 0 l 694 215 l 343 215 l 243 0 l 32 0 l 521 1028 m 674 400 l 621 850 l 421 400 l 674 400 m 636 1300 q 701 1365 701 1318 q 660 1394 701 1394 q 614 1386 644 1394 l 626 1467 q 701 1478 663 1478 q 813 1382 813 1478 q 767 1281 813 1326 q 622 1210 722 1236 l 636 1300 m 636 1068 q 510 1101 554 1068 q 467 1200 467 1133 q 469 1236 467 1222 l 565 1236 q 564 1218 564 1229 q 588 1167 564 1183 q 647 1151 611 1151 q 760 1236 746 1151 l 857 1236 q 636 1068 831 1068 z "},"Ẵ":{"ha":967,"x_min":32,"x_max":938,"o":"m 521 1028 l 779 1028 l 938 0 l 724 0 l 694 215 l 343 215 l 243 0 l 32 0 l 521 1028 m 674 400 l 621 850 l 421 400 l 674 400 m 444 1288 q 505 1397 464 1368 q 608 1426 546 1426 q 653 1421 632 1426 q 701 1404 675 1415 q 735 1392 718 1397 q 767 1388 751 1388 q 808 1399 792 1388 q 828 1433 825 1411 l 931 1433 q 873 1320 911 1351 q 768 1289 835 1289 q 719 1296 746 1289 q 671 1311 693 1303 q 608 1328 626 1328 q 568 1317 585 1328 q 547 1288 551 1306 l 444 1288 m 642 1068 q 515 1101 560 1068 q 471 1199 471 1133 q 475 1236 471 1215 l 571 1236 q 569 1217 569 1229 q 593 1167 569 1183 q 653 1151 617 1151 q 765 1236 751 1151 l 863 1236 q 642 1068 835 1068 z "},"Â":{"ha":967,"x_min":32,"x_max":938,"o":"m 521 1028 l 779 1028 l 938 0 l 724 0 l 694 215 l 343 215 l 243 0 l 32 0 l 521 1028 m 674 400 l 621 850 l 421 400 l 674 400 m 607 1296 l 747 1296 l 853 1099 l 733 1099 l 660 1204 l 544 1099 l 425 1099 l 607 1296 z "},"Ấ":{"ha":967,"x_min":32,"x_max":1051,"o":"m 521 1028 l 779 1028 l 938 0 l 724 0 l 694 215 l 343 215 l 243 0 l 32 0 l 521 1028 m 674 400 l 621 850 l 421 400 l 674 400 m 896 1390 l 1051 1390 l 915 1217 l 804 1217 l 896 1390 m 611 1250 l 751 1250 l 865 1099 l 746 1099 l 664 1158 l 557 1099 l 438 1099 l 611 1250 z "},"Ậ":{"ha":967,"x_min":32,"x_max":938,"o":"m 521 1028 l 779 1028 l 938 0 l 724 0 l 694 215 l 343 215 l 243 0 l 32 0 l 521 1028 m 674 400 l 621 850 l 421 400 l 674 400 m 607 1296 l 747 1296 l 853 1099 l 733 1099 l 660 1204 l 544 1099 l 425 1099 l 607 1296 m 374 -314 q 356 -308 363 -314 q 349 -290 349 -301 l 349 -285 l 371 -150 q 404 -119 375 -119 l 499 -119 q 524 -143 524 -119 l 524 -150 l 501 -285 q 490 -306 500 -299 q 468 -314 481 -314 l 374 -314 z "},"Ầ":{"ha":967,"x_min":32,"x_max":938,"o":"m 521 1028 l 779 1028 l 938 0 l 724 0 l 694 215 l 343 215 l 243 0 l 32 0 l 521 1028 m 674 400 l 621 850 l 421 400 l 674 400 m 351 1390 l 508 1390 l 543 1217 l 432 1217 l 351 1390 m 608 1250 l 749 1250 l 863 1099 l 743 1099 l 661 1158 l 554 1099 l 433 1099 l 608 1250 z "},"Ẩ":{"ha":967,"x_min":32,"x_max":996,"o":"m 521 1028 l 779 1028 l 938 0 l 724 0 l 694 215 l 343 215 l 243 0 l 32 0 l 521 1028 m 674 400 l 621 850 l 421 400 l 674 400 m 843 1256 q 883 1281 872 1268 q 894 1311 894 1294 q 864 1333 894 1333 q 818 1325 846 1333 l 831 1406 q 904 1417 867 1417 q 996 1336 996 1417 q 831 1175 996 1221 l 843 1256 m 613 1250 l 753 1250 l 867 1099 l 747 1099 l 664 1158 l 558 1099 l 438 1099 l 613 1250 z "},"Ẫ":{"ha":967,"x_min":32,"x_max":938,"o":"m 521 1028 l 779 1028 l 938 0 l 724 0 l 694 215 l 343 215 l 243 0 l 32 0 l 521 1028 m 674 400 l 621 850 l 421 400 l 674 400 m 449 1307 q 509 1417 468 1388 q 611 1447 550 1447 q 706 1425 653 1447 q 739 1413 722 1418 q 769 1408 756 1408 q 812 1420 796 1408 q 832 1454 828 1432 l 935 1454 q 877 1341 915 1372 q 771 1310 839 1310 q 710 1320 740 1310 q 675 1332 681 1331 q 649 1341 671 1333 q 613 1349 628 1349 q 572 1337 589 1349 q 551 1307 556 1325 l 449 1307 m 614 1250 l 754 1250 l 867 1099 l 747 1099 l 665 1158 l 558 1099 l 438 1099 l 614 1250 z "},"Ȁ":{"ha":967,"x_min":32,"x_max":938,"o":"m 521 1028 l 779 1028 l 938 0 l 724 0 l 694 215 l 343 215 l 243 0 l 32 0 l 521 1028 m 674 400 l 621 850 l 421 400 l 674 400 m 350 1293 l 517 1293 l 599 1099 l 478 1099 l 350 1293 m 599 1293 l 764 1293 l 847 1099 l 726 1099 l 599 1293 z "},"Ä":{"ha":967,"x_min":32,"x_max":938,"o":"m 521 1028 l 779 1028 l 938 0 l 724 0 l 694 215 l 343 215 l 243 0 l 32 0 l 521 1028 m 674 400 l 621 850 l 421 400 l 674 400 m 457 1107 q 440 1114 446 1107 q 433 1131 433 1121 l 456 1271 q 488 1301 460 1301 l 583 1301 q 607 1278 607 1301 l 585 1136 q 553 1107 581 1107 l 457 1107 m 735 1107 q 717 1113 724 1107 q 711 1131 711 1119 l 733 1271 q 765 1301 738 1301 l 861 1301 q 885 1278 885 1301 l 863 1136 q 831 1107 858 1107 l 735 1107 z "},"Ạ":{"ha":967,"x_min":32,"x_max":938,"o":"m 521 1028 l 779 1028 l 938 0 l 724 0 l 694 215 l 343 215 l 243 0 l 32 0 l 521 1028 m 674 400 l 621 850 l 421 400 l 674 400 m 374 -314 q 356 -308 363 -314 q 349 -290 349 -301 l 349 -285 l 371 -150 q 404 -119 375 -119 l 499 -119 q 524 -143 524 -119 l 524 -150 l 501 -285 q 490 -306 500 -299 q 468 -314 481 -314 l 374 -314 z "},"À":{"ha":967,"x_min":32,"x_max":938,"o":"m 521 1028 l 779 1028 l 938 0 l 724 0 l 694 215 l 343 215 l 243 0 l 32 0 l 521 1028 m 674 400 l 621 850 l 421 400 l 674 400 m 490 1293 l 656 1293 l 739 1099 l 618 1099 l 490 1293 z "},"Ả":{"ha":967,"x_min":32,"x_max":938,"o":"m 521 1028 l 779 1028 l 938 0 l 724 0 l 694 215 l 343 215 l 243 0 l 32 0 l 521 1028 m 674 400 l 621 850 l 421 400 l 674 400 m 632 1151 q 697 1217 697 1169 q 656 1246 697 1246 q 610 1238 640 1246 l 622 1318 q 697 1329 658 1329 q 808 1233 808 1329 q 763 1133 808 1178 q 618 1061 718 1088 l 632 1151 z "},"Ȃ":{"ha":967,"x_min":32,"x_max":938,"o":"m 521 1028 l 779 1028 l 938 0 l 724 0 l 694 215 l 343 215 l 243 0 l 32 0 l 521 1028 m 674 400 l 621 850 l 421 400 l 674 400 m 463 1092 q 539 1250 479 1199 q 692 1301 599 1301 q 813 1263 769 1301 q 856 1146 856 1224 q 850 1092 856 1131 l 756 1092 q 758 1122 758 1114 q 735 1187 758 1167 q 676 1207 713 1207 q 601 1180 632 1207 q 561 1092 569 1153 l 463 1092 z "},"Ā":{"ha":967,"x_min":32,"x_max":938,"o":"m 521 1028 l 779 1028 l 938 0 l 724 0 l 694 215 l 343 215 l 243 0 l 32 0 l 521 1028 m 674 400 l 621 850 l 421 400 l 674 400 m 478 1243 l 868 1243 l 849 1121 l 458 1121 l 478 1243 z "},"Ą":{"ha":967,"x_min":32,"x_max":938,"o":"m 521 1028 l 779 1028 l 938 0 l 724 0 l 694 215 l 343 215 l 243 0 l 32 0 l 521 1028 m 674 400 l 621 850 l 421 400 l 674 400 m 736 -267 q 639 -237 671 -267 q 607 -162 607 -207 q 638 -69 607 -111 q 724 0 668 -28 l 799 0 q 735 -53 756 -24 q 714 -106 714 -82 q 733 -149 714 -133 q 785 -165 753 -165 l 797 -165 l 782 -261 q 736 -267 769 -267 z "},"Å":{"ha":967,"x_min":32,"x_max":938,"o":"m 521 1028 l 779 1028 l 938 0 l 724 0 l 694 215 l 343 215 l 243 0 l 32 0 l 521 1028 m 674 400 l 621 850 l 421 400 l 674 400 m 654 1063 q 538 1094 578 1063 q 499 1199 499 1125 q 551 1326 499 1275 q 694 1378 603 1378 q 810 1346 771 1378 q 849 1243 849 1314 q 798 1113 849 1164 q 654 1063 747 1063 m 664 1139 q 729 1167 707 1139 q 751 1239 751 1196 q 686 1303 751 1303 q 618 1273 642 1303 q 594 1201 594 1243 q 664 1139 594 1139 z "},"Ǻ":{"ha":967,"x_min":32,"x_max":938,"o":"m 654 1063 q 538 1094 578 1063 q 499 1199 499 1125 q 538 1313 499 1264 q 646 1374 576 1361 l 750 1522 l 926 1522 l 779 1364 q 849 1243 849 1336 q 798 1113 849 1164 q 654 1063 747 1063 m 686 1303 q 618 1273 642 1303 q 594 1201 594 1243 q 664 1139 594 1139 q 729 1167 707 1139 q 751 1239 751 1196 q 686 1303 751 1303 m 938 0 l 724 0 l 694 215 l 343 215 l 243 0 l 32 0 l 521 1028 l 779 1028 l 938 0 m 674 400 l 621 850 l 421 400 l 674 400 z "},"Ã":{"ha":967,"x_min":32,"x_max":942,"o":"m 521 1028 l 779 1028 l 938 0 l 724 0 l 694 215 l 343 215 l 243 0 l 32 0 l 521 1028 m 674 400 l 621 850 l 421 400 l 674 400 m 403 1104 q 575 1276 442 1276 q 634 1267 607 1276 q 693 1243 661 1258 q 772 1219 746 1219 q 816 1236 799 1219 q 839 1283 833 1253 l 942 1283 q 878 1148 919 1190 q 771 1106 836 1106 q 716 1114 742 1106 q 650 1139 690 1122 q 608 1156 629 1149 q 572 1163 588 1163 q 530 1146 547 1163 q 506 1104 513 1129 l 403 1104 z "},"Æ":{"ha":1361,"x_min":17,"x_max":1457,"o":"m 897 -7 q 726 26 782 -8 q 676 150 671 61 l 683 214 l 382 214 l 221 0 l 17 0 l 568 781 q 783 974 665 921 q 1047 1028 900 1028 q 1457 1010 1208 1028 l 1429 838 l 1067 838 q 997 826 1019 838 q 966 794 975 815 q 950 725 957 772 l 931 604 l 1325 593 l 1300 431 l 901 419 l 879 278 q 876 253 876 261 q 905 199 876 211 q 979 186 933 186 l 1326 186 l 1299 15 q 1075 -1 1210 6 q 897 -7 940 -7 m 711 389 l 774 782 l 501 389 l 711 389 z "},"Ǽ":{"ha":1361,"x_min":17,"x_max":1457,"o":"m 897 -7 q 726 26 782 -8 q 676 150 671 61 l 683 214 l 382 214 l 221 0 l 17 0 l 568 781 q 783 974 665 921 q 1047 1028 900 1028 q 1457 1010 1208 1028 l 1429 838 l 1067 838 q 997 826 1019 838 q 966 794 975 815 q 950 725 957 772 l 931 604 l 1325 593 l 1300 431 l 901 419 l 879 278 q 876 253 876 261 q 905 199 876 211 q 979 186 933 186 l 1326 186 l 1299 15 q 1075 -1 1210 6 q 897 -7 940 -7 m 711 389 l 774 782 l 501 389 l 711 389 m 974 1293 l 1150 1293 l 969 1099 l 838 1099 l 974 1293 z "},"B":{"ha":882,"x_min":88,"x_max":911,"o":"m 249 1028 l 647 1028 q 852 973 793 1028 q 911 817 911 918 q 906 744 911 779 q 843 609 893 665 q 717 535 793 553 q 829 467 790 515 q 868 331 868 418 q 860 244 868 297 q 747 58 838 115 q 490 0 656 0 l 88 0 l 249 1028 m 579 606 q 701 708 681 606 q 708 761 708 743 q 683 824 708 804 q 604 843 657 843 l 426 843 l 388 606 l 579 606 m 517 185 q 625 215 590 185 q 671 313 660 244 q 674 351 674 326 q 556 447 674 447 l 364 447 l 322 185 l 517 185 z "},"Ḃ":{"ha":882,"x_min":88,"x_max":911,"o":"m 249 1028 l 647 1028 q 852 973 793 1028 q 911 817 911 918 q 906 744 911 779 q 843 609 893 665 q 717 535 793 553 q 829 467 790 515 q 868 331 868 418 q 860 244 868 297 q 747 58 838 115 q 490 0 656 0 l 88 0 l 249 1028 m 579 606 q 701 708 681 606 q 708 761 708 743 q 683 824 708 804 q 604 843 657 843 l 426 843 l 388 606 l 579 606 m 517 185 q 625 215 590 185 q 671 313 660 244 q 674 351 674 326 q 556 447 674 447 l 364 447 l 322 185 l 517 185 m 513 1117 q 494 1123 501 1117 q 488 1140 488 1129 l 488 1146 l 510 1281 q 543 1311 514 1311 l 638 1311 q 663 1288 663 1311 l 663 1281 l 640 1146 q 629 1124 639 1132 q 607 1117 619 1117 l 513 1117 z "},"C":{"ha":821,"x_min":131,"x_max":914,"o":"m 467 -8 q 213 82 296 -8 q 131 340 131 172 q 149 546 131 433 q 288 916 188 796 q 582 1036 389 1036 q 914 978 765 1036 l 888 815 q 618 851 750 851 q 492 824 540 851 q 409 723 443 797 q 351 508 375 649 q 335 339 335 399 q 376 214 335 251 q 521 176 418 176 q 663 181 607 176 q 789 193 719 185 l 763 32 q 467 -8 646 -8 z "},"Ć":{"ha":821,"x_min":131,"x_max":914,"o":"m 467 -8 q 213 82 296 -8 q 131 340 131 172 q 149 546 131 433 q 288 916 188 796 q 582 1036 389 1036 q 914 978 765 1036 l 888 815 q 618 851 750 851 q 492 824 540 851 q 409 723 443 797 q 351 508 375 649 q 335 339 335 399 q 376 214 335 251 q 521 176 418 176 q 663 181 607 176 q 789 193 719 185 l 763 32 q 467 -8 646 -8 m 683 1293 l 860 1293 l 679 1099 l 547 1099 l 683 1293 z "},"Č":{"ha":821,"x_min":131,"x_max":914,"o":"m 467 -8 q 213 82 296 -8 q 131 340 131 172 q 149 546 131 433 q 288 916 188 796 q 582 1036 389 1036 q 914 978 765 1036 l 888 815 q 618 851 750 851 q 492 824 540 851 q 409 723 443 797 q 351 508 375 649 q 335 339 335 399 q 376 214 335 251 q 521 176 418 176 q 663 181 607 176 q 789 193 719 185 l 763 32 q 467 -8 646 -8 m 461 1296 l 581 1296 l 656 1190 l 769 1296 l 890 1296 l 708 1099 l 568 1099 l 461 1296 z "},"Ç":{"ha":821,"x_min":131,"x_max":914,"o":"m 618 851 q 492 824 540 851 q 409 723 443 797 q 351 508 375 649 q 335 339 335 399 q 376 214 335 251 q 521 176 418 176 q 663 181 607 176 q 789 193 719 185 l 763 32 q 488 -8 651 -6 l 435 -75 q 514 -158 514 -85 q 472 -244 514 -208 q 347 -279 429 -279 l 281 -279 l 293 -194 l 319 -190 q 367 -169 351 -186 q 383 -135 383 -153 q 328 -93 383 -100 l 399 -4 q 197 101 263 13 q 131 340 131 190 q 149 546 131 433 q 288 916 188 796 q 582 1036 389 1036 q 914 978 765 1036 l 888 815 q 618 851 750 851 z "},"Ḉ":{"ha":821,"x_min":131,"x_max":914,"o":"m 679 1099 l 547 1099 l 683 1293 l 860 1293 l 679 1099 m 618 851 q 492 824 540 851 q 409 723 443 797 q 351 508 375 649 q 335 339 335 399 q 376 214 335 251 q 521 176 418 176 q 663 181 607 176 q 789 193 719 185 l 763 32 q 488 -8 651 -6 l 435 -75 q 514 -158 514 -85 q 472 -244 514 -208 q 347 -279 429 -279 l 281 -279 l 293 -194 l 319 -190 q 367 -169 351 -186 q 383 -135 383 -153 q 328 -93 383 -100 l 399 -4 q 197 101 263 13 q 131 340 131 190 q 149 546 131 433 q 288 916 188 796 q 582 1036 389 1036 q 914 978 765 1036 l 888 815 q 618 851 750 851 z "},"Ĉ":{"ha":821,"x_min":131,"x_max":914,"o":"m 467 -8 q 213 82 296 -8 q 131 340 131 172 q 149 546 131 433 q 288 916 188 796 q 582 1036 389 1036 q 914 978 765 1036 l 888 815 q 618 851 750 851 q 492 824 540 851 q 409 723 443 797 q 351 508 375 649 q 335 339 335 399 q 376 214 335 251 q 521 176 418 176 q 663 181 607 176 q 789 193 719 185 l 763 32 q 467 -8 646 -8 m 576 1296 l 717 1296 l 822 1099 l 703 1099 l 629 1204 l 514 1099 l 394 1099 l 576 1296 z "},"Ċ":{"ha":821,"x_min":131,"x_max":914,"o":"m 467 -8 q 213 82 296 -8 q 131 340 131 172 q 149 546 131 433 q 288 916 188 796 q 582 1036 389 1036 q 914 978 765 1036 l 888 815 q 618 851 750 851 q 492 824 540 851 q 409 723 443 797 q 351 508 375 649 q 335 339 335 399 q 376 214 335 251 q 521 176 418 176 q 663 181 607 176 q 789 193 719 185 l 763 32 q 467 -8 646 -8 m 574 1117 q 556 1123 563 1117 q 549 1140 549 1129 l 549 1146 l 571 1281 q 604 1311 575 1311 l 699 1311 q 724 1288 724 1311 l 724 1281 l 701 1146 q 690 1124 700 1132 q 668 1117 681 1117 l 574 1117 z "},"D":{"ha":954,"x_min":86,"x_max":985,"o":"m 249 1028 l 639 1028 q 908 936 831 1028 q 985 669 985 844 q 968 482 985 578 q 809 116 929 232 q 472 0 689 0 l 86 0 l 249 1028 m 493 185 q 673 267 610 185 q 763 517 736 350 q 778 661 778 615 q 735 801 778 760 q 588 843 692 843 l 425 843 l 321 185 l 493 185 z "},"Ð":{"ha":954,"x_min":78,"x_max":985,"o":"m 639 1028 q 908 936 831 1028 q 985 669 985 844 q 968 482 985 578 q 809 116 929 232 q 472 0 689 0 l 86 0 l 157 451 l 78 451 l 100 585 l 179 585 l 249 1028 l 639 1028 m 763 517 q 778 661 778 615 q 735 801 778 760 q 588 843 692 843 l 425 843 l 385 585 l 550 585 l 528 451 l 363 451 l 321 185 l 493 185 q 673 267 610 185 q 763 517 736 350 z "},"Ď":{"ha":954,"x_min":86,"x_max":985,"o":"m 249 1028 l 639 1028 q 908 936 831 1028 q 985 669 985 844 q 968 482 985 578 q 809 116 929 232 q 472 0 689 0 l 86 0 l 249 1028 m 493 185 q 673 267 610 185 q 763 517 736 350 q 778 661 778 615 q 735 801 778 760 q 588 843 692 843 l 425 843 l 321 185 l 493 185 m 447 1296 l 567 1296 l 642 1190 l 756 1296 l 876 1296 l 694 1099 l 554 1099 l 447 1296 z "},"Đ":{"ha":954,"x_min":78,"x_max":985,"o":"m 639 1028 q 908 936 831 1028 q 985 669 985 844 q 968 482 985 578 q 809 116 929 232 q 472 0 689 0 l 86 0 l 157 451 l 78 451 l 100 585 l 179 585 l 249 1028 l 639 1028 m 763 517 q 778 661 778 615 q 735 801 778 760 q 588 843 692 843 l 425 843 l 385 585 l 550 585 l 528 451 l 363 451 l 321 185 l 493 185 q 673 267 610 185 q 763 517 736 350 z "},"Ḋ":{"ha":954,"x_min":86,"x_max":985,"o":"m 249 1028 l 639 1028 q 908 936 831 1028 q 985 669 985 844 q 968 482 985 578 q 809 116 929 232 q 472 0 689 0 l 86 0 l 249 1028 m 493 185 q 673 267 610 185 q 763 517 736 350 q 778 661 778 615 q 735 801 778 760 q 588 843 692 843 l 425 843 l 321 185 l 493 185 m 560 1117 q 542 1123 549 1117 q 535 1140 535 1129 l 535 1146 l 557 1281 q 590 1311 561 1311 l 685 1311 q 710 1288 710 1311 l 710 1281 l 688 1146 q 676 1124 686 1132 q 654 1117 667 1117 l 560 1117 z "},"Ḍ":{"ha":954,"x_min":86,"x_max":985,"o":"m 249 1028 l 639 1028 q 908 936 831 1028 q 985 669 985 844 q 968 482 985 578 q 809 116 929 232 q 472 0 689 0 l 86 0 l 249 1028 m 493 185 q 673 267 610 185 q 763 517 736 350 q 778 661 778 615 q 735 801 778 760 q 588 843 692 843 l 425 843 l 321 185 l 493 185 m 329 -314 q 311 -308 318 -314 q 304 -290 304 -301 l 304 -285 l 326 -150 q 360 -119 331 -119 l 454 -119 q 479 -143 479 -119 l 479 -150 l 457 -285 q 446 -306 456 -299 q 424 -314 436 -314 l 329 -314 z "},"Ḏ":{"ha":954,"x_min":86,"x_max":985,"o":"m 249 1028 l 639 1028 q 908 936 831 1028 q 985 669 985 844 q 968 482 985 578 q 809 116 929 232 q 472 0 689 0 l 86 0 l 249 1028 m 493 185 q 673 267 610 185 q 763 517 736 350 q 778 661 778 615 q 735 801 778 760 q 588 843 692 843 l 425 843 l 321 185 l 493 185 m 194 -174 l 585 -174 l 565 -296 l 175 -296 l 194 -174 z "},"E":{"ha":825,"x_min":117,"x_max":906,"o":"m 336 -8 q 182 31 247 -8 q 117 172 117 69 q 121 224 117 197 l 211 792 q 486 1028 247 1028 q 906 1010 671 1028 l 878 838 l 515 838 q 442 814 467 838 q 408 740 417 790 l 388 607 l 772 594 l 746 432 l 358 421 l 336 278 q 333 251 333 258 q 354 200 333 215 q 418 185 375 185 l 775 185 l 749 13 q 336 -8 488 -7 z "},"É":{"ha":825,"x_min":117,"x_max":906,"o":"m 336 -8 q 182 31 247 -8 q 117 172 117 69 q 121 224 117 197 l 211 792 q 486 1028 247 1028 q 906 1010 671 1028 l 878 838 l 515 838 q 442 814 467 838 q 408 740 417 790 l 388 607 l 772 594 l 746 432 l 358 421 l 336 278 q 333 251 333 258 q 354 200 333 215 q 418 185 375 185 l 775 185 l 749 13 q 336 -8 488 -7 m 653 1293 l 829 1293 l 649 1099 l 517 1099 l 653 1293 z "},"Ĕ":{"ha":825,"x_min":117,"x_max":906,"o":"m 336 -8 q 182 31 247 -8 q 117 172 117 69 q 121 224 117 197 l 211 792 q 486 1028 247 1028 q 906 1010 671 1028 l 878 838 l 515 838 q 442 814 467 838 q 408 740 417 790 l 388 607 l 772 594 l 746 432 l 358 421 l 336 278 q 333 251 333 258 q 354 200 333 215 q 418 185 375 185 l 775 185 l 749 13 q 336 -8 488 -7 m 585 1088 q 464 1126 507 1088 q 421 1243 421 1165 q 426 1297 421 1258 l 521 1297 q 518 1267 518 1275 q 541 1203 518 1224 q 599 1182 564 1182 q 715 1297 699 1182 l 814 1297 q 738 1139 797 1190 q 585 1088 678 1088 z "},"Ě":{"ha":825,"x_min":117,"x_max":906,"o":"m 336 -8 q 182 31 247 -8 q 117 172 117 69 q 121 224 117 197 l 211 792 q 486 1028 247 1028 q 906 1010 671 1028 l 878 838 l 515 838 q 442 814 467 838 q 408 740 417 790 l 388 607 l 772 594 l 746 432 l 358 421 l 336 278 q 333 251 333 258 q 354 200 333 215 q 418 185 375 185 l 775 185 l 749 13 q 336 -8 488 -7 m 431 1296 l 550 1296 l 625 1190 l 739 1296 l 860 1296 l 678 1099 l 538 1099 l 431 1296 z "},"Ḝ":{"ha":825,"x_min":117,"x_max":906,"o":"m 585 1088 q 464 1126 507 1088 q 421 1243 421 1165 q 426 1297 421 1258 l 521 1297 q 518 1267 518 1275 q 541 1203 518 1224 q 599 1182 564 1182 q 715 1297 699 1182 l 814 1297 q 738 1139 797 1190 q 585 1088 678 1088 m 515 838 q 442 814 467 838 q 408 740 417 790 l 388 607 l 772 594 l 746 432 l 358 421 l 336 278 q 333 251 333 258 q 354 200 333 215 q 418 185 375 185 l 775 185 l 749 13 q 453 -6 558 -1 l 397 -75 q 476 -158 476 -85 q 434 -244 476 -208 q 310 -279 392 -279 l 243 -279 l 256 -194 l 282 -190 q 330 -169 314 -186 q 346 -135 346 -153 q 290 -93 346 -100 l 357 -8 l 336 -8 q 182 31 247 -8 q 117 172 117 69 q 121 224 117 197 l 211 792 q 486 1028 247 1028 q 906 1010 671 1028 l 878 838 l 515 838 z "},"Ê":{"ha":825,"x_min":117,"x_max":906,"o":"m 336 -8 q 182 31 247 -8 q 117 172 117 69 q 121 224 117 197 l 211 792 q 486 1028 247 1028 q 906 1010 671 1028 l 878 838 l 515 838 q 442 814 467 838 q 408 740 417 790 l 388 607 l 772 594 l 746 432 l 358 421 l 336 278 q 333 251 333 258 q 354 200 333 215 q 418 185 375 185 l 775 185 l 749 13 q 336 -8 488 -7 m 546 1296 l 686 1296 l 792 1099 l 672 1099 l 599 1204 l 483 1099 l 364 1099 l 546 1296 z "},"Ế":{"ha":825,"x_min":117,"x_max":989,"o":"m 336 -8 q 182 31 247 -8 q 117 172 117 69 q 121 224 117 197 l 211 792 q 486 1028 247 1028 q 906 1010 671 1028 l 878 838 l 515 838 q 442 814 467 838 q 408 740 417 790 l 388 607 l 772 594 l 746 432 l 358 421 l 336 278 q 333 251 333 258 q 354 200 333 215 q 418 185 375 185 l 775 185 l 749 13 q 336 -8 488 -7 m 833 1390 l 989 1390 l 853 1217 l 742 1217 l 833 1390 m 549 1250 l 689 1250 l 803 1099 l 683 1099 l 601 1158 l 494 1099 l 375 1099 l 549 1250 z "},"Ệ":{"ha":825,"x_min":117,"x_max":906,"o":"m 336 -8 q 182 31 247 -8 q 117 172 117 69 q 121 224 117 197 l 211 792 q 486 1028 247 1028 q 906 1010 671 1028 l 878 838 l 515 838 q 442 814 467 838 q 408 740 417 790 l 388 607 l 772 594 l 746 432 l 358 421 l 336 278 q 333 251 333 258 q 354 200 333 215 q 418 185 375 185 l 775 185 l 749 13 q 336 -8 488 -7 m 546 1296 l 686 1296 l 792 1099 l 672 1099 l 599 1204 l 483 1099 l 364 1099 l 546 1296 m 313 -314 q 294 -308 301 -314 q 288 -290 288 -301 l 288 -285 l 310 -150 q 343 -119 314 -119 l 438 -119 q 463 -143 463 -119 l 463 -150 l 440 -285 q 429 -306 439 -299 q 407 -314 419 -314 l 313 -314 z "},"Ề":{"ha":825,"x_min":117,"x_max":906,"o":"m 336 -8 q 182 31 247 -8 q 117 172 117 69 q 121 224 117 197 l 211 792 q 486 1028 247 1028 q 906 1010 671 1028 l 878 838 l 515 838 q 442 814 467 838 q 408 740 417 790 l 388 607 l 772 594 l 746 432 l 358 421 l 336 278 q 333 251 333 258 q 354 200 333 215 q 418 185 375 185 l 775 185 l 749 13 q 336 -8 488 -7 m 289 1390 l 446 1390 l 481 1217 l 369 1217 l 289 1390 m 546 1250 l 686 1250 l 800 1099 l 681 1099 l 599 1158 l 492 1099 l 371 1099 l 546 1250 z "},"Ể":{"ha":825,"x_min":117,"x_max":935,"o":"m 336 -8 q 182 31 247 -8 q 117 172 117 69 q 121 224 117 197 l 211 792 q 486 1028 247 1028 q 906 1010 671 1028 l 878 838 l 515 838 q 442 814 467 838 q 408 740 417 790 l 388 607 l 772 594 l 746 432 l 358 421 l 336 278 q 333 251 333 258 q 354 200 333 215 q 418 185 375 185 l 775 185 l 749 13 q 336 -8 488 -7 m 782 1256 q 822 1281 811 1268 q 833 1311 833 1294 q 803 1333 833 1333 q 757 1325 785 1333 l 769 1406 q 843 1417 806 1417 q 935 1336 935 1417 q 769 1175 935 1221 l 782 1256 m 551 1250 l 692 1250 l 806 1099 l 686 1099 l 603 1158 l 497 1099 l 376 1099 l 551 1250 z "},"Ễ":{"ha":825,"x_min":117,"x_max":906,"o":"m 336 -8 q 182 31 247 -8 q 117 172 117 69 q 121 224 117 197 l 211 792 q 486 1028 247 1028 q 906 1010 671 1028 l 878 838 l 515 838 q 442 814 467 838 q 408 740 417 790 l 388 607 l 772 594 l 746 432 l 358 421 l 336 278 q 333 251 333 258 q 354 200 333 215 q 418 185 375 185 l 775 185 l 749 13 q 336 -8 488 -7 m 386 1307 q 447 1417 406 1388 q 549 1447 488 1447 q 643 1425 590 1447 q 676 1413 660 1418 q 707 1408 693 1408 q 749 1420 733 1408 q 769 1454 765 1432 l 872 1454 q 815 1341 853 1372 q 708 1310 776 1310 q 648 1320 678 1310 q 613 1332 618 1331 q 587 1341 608 1333 q 550 1349 565 1349 q 510 1337 526 1349 q 489 1307 493 1325 l 386 1307 m 551 1250 l 692 1250 l 804 1099 l 685 1099 l 603 1158 l 496 1099 l 375 1099 l 551 1250 z "},"Ȅ":{"ha":825,"x_min":117,"x_max":906,"o":"m 336 -8 q 182 31 247 -8 q 117 172 117 69 q 121 224 117 197 l 211 792 q 486 1028 247 1028 q 906 1010 671 1028 l 878 838 l 515 838 q 442 814 467 838 q 408 740 417 790 l 388 607 l 772 594 l 746 432 l 358 421 l 336 278 q 333 251 333 258 q 354 200 333 215 q 418 185 375 185 l 775 185 l 749 13 q 336 -8 488 -7 m 289 1293 l 456 1293 l 538 1099 l 417 1099 l 289 1293 m 538 1293 l 703 1293 l 786 1099 l 665 1099 l 538 1293 z "},"Ë":{"ha":825,"x_min":117,"x_max":906,"o":"m 336 -8 q 182 31 247 -8 q 117 172 117 69 q 121 224 117 197 l 211 792 q 486 1028 247 1028 q 906 1010 671 1028 l 878 838 l 515 838 q 442 814 467 838 q 408 740 417 790 l 388 607 l 772 594 l 746 432 l 358 421 l 336 278 q 333 251 333 258 q 354 200 333 215 q 418 185 375 185 l 775 185 l 749 13 q 336 -8 488 -7 m 396 1107 q 378 1114 385 1107 q 372 1131 372 1121 l 394 1271 q 426 1301 399 1301 l 522 1301 q 546 1278 546 1301 l 524 1136 q 492 1107 519 1107 l 396 1107 m 674 1107 q 656 1113 663 1107 q 650 1131 650 1119 l 672 1271 q 704 1301 676 1301 l 800 1301 q 824 1278 824 1301 l 801 1136 q 769 1107 797 1107 l 674 1107 z "},"Ė":{"ha":825,"x_min":117,"x_max":906,"o":"m 336 -8 q 182 31 247 -8 q 117 172 117 69 q 121 224 117 197 l 211 792 q 486 1028 247 1028 q 906 1010 671 1028 l 878 838 l 515 838 q 442 814 467 838 q 408 740 417 790 l 388 607 l 772 594 l 746 432 l 358 421 l 336 278 q 333 251 333 258 q 354 200 333 215 q 418 185 375 185 l 775 185 l 749 13 q 336 -8 488 -7 m 543 1117 q 525 1123 532 1117 q 518 1140 518 1129 l 518 1146 l 540 1281 q 574 1311 544 1311 l 668 1311 q 693 1288 693 1311 l 693 1281 l 671 1146 q 660 1124 669 1132 q 638 1117 650 1117 l 543 1117 z "},"Ẹ":{"ha":825,"x_min":117,"x_max":906,"o":"m 336 -8 q 182 31 247 -8 q 117 172 117 69 q 121 224 117 197 l 211 792 q 486 1028 247 1028 q 906 1010 671 1028 l 878 838 l 515 838 q 442 814 467 838 q 408 740 417 790 l 388 607 l 772 594 l 746 432 l 358 421 l 336 278 q 333 251 333 258 q 354 200 333 215 q 418 185 375 185 l 775 185 l 749 13 q 336 -8 488 -7 m 313 -314 q 294 -308 301 -314 q 288 -290 288 -301 l 288 -285 l 310 -150 q 343 -119 314 -119 l 438 -119 q 463 -143 463 -119 l 463 -150 l 440 -285 q 429 -306 439 -299 q 407 -314 419 -314 l 313 -314 z "},"È":{"ha":825,"x_min":117,"x_max":906,"o":"m 336 -8 q 182 31 247 -8 q 117 172 117 69 q 121 224 117 197 l 211 792 q 486 1028 247 1028 q 906 1010 671 1028 l 878 838 l 515 838 q 442 814 467 838 q 408 740 417 790 l 388 607 l 772 594 l 746 432 l 358 421 l 336 278 q 333 251 333 258 q 354 200 333 215 q 418 185 375 185 l 775 185 l 749 13 q 336 -8 488 -7 m 429 1293 l 594 1293 l 678 1099 l 557 1099 l 429 1293 z "},"Ẻ":{"ha":825,"x_min":117,"x_max":906,"o":"m 336 -8 q 182 31 247 -8 q 117 172 117 69 q 121 224 117 197 l 211 792 q 486 1028 247 1028 q 906 1010 671 1028 l 878 838 l 515 838 q 442 814 467 838 q 408 740 417 790 l 388 607 l 772 594 l 746 432 l 358 421 l 336 278 q 333 251 333 258 q 354 200 333 215 q 418 185 375 185 l 775 185 l 749 13 q 336 -8 488 -7 m 571 1151 q 636 1217 636 1169 q 594 1246 636 1246 q 549 1238 579 1246 l 561 1318 q 636 1329 597 1329 q 747 1233 747 1329 q 702 1133 747 1178 q 557 1061 657 1088 l 571 1151 z "},"Ȇ":{"ha":825,"x_min":117,"x_max":906,"o":"m 336 -8 q 182 31 247 -8 q 117 172 117 69 q 121 224 117 197 l 211 792 q 486 1028 247 1028 q 906 1010 671 1028 l 878 838 l 515 838 q 442 814 467 838 q 408 740 417 790 l 388 607 l 772 594 l 746 432 l 358 421 l 336 278 q 333 251 333 258 q 354 200 333 215 q 418 185 375 185 l 775 185 l 749 13 q 336 -8 488 -7 m 401 1092 q 478 1250 418 1199 q 631 1301 538 1301 q 751 1263 708 1301 q 794 1146 794 1224 q 789 1092 794 1131 l 694 1092 q 697 1122 697 1114 q 674 1187 697 1167 q 615 1207 651 1207 q 540 1180 571 1207 q 500 1092 508 1153 l 401 1092 z "},"Ē":{"ha":825,"x_min":117,"x_max":906,"o":"m 336 -8 q 182 31 247 -8 q 117 172 117 69 q 121 224 117 197 l 211 792 q 486 1028 247 1028 q 906 1010 671 1028 l 878 838 l 515 838 q 442 814 467 838 q 408 740 417 790 l 388 607 l 772 594 l 746 432 l 358 421 l 336 278 q 333 251 333 258 q 354 200 333 215 q 418 185 375 185 l 775 185 l 749 13 q 336 -8 488 -7 m 417 1243 l 807 1243 l 788 1121 l 397 1121 l 417 1243 z "},"Ḗ":{"ha":825,"x_min":117,"x_max":906,"o":"m 336 -8 q 182 31 247 -8 q 117 172 117 69 q 121 224 117 197 l 211 792 q 486 1028 247 1028 q 906 1010 671 1028 l 878 838 l 515 838 q 442 814 467 838 q 408 740 417 790 l 388 607 l 772 594 l 746 432 l 358 421 l 336 278 q 333 251 333 258 q 354 200 333 215 q 418 185 375 185 l 775 185 l 749 13 q 336 -8 488 -7 m 417 1243 l 807 1243 l 788 1121 l 397 1121 l 417 1243 m 669 1500 l 846 1500 l 665 1306 l 533 1306 l 669 1500 z "},"Ḕ":{"ha":825,"x_min":117,"x_max":906,"o":"m 336 -8 q 182 31 247 -8 q 117 172 117 69 q 121 224 117 197 l 211 792 q 486 1028 247 1028 q 906 1010 671 1028 l 878 838 l 515 838 q 442 814 467 838 q 408 740 417 790 l 388 607 l 772 594 l 746 432 l 358 421 l 336 278 q 333 251 333 258 q 354 200 333 215 q 418 185 375 185 l 775 185 l 749 13 q 336 -8 488 -7 m 417 1243 l 807 1243 l 788 1121 l 397 1121 l 417 1243 m 418 1500 l 583 1500 l 667 1306 l 546 1306 l 418 1500 z "},"Ę":{"ha":825,"x_min":117,"x_max":906,"o":"m 515 838 q 442 814 467 838 q 408 740 417 790 l 388 607 l 772 594 l 746 432 l 358 421 l 336 278 q 333 251 333 258 q 354 200 333 215 q 418 185 375 185 l 775 185 l 749 13 q 685 -40 706 -11 q 664 -93 664 -69 q 683 -137 664 -121 q 735 -153 703 -153 l 747 -153 l 732 -249 q 686 -254 719 -254 q 589 -224 621 -254 q 557 -150 557 -194 q 584 -62 557 -103 q 661 6 611 -22 q 336 -8 482 -7 q 182 31 247 -8 q 117 172 117 69 q 121 224 117 197 l 211 792 q 486 1028 247 1028 q 906 1010 671 1028 l 878 838 l 515 838 z "},"Ẽ":{"ha":825,"x_min":117,"x_max":906,"o":"m 336 -8 q 182 31 247 -8 q 117 172 117 69 q 121 224 117 197 l 211 792 q 486 1028 247 1028 q 906 1010 671 1028 l 878 838 l 515 838 q 442 814 467 838 q 408 740 417 790 l 388 607 l 772 594 l 746 432 l 358 421 l 336 278 q 333 251 333 258 q 354 200 333 215 q 418 185 375 185 l 775 185 l 749 13 q 336 -8 488 -7 m 342 1104 q 514 1276 381 1276 q 573 1267 546 1276 q 632 1243 600 1258 q 711 1219 685 1219 q 755 1236 738 1219 q 778 1283 772 1253 l 881 1283 q 817 1148 858 1190 q 710 1106 775 1106 q 655 1114 681 1106 q 589 1139 629 1122 q 547 1156 568 1149 q 511 1163 526 1163 q 469 1146 486 1163 q 444 1104 451 1129 l 342 1104 z "},"F":{"ha":783,"x_min":86,"x_max":903,"o":"m 211 794 q 483 1028 249 1028 q 903 1010 686 1028 l 876 838 l 514 838 q 440 814 465 838 q 408 740 415 790 l 383 575 l 768 564 l 742 401 l 354 392 l 292 0 l 86 0 l 211 794 z "},"Ḟ":{"ha":783,"x_min":86,"x_max":903,"o":"m 211 794 q 483 1028 249 1028 q 903 1010 686 1028 l 876 838 l 514 838 q 440 814 465 838 q 408 740 415 790 l 383 575 l 768 564 l 742 401 l 354 392 l 292 0 l 86 0 l 211 794 m 549 1117 q 531 1123 538 1117 q 524 1140 524 1129 l 524 1146 l 546 1281 q 579 1311 550 1311 l 674 1311 q 699 1288 699 1311 l 699 1281 l 676 1146 q 665 1124 675 1132 q 643 1117 656 1117 l 549 1117 z "},"G":{"ha":914,"x_min":126,"x_max":951,"o":"m 393 -8 q 188 69 250 -8 q 126 315 126 146 q 150 557 126 407 q 297 917 188 797 q 599 1038 407 1038 q 796 1025 715 1038 q 951 989 876 1013 l 926 829 q 622 853 800 853 q 482 819 533 853 q 401 714 431 786 q 351 511 372 642 q 335 332 335 399 q 366 219 335 257 q 465 182 397 182 q 576 192 513 182 q 674 211 639 201 l 706 413 l 521 413 l 547 575 q 622 582 557 576 q 779 588 688 588 q 931 585 867 588 l 839 0 l 683 0 l 667 69 q 537 17 622 43 q 393 -8 451 -8 z "},"Ğ":{"ha":914,"x_min":126,"x_max":951,"o":"m 393 -8 q 188 69 250 -8 q 126 315 126 146 q 150 557 126 407 q 297 917 188 797 q 599 1038 407 1038 q 796 1025 715 1038 q 951 989 876 1013 l 926 829 q 622 853 800 853 q 482 819 533 853 q 401 714 431 786 q 351 511 372 642 q 335 332 335 399 q 366 219 335 257 q 465 182 397 182 q 576 192 513 182 q 674 211 639 201 l 706 413 l 521 413 l 547 575 q 622 582 557 576 q 779 588 688 588 q 931 585 867 588 l 839 0 l 683 0 l 667 69 q 537 17 622 43 q 393 -8 451 -8 m 613 1088 q 492 1126 535 1088 q 449 1243 449 1165 q 454 1297 449 1258 l 549 1297 q 546 1267 546 1275 q 569 1203 546 1224 q 626 1182 592 1182 q 743 1297 726 1182 l 842 1297 q 765 1139 825 1190 q 613 1088 706 1088 z "},"Ǧ":{"ha":914,"x_min":126,"x_max":951,"o":"m 393 -8 q 188 69 250 -8 q 126 315 126 146 q 150 557 126 407 q 297 917 188 797 q 599 1038 407 1038 q 796 1025 715 1038 q 951 989 876 1013 l 926 829 q 622 853 800 853 q 482 819 533 853 q 401 714 431 786 q 351 511 372 642 q 335 332 335 399 q 366 219 335 257 q 465 182 397 182 q 576 192 513 182 q 674 211 639 201 l 706 413 l 521 413 l 547 575 q 622 582 557 576 q 779 588 688 588 q 931 585 867 588 l 839 0 l 683 0 l 667 69 q 537 17 622 43 q 393 -8 451 -8 m 458 1296 l 578 1296 l 653 1190 l 767 1296 l 888 1296 l 706 1099 l 565 1099 l 458 1296 z "},"Ĝ":{"ha":914,"x_min":126,"x_max":951,"o":"m 393 -8 q 188 69 250 -8 q 126 315 126 146 q 150 557 126 407 q 297 917 188 797 q 599 1038 407 1038 q 796 1025 715 1038 q 951 989 876 1013 l 926 829 q 622 853 800 853 q 482 819 533 853 q 401 714 431 786 q 351 511 372 642 q 335 332 335 399 q 366 219 335 257 q 465 182 397 182 q 576 192 513 182 q 674 211 639 201 l 706 413 l 521 413 l 547 575 q 622 582 557 576 q 779 588 688 588 q 931 585 867 588 l 839 0 l 683 0 l 667 69 q 537 17 622 43 q 393 -8 451 -8 m 574 1296 l 714 1296 l 819 1099 l 700 1099 l 626 1204 l 511 1099 l 392 1099 l 574 1296 z "},"Ģ":{"ha":914,"x_min":126,"x_max":951,"o":"m 393 -8 q 188 69 250 -8 q 126 315 126 146 q 150 557 126 407 q 297 917 188 797 q 599 1038 407 1038 q 796 1025 715 1038 q 951 989 876 1013 l 926 829 q 622 853 800 853 q 482 819 533 853 q 401 714 431 786 q 351 511 372 642 q 335 332 335 399 q 366 219 335 257 q 465 182 397 182 q 576 192 513 182 q 674 211 639 201 l 706 413 l 521 413 l 547 575 q 622 582 557 576 q 779 588 688 588 q 931 585 867 588 l 839 0 l 683 0 l 667 69 q 537 17 622 43 q 393 -8 451 -8 m 271 -215 l 310 -206 q 370 -176 353 -196 q 396 -101 388 -157 l 522 -101 q 463 -255 506 -210 q 328 -300 421 -300 l 257 -300 l 271 -215 z "},"Ġ":{"ha":914,"x_min":126,"x_max":951,"o":"m 393 -8 q 188 69 250 -8 q 126 315 126 146 q 150 557 126 407 q 297 917 188 797 q 599 1038 407 1038 q 796 1025 715 1038 q 951 989 876 1013 l 926 829 q 622 853 800 853 q 482 819 533 853 q 401 714 431 786 q 351 511 372 642 q 335 332 335 399 q 366 219 335 257 q 465 182 397 182 q 576 192 513 182 q 674 211 639 201 l 706 413 l 521 413 l 547 575 q 622 582 557 576 q 779 588 688 588 q 931 585 867 588 l 839 0 l 683 0 l 667 69 q 537 17 622 43 q 393 -8 451 -8 m 571 1117 q 553 1123 560 1117 q 546 1140 546 1129 l 546 1146 l 568 1281 q 601 1311 572 1311 l 696 1311 q 721 1288 721 1311 l 721 1281 l 699 1146 q 688 1124 697 1132 q 665 1117 678 1117 l 571 1117 z "},"Ḡ":{"ha":914,"x_min":126,"x_max":951,"o":"m 393 -8 q 188 69 250 -8 q 126 315 126 146 q 150 557 126 407 q 297 917 188 797 q 599 1038 407 1038 q 796 1025 715 1038 q 951 989 876 1013 l 926 829 q 622 853 800 853 q 482 819 533 853 q 401 714 431 786 q 351 511 372 642 q 335 332 335 399 q 366 219 335 257 q 465 182 397 182 q 576 192 513 182 q 674 211 639 201 l 706 413 l 521 413 l 547 575 q 622 582 557 576 q 779 588 688 588 q 931 585 867 588 l 839 0 l 683 0 l 667 69 q 537 17 622 43 q 393 -8 451 -8 m 444 1243 l 835 1243 l 815 1121 l 425 1121 l 444 1243 z "},"H":{"ha":960,"x_min":86,"x_max":1047,"o":"m 249 1028 l 454 1028 l 386 600 l 774 600 l 842 1028 l 1047 1028 l 885 0 l 679 0 l 744 415 l 357 415 l 292 0 l 86 0 l 249 1028 z "},"Ħ":{"ha":960,"x_min":86,"x_max":1089,"o":"m 1072 719 l 999 719 l 885 0 l 679 0 l 744 415 l 357 415 l 292 0 l 86 0 l 200 719 l 125 719 l 142 822 l 217 822 l 249 1028 l 454 1028 l 421 822 l 808 822 l 842 1028 l 1047 1028 l 1015 822 l 1089 822 l 1072 719 m 793 719 l 406 719 l 386 600 l 774 600 l 793 719 z "},"Ḫ":{"ha":960,"x_min":86,"x_max":1047,"o":"m 249 1028 l 454 1028 l 386 600 l 774 600 l 842 1028 l 1047 1028 l 885 0 l 679 0 l 744 415 l 357 415 l 292 0 l 86 0 l 249 1028 m 424 -315 q 302 -277 344 -315 q 260 -160 260 -239 q 264 -106 260 -135 l 360 -106 q 357 -136 357 -128 q 379 -201 357 -181 q 438 -221 401 -221 q 554 -106 536 -221 l 651 -106 q 576 -264 635 -212 q 424 -315 517 -315 z "},"Ĥ":{"ha":960,"x_min":86,"x_max":1047,"o":"m 249 1028 l 454 1028 l 386 600 l 774 600 l 842 1028 l 1047 1028 l 885 0 l 679 0 l 744 415 l 357 415 l 292 0 l 86 0 l 249 1028 m 607 1296 l 747 1296 l 853 1099 l 733 1099 l 660 1204 l 544 1099 l 425 1099 l 607 1296 z "},"Ḥ":{"ha":960,"x_min":86,"x_max":1047,"o":"m 249 1028 l 454 1028 l 386 600 l 774 600 l 842 1028 l 1047 1028 l 885 0 l 679 0 l 744 415 l 357 415 l 292 0 l 86 0 l 249 1028 m 374 -314 q 356 -308 363 -314 q 349 -290 349 -301 l 349 -285 l 371 -150 q 404 -119 375 -119 l 499 -119 q 524 -143 524 -119 l 524 -150 l 501 -285 q 490 -306 500 -299 q 468 -314 481 -314 l 374 -314 z "},"I":{"ha":378,"x_min":86,"x_max":454,"o":"m 249 1028 l 454 1028 l 292 0 l 86 0 l 249 1028 z "},"Í":{"ha":378,"x_min":86,"x_max":599,"o":"m 249 1028 l 454 1028 l 292 0 l 86 0 l 249 1028 m 422 1293 l 599 1293 l 418 1099 l 286 1099 l 422 1293 z "},"Ĭ":{"ha":378,"x_min":86,"x_max":583,"o":"m 249 1028 l 454 1028 l 292 0 l 86 0 l 249 1028 m 354 1088 q 233 1126 276 1088 q 190 1243 190 1165 q 196 1297 190 1258 l 290 1297 q 288 1267 288 1275 q 310 1203 288 1224 q 368 1182 333 1182 q 485 1297 468 1182 l 583 1297 q 507 1139 567 1190 q 354 1088 447 1088 z "},"Î":{"ha":378,"x_min":86,"x_max":561,"o":"m 249 1028 l 454 1028 l 292 0 l 86 0 l 249 1028 m 315 1296 l 456 1296 l 561 1099 l 442 1099 l 368 1204 l 253 1099 l 133 1099 l 315 1296 z "},"Ȉ":{"ha":378,"x_min":58,"x_max":556,"o":"m 249 1028 l 454 1028 l 292 0 l 86 0 l 249 1028 m 58 1293 l 225 1293 l 307 1099 l 186 1099 l 58 1293 m 307 1293 l 472 1293 l 556 1099 l 435 1099 l 307 1293 z "},"Ï":{"ha":378,"x_min":86,"x_max":593,"o":"m 249 1028 l 454 1028 l 292 0 l 86 0 l 249 1028 m 165 1107 q 148 1114 154 1107 q 142 1131 142 1121 l 164 1271 q 196 1301 168 1301 l 292 1301 q 315 1278 315 1301 l 293 1136 q 261 1107 289 1107 l 165 1107 m 443 1107 q 426 1113 432 1107 q 419 1131 419 1119 l 442 1271 q 474 1301 446 1301 l 569 1301 q 593 1278 593 1301 l 571 1136 q 539 1107 567 1107 l 443 1107 z "},"Ḯ":{"ha":378,"x_min":86,"x_max":622,"o":"m 249 1028 l 454 1028 l 292 0 l 86 0 l 249 1028 m 165 1107 q 148 1114 154 1107 q 142 1131 142 1121 l 164 1271 q 196 1301 168 1301 l 292 1301 q 315 1278 315 1301 l 293 1136 q 261 1107 289 1107 l 165 1107 m 443 1107 q 426 1113 432 1107 q 419 1131 419 1119 l 442 1271 q 474 1301 446 1301 l 569 1301 q 593 1278 593 1301 l 571 1136 q 539 1107 567 1107 l 443 1107 m 446 1536 l 622 1536 l 442 1342 l 310 1342 l 446 1536 z "},"İ":{"ha":378,"x_min":86,"x_max":463,"o":"m 249 1028 l 454 1028 l 292 0 l 86 0 l 249 1028 m 313 1117 q 294 1123 301 1117 q 288 1140 288 1129 l 288 1146 l 310 1281 q 343 1311 314 1311 l 438 1311 q 463 1288 463 1311 l 463 1281 l 440 1146 q 429 1124 439 1132 q 407 1117 419 1117 l 313 1117 z "},"Ị":{"ha":378,"x_min":57,"x_max":454,"o":"m 249 1028 l 454 1028 l 292 0 l 86 0 l 249 1028 m 82 -314 q 64 -308 71 -314 q 57 -290 57 -301 l 57 -285 l 79 -150 q 113 -119 83 -119 l 207 -119 q 232 -143 232 -119 l 232 -150 l 210 -285 q 199 -306 208 -299 q 176 -314 189 -314 l 82 -314 z "},"Ì":{"ha":378,"x_min":86,"x_max":454,"o":"m 249 1028 l 454 1028 l 292 0 l 86 0 l 249 1028 m 199 1293 l 364 1293 l 447 1099 l 326 1099 l 199 1293 z "},"Ỉ":{"ha":378,"x_min":86,"x_max":517,"o":"m 249 1028 l 454 1028 l 292 0 l 86 0 l 249 1028 m 340 1151 q 406 1217 406 1169 q 364 1246 406 1246 q 318 1238 349 1246 l 331 1318 q 406 1329 367 1329 q 517 1233 517 1329 q 472 1133 517 1178 q 326 1061 426 1088 l 340 1151 z "},"Ȋ":{"ha":378,"x_min":86,"x_max":564,"o":"m 249 1028 l 454 1028 l 292 0 l 86 0 l 249 1028 m 171 1092 q 247 1250 188 1199 q 400 1301 307 1301 q 521 1263 478 1301 q 564 1146 564 1224 q 558 1092 564 1131 l 464 1092 q 467 1122 467 1114 q 444 1187 467 1167 q 385 1207 421 1207 q 309 1180 340 1207 q 269 1092 278 1153 l 171 1092 z "},"Ī":{"ha":378,"x_min":86,"x_max":576,"o":"m 249 1028 l 454 1028 l 292 0 l 86 0 l 249 1028 m 186 1243 l 576 1243 l 557 1121 l 167 1121 l 186 1243 z "},"Į":{"ha":378,"x_min":86,"x_max":454,"o":"m 249 1028 l 454 1028 l 292 0 l 86 0 l 249 1028 m 229 -267 q 132 -237 164 -267 q 100 -162 100 -207 q 131 -69 100 -111 q 217 0 161 -28 l 292 0 q 228 -53 249 -24 q 207 -106 207 -82 q 226 -149 207 -133 q 278 -165 246 -165 l 290 -165 l 275 -261 q 229 -267 263 -267 z "},"Ĩ":{"ha":378,"x_min":86,"x_max":650,"o":"m 249 1028 l 454 1028 l 292 0 l 86 0 l 249 1028 m 111 1104 q 283 1276 150 1276 q 342 1267 315 1276 q 401 1243 369 1258 q 481 1219 454 1219 q 524 1236 507 1219 q 547 1283 542 1253 l 650 1283 q 586 1148 628 1190 q 479 1106 544 1106 q 424 1114 450 1106 q 358 1139 399 1122 q 317 1156 338 1149 q 281 1163 296 1163 q 238 1146 256 1163 q 214 1104 221 1129 l 111 1104 z "},"J":{"ha":543,"x_min":46,"x_max":631,"o":"m 208 -8 q 120 1 165 -8 q 46 22 75 10 l 72 186 q 174 179 114 179 q 267 208 235 179 q 310 297 300 238 l 425 1028 l 631 1028 l 508 254 q 416 52 486 113 q 208 -8 346 -8 z "},"Ĵ":{"ha":543,"x_min":46,"x_max":736,"o":"m 208 -8 q 120 1 165 -8 q 46 22 75 10 l 72 186 q 174 179 114 179 q 267 208 235 179 q 310 297 300 238 l 425 1028 l 631 1028 l 508 254 q 416 52 486 113 q 208 -8 346 -8 m 490 1296 l 631 1296 l 736 1099 l 617 1099 l 543 1204 l 428 1099 l 308 1099 l 490 1296 z "},"K":{"ha":890,"x_min":86,"x_max":1017,"o":"m 249 1028 l 454 1028 l 389 608 l 524 608 l 806 1028 l 1017 1028 l 675 511 l 878 0 l 672 0 l 506 424 l 358 424 l 292 0 l 86 0 l 249 1028 z "},"Ķ":{"ha":890,"x_min":86,"x_max":1017,"o":"m 249 1028 l 454 1028 l 389 608 l 524 608 l 806 1028 l 1017 1028 l 675 511 l 878 0 l 672 0 l 506 424 l 358 424 l 292 0 l 86 0 l 249 1028 m 263 -215 l 301 -206 q 362 -176 344 -196 q 388 -101 379 -157 l 514 -101 q 455 -255 497 -210 q 319 -300 413 -300 l 249 -300 l 263 -215 z "},"L":{"ha":739,"x_min":121,"x_max":739,"o":"m 325 0 q 174 46 228 0 q 121 186 121 92 q 125 250 121 217 l 249 1028 l 454 1028 l 336 276 q 333 250 333 267 q 353 200 333 215 q 414 185 374 185 l 739 185 l 708 0 l 325 0 z "},"Ĺ":{"ha":739,"x_min":121,"x_max":739,"o":"m 325 0 q 174 46 228 0 q 121 186 121 92 q 125 250 121 217 l 249 1028 l 454 1028 l 336 276 q 333 250 333 267 q 353 200 333 215 q 414 185 374 185 l 739 185 l 708 0 l 325 0 m 425 1293 l 601 1293 l 421 1099 l 289 1099 l 425 1293 z "},"Ľ":{"ha":739,"x_min":121,"x_max":763,"o":"m 325 0 q 174 46 228 0 q 121 186 121 92 q 125 250 121 217 l 249 1028 l 454 1028 l 336 276 q 333 250 333 267 q 353 200 333 215 q 414 185 374 185 l 739 185 l 708 0 l 325 0 m 561 951 l 575 1044 l 763 1044 l 747 951 l 706 757 l 544 757 l 561 951 z "},"Ļ":{"ha":739,"x_min":121,"x_max":739,"o":"m 325 0 q 174 46 228 0 q 121 186 121 92 q 125 250 121 217 l 249 1028 l 454 1028 l 336 276 q 333 250 333 267 q 353 200 333 215 q 414 185 374 185 l 739 185 l 708 0 l 325 0 m 204 -215 l 243 -206 q 303 -176 286 -196 q 329 -101 321 -157 l 456 -101 q 397 -255 439 -210 q 261 -300 354 -300 l 190 -300 l 204 -215 z "},"Ŀ":{"ha":739,"x_min":121,"x_max":739,"o":"m 325 0 q 174 46 228 0 q 121 186 121 92 q 125 250 121 217 l 249 1028 l 454 1028 l 336 276 q 333 250 333 267 q 353 200 333 215 q 414 185 374 185 l 739 185 l 708 0 l 325 0 m 565 515 q 546 523 553 515 q 540 543 539 531 l 560 667 q 571 688 563 681 q 593 696 579 696 l 713 696 q 738 667 744 696 l 718 543 q 685 515 713 515 l 565 515 z "},"Ḷ":{"ha":739,"x_min":121,"x_max":739,"o":"m 325 0 q 174 46 228 0 q 121 186 121 92 q 125 250 121 217 l 249 1028 l 454 1028 l 336 276 q 333 250 333 267 q 353 200 333 215 q 414 185 374 185 l 739 185 l 708 0 l 325 0 m 274 -314 q 256 -308 263 -314 q 249 -290 249 -301 l 249 -285 l 271 -150 q 304 -119 275 -119 l 399 -119 q 424 -143 424 -119 l 424 -150 l 401 -285 q 390 -306 400 -299 q 368 -314 381 -314 l 274 -314 z "},"Ḻ":{"ha":739,"x_min":119,"x_max":739,"o":"m 325 0 q 174 46 228 0 q 121 186 121 92 q 125 250 121 217 l 249 1028 l 454 1028 l 336 276 q 333 250 333 267 q 353 200 333 215 q 414 185 374 185 l 739 185 l 708 0 l 325 0 m 139 -174 l 529 -174 l 510 -296 l 119 -296 l 139 -174 z "},"Ł":{"ha":739,"x_min":65,"x_max":739,"o":"m 739 185 l 708 0 l 325 0 q 174 46 228 0 q 121 186 121 92 q 125 250 121 217 l 158 460 l 65 422 l 83 532 l 175 569 l 249 1028 l 454 1028 l 392 633 l 589 714 l 572 604 l 375 524 l 336 276 q 333 250 333 267 q 353 200 333 215 q 414 185 374 185 l 739 185 z "},"M":{"ha":1207,"x_min":57,"x_max":1208,"o":"m 344 1028 l 538 1028 l 653 243 l 1017 1028 l 1208 1028 l 1167 0 l 968 0 l 996 661 l 710 0 l 517 0 l 439 653 l 261 0 l 57 0 l 344 1028 z "},"Ṁ":{"ha":1207,"x_min":57,"x_max":1208,"o":"m 344 1028 l 538 1028 l 653 243 l 1017 1028 l 1208 1028 l 1167 0 l 968 0 l 996 661 l 710 0 l 517 0 l 439 653 l 261 0 l 57 0 l 344 1028 m 718 1117 q 700 1123 707 1117 q 693 1140 693 1129 l 693 1146 l 715 1281 q 749 1311 719 1311 l 843 1311 q 868 1288 868 1311 l 868 1281 l 846 1146 q 835 1124 844 1132 q 813 1117 825 1117 l 718 1117 z "},"Ṃ":{"ha":1207,"x_min":57,"x_max":1208,"o":"m 344 1028 l 538 1028 l 653 243 l 1017 1028 l 1208 1028 l 1167 0 l 968 0 l 996 661 l 710 0 l 517 0 l 439 653 l 261 0 l 57 0 l 344 1028 m 488 -314 q 469 -308 476 -314 q 463 -290 463 -301 l 463 -285 l 485 -150 q 518 -119 489 -119 l 613 -119 q 638 -143 638 -119 l 638 -150 l 615 -285 q 604 -306 614 -299 q 582 -314 594 -314 l 488 -314 z "},"N":{"ha":963,"x_min":86,"x_max":1050,"o":"m 249 1028 l 414 1028 l 736 350 l 844 1028 l 1050 1028 l 886 0 l 722 0 l 400 679 l 292 0 l 86 0 l 249 1028 z "},"Ń":{"ha":963,"x_min":86,"x_max":1050,"o":"m 249 1028 l 414 1028 l 736 350 l 844 1028 l 1050 1028 l 886 0 l 722 0 l 400 679 l 292 0 l 86 0 l 249 1028 m 693 1293 l 869 1293 l 689 1099 l 557 1099 l 693 1293 z "},"Ň":{"ha":963,"x_min":86,"x_max":1050,"o":"m 249 1028 l 414 1028 l 736 350 l 844 1028 l 1050 1028 l 886 0 l 722 0 l 400 679 l 292 0 l 86 0 l 249 1028 m 471 1296 l 590 1296 l 665 1190 l 779 1296 l 900 1296 l 718 1099 l 578 1099 l 471 1296 z "},"Ņ":{"ha":963,"x_min":86,"x_max":1050,"o":"m 249 1028 l 414 1028 l 736 350 l 844 1028 l 1050 1028 l 886 0 l 722 0 l 400 679 l 292 0 l 86 0 l 249 1028 m 283 -215 l 322 -206 q 383 -176 365 -196 q 408 -101 400 -157 l 535 -101 q 476 -255 518 -210 q 340 -300 433 -300 l 269 -300 l 283 -215 z "},"Ṅ":{"ha":963,"x_min":86,"x_max":1050,"o":"m 249 1028 l 414 1028 l 736 350 l 844 1028 l 1050 1028 l 886 0 l 722 0 l 400 679 l 292 0 l 86 0 l 249 1028 m 353 -314 q 335 -308 342 -314 q 328 -290 328 -301 l 328 -285 l 350 -150 q 383 -119 354 -119 l 478 -119 q 503 -143 503 -119 l 503 -150 l 481 -285 q 469 -306 479 -299 q 447 -314 460 -314 l 353 -314 z "},"Ṇ":{"ha":963,"x_min":86,"x_max":1050,"o":"m 249 1028 l 414 1028 l 736 350 l 844 1028 l 1050 1028 l 886 0 l 722 0 l 400 679 l 292 0 l 86 0 l 249 1028 m 353 -314 q 335 -308 342 -314 q 328 -290 328 -301 l 328 -285 l 350 -150 q 383 -119 354 -119 l 478 -119 q 503 -143 503 -119 l 503 -150 l 481 -285 q 469 -306 479 -299 q 447 -314 460 -314 l 353 -314 z "},"Ŋ":{"ha":963,"x_min":86,"x_max":1050,"o":"m 900 85 l 875 -74 q 778 -272 854 -207 q 560 -337 703 -337 q 472 -329 517 -337 q 396 -310 428 -321 l 421 -146 q 550 -153 522 -153 q 633 -126 603 -153 q 674 -43 664 -100 l 692 65 l 400 679 l 292 0 l 86 0 l 249 1028 l 414 1028 l 736 350 l 844 1028 l 1050 1028 l 900 85 z "},"Ṉ":{"ha":963,"x_min":86,"x_max":1050,"o":"m 249 1028 l 414 1028 l 736 350 l 844 1028 l 1050 1028 l 886 0 l 722 0 l 400 679 l 292 0 l 86 0 l 249 1028 m 225 -174 l 615 -174 l 596 -296 l 206 -296 l 225 -174 z "},"Ñ":{"ha":963,"x_min":86,"x_max":1050,"o":"m 249 1028 l 414 1028 l 736 350 l 844 1028 l 1050 1028 l 886 0 l 722 0 l 400 679 l 292 0 l 86 0 l 249 1028 m 382 1104 q 554 1276 421 1276 q 613 1267 586 1276 q 672 1243 640 1258 q 751 1219 725 1219 q 795 1236 778 1219 q 818 1283 813 1253 l 921 1283 q 857 1148 899 1190 q 750 1106 815 1106 q 695 1114 721 1106 q 629 1139 669 1122 q 588 1156 608 1149 q 551 1163 567 1163 q 509 1146 526 1163 q 485 1104 492 1129 l 382 1104 z "},"O":{"ha":968,"x_min":126,"x_max":1003,"o":"m 481 -8 q 289 18 365 -8 q 169 116 213 44 q 126 317 126 188 q 147 542 126 407 q 238 842 178 735 q 395 992 297 949 q 649 1036 493 1036 q 838 1008 761 1036 q 958 906 914 981 q 1003 696 1003 831 q 981 474 1003 603 q 890 174 950 278 q 735 31 831 69 q 481 -8 639 -8 m 514 178 q 647 208 596 178 q 727 308 697 239 q 776 501 757 378 q 796 693 796 618 q 776 791 796 757 q 719 838 757 825 q 618 851 682 851 q 487 823 536 851 q 406 722 438 794 q 353 514 375 650 q 332 328 332 392 q 373 209 332 240 q 514 178 414 178 z "},"Ó":{"ha":968,"x_min":126,"x_max":1003,"o":"m 481 -8 q 289 18 365 -8 q 169 116 213 44 q 126 317 126 188 q 147 542 126 407 q 238 842 178 735 q 395 992 297 949 q 649 1036 493 1036 q 838 1008 761 1036 q 958 906 914 981 q 1003 696 1003 831 q 981 474 1003 603 q 890 174 950 278 q 735 31 831 69 q 481 -8 639 -8 m 514 178 q 647 208 596 178 q 727 308 697 239 q 776 501 757 378 q 796 693 796 618 q 776 791 796 757 q 719 838 757 825 q 618 851 682 851 q 487 823 536 851 q 406 722 438 794 q 353 514 375 650 q 332 328 332 392 q 373 209 332 240 q 514 178 414 178 m 719 1293 l 896 1293 l 715 1099 l 583 1099 l 719 1293 z "},"Ŏ":{"ha":968,"x_min":126,"x_max":1003,"o":"m 481 -8 q 289 18 365 -8 q 169 116 213 44 q 126 317 126 188 q 147 542 126 407 q 238 842 178 735 q 395 992 297 949 q 649 1036 493 1036 q 838 1008 761 1036 q 958 906 914 981 q 1003 696 1003 831 q 981 474 1003 603 q 890 174 950 278 q 735 31 831 69 q 481 -8 639 -8 m 514 178 q 647 208 596 178 q 727 308 697 239 q 776 501 757 378 q 796 693 796 618 q 776 791 796 757 q 719 838 757 825 q 618 851 682 851 q 487 823 536 851 q 406 722 438 794 q 353 514 375 650 q 332 328 332 392 q 373 209 332 240 q 514 178 414 178 m 651 1088 q 531 1126 574 1088 q 488 1243 488 1165 q 493 1297 488 1258 l 588 1297 q 585 1267 585 1275 q 608 1203 585 1224 q 665 1182 631 1182 q 782 1297 765 1182 l 881 1297 q 804 1139 864 1190 q 651 1088 744 1088 z "},"Ô":{"ha":968,"x_min":126,"x_max":1003,"o":"m 481 -8 q 289 18 365 -8 q 169 116 213 44 q 126 317 126 188 q 147 542 126 407 q 238 842 178 735 q 395 992 297 949 q 649 1036 493 1036 q 838 1008 761 1036 q 958 906 914 981 q 1003 696 1003 831 q 981 474 1003 603 q 890 174 950 278 q 735 31 831 69 q 481 -8 639 -8 m 514 178 q 647 208 596 178 q 727 308 697 239 q 776 501 757 378 q 796 693 796 618 q 776 791 796 757 q 719 838 757 825 q 618 851 682 851 q 487 823 536 851 q 406 722 438 794 q 353 514 375 650 q 332 328 332 392 q 373 209 332 240 q 514 178 414 178 m 613 1296 l 753 1296 l 858 1099 l 739 1099 l 665 1204 l 550 1099 l 431 1099 l 613 1296 z "},"Ố":{"ha":968,"x_min":126,"x_max":1057,"o":"m 481 -8 q 289 18 365 -8 q 169 116 213 44 q 126 317 126 188 q 147 542 126 407 q 238 842 178 735 q 395 992 297 949 q 649 1036 493 1036 q 838 1008 761 1036 q 958 906 914 981 q 1003 696 1003 831 q 981 474 1003 603 q 890 174 950 278 q 735 31 831 69 q 481 -8 639 -8 m 514 178 q 647 208 596 178 q 727 308 697 239 q 776 501 757 378 q 796 693 796 618 q 776 791 796 757 q 719 838 757 825 q 618 851 682 851 q 487 823 536 851 q 406 722 438 794 q 353 514 375 650 q 332 328 332 392 q 373 209 332 240 q 514 178 414 178 m 901 1390 l 1057 1390 l 921 1217 l 810 1217 l 901 1390 m 617 1250 l 757 1250 l 871 1099 l 751 1099 l 669 1158 l 563 1099 l 443 1099 l 617 1250 z "},"Ộ":{"ha":968,"x_min":126,"x_max":1003,"o":"m 481 -8 q 289 18 365 -8 q 169 116 213 44 q 126 317 126 188 q 147 542 126 407 q 238 842 178 735 q 395 992 297 949 q 649 1036 493 1036 q 838 1008 761 1036 q 958 906 914 981 q 1003 696 1003 831 q 981 474 1003 603 q 890 174 950 278 q 735 31 831 69 q 481 -8 639 -8 m 514 178 q 647 208 596 178 q 727 308 697 239 q 776 501 757 378 q 796 693 796 618 q 776 791 796 757 q 719 838 757 825 q 618 851 682 851 q 487 823 536 851 q 406 722 438 794 q 353 514 375 650 q 332 328 332 392 q 373 209 332 240 q 514 178 414 178 m 613 1296 l 753 1296 l 858 1099 l 739 1099 l 665 1204 l 550 1099 l 431 1099 l 613 1296 m 379 -314 q 361 -308 368 -314 q 354 -290 354 -301 l 354 -285 l 376 -150 q 410 -119 381 -119 l 504 -119 q 529 -143 529 -119 l 529 -150 l 507 -285 q 496 -306 506 -299 q 474 -314 486 -314 l 379 -314 z "},"Ồ":{"ha":968,"x_min":126,"x_max":1003,"o":"m 481 -8 q 289 18 365 -8 q 169 116 213 44 q 126 317 126 188 q 147 542 126 407 q 238 842 178 735 q 395 992 297 949 q 649 1036 493 1036 q 838 1008 761 1036 q 958 906 914 981 q 1003 696 1003 831 q 981 474 1003 603 q 890 174 950 278 q 735 31 831 69 q 481 -8 639 -8 m 514 178 q 647 208 596 178 q 727 308 697 239 q 776 501 757 378 q 796 693 796 618 q 776 791 796 757 q 719 838 757 825 q 618 851 682 851 q 487 823 536 851 q 406 722 438 794 q 353 514 375 650 q 332 328 332 392 q 373 209 332 240 q 514 178 414 178 m 357 1390 l 514 1390 l 549 1217 l 438 1217 l 357 1390 m 614 1250 l 754 1250 l 868 1099 l 749 1099 l 667 1158 l 560 1099 l 439 1099 l 614 1250 z "},"Ổ":{"ha":968,"x_min":126,"x_max":1003,"o":"m 481 -8 q 289 18 365 -8 q 169 116 213 44 q 126 317 126 188 q 147 542 126 407 q 238 842 178 735 q 395 992 297 949 q 649 1036 493 1036 q 838 1008 761 1036 q 958 906 914 981 q 1003 696 1003 831 q 981 474 1003 603 q 890 174 950 278 q 735 31 831 69 q 481 -8 639 -8 m 514 178 q 647 208 596 178 q 727 308 697 239 q 776 501 757 378 q 796 693 796 618 q 776 791 796 757 q 719 838 757 825 q 618 851 682 851 q 487 823 536 851 q 406 722 438 794 q 353 514 375 650 q 332 328 332 392 q 373 209 332 240 q 514 178 414 178 m 849 1256 q 889 1281 878 1268 q 900 1311 900 1294 q 869 1333 900 1333 q 824 1325 851 1333 l 836 1406 q 910 1417 872 1417 q 1001 1336 1001 1417 q 836 1175 1001 1221 l 849 1256 m 618 1250 l 758 1250 l 872 1099 l 753 1099 l 669 1158 l 564 1099 l 443 1099 l 618 1250 z "},"Ỗ":{"ha":968,"x_min":126,"x_max":1003,"o":"m 481 -8 q 289 18 365 -8 q 169 116 213 44 q 126 317 126 188 q 147 542 126 407 q 238 842 178 735 q 395 992 297 949 q 649 1036 493 1036 q 838 1008 761 1036 q 958 906 914 981 q 1003 696 1003 831 q 981 474 1003 603 q 890 174 950 278 q 735 31 831 69 q 481 -8 639 -8 m 514 178 q 647 208 596 178 q 727 308 697 239 q 776 501 757 378 q 796 693 796 618 q 776 791 796 757 q 719 838 757 825 q 618 851 682 851 q 487 823 536 851 q 406 722 438 794 q 353 514 375 650 q 332 328 332 392 q 373 209 332 240 q 514 178 414 178 m 454 1307 q 515 1417 474 1388 q 617 1447 556 1447 q 711 1425 658 1447 q 744 1413 728 1418 q 775 1408 761 1408 q 817 1420 801 1408 q 838 1454 833 1432 l 940 1454 q 883 1341 921 1372 q 776 1310 844 1310 q 716 1320 746 1310 q 681 1332 686 1331 q 655 1341 676 1333 q 618 1349 633 1349 q 578 1337 594 1349 q 557 1307 561 1325 l 454 1307 m 619 1250 l 760 1250 l 872 1099 l 753 1099 l 671 1158 l 564 1099 l 443 1099 l 619 1250 z "},"Ȍ":{"ha":968,"x_min":126,"x_max":1003,"o":"m 481 -8 q 289 18 365 -8 q 169 116 213 44 q 126 317 126 188 q 147 542 126 407 q 238 842 178 735 q 395 992 297 949 q 649 1036 493 1036 q 838 1008 761 1036 q 958 906 914 981 q 1003 696 1003 831 q 981 474 1003 603 q 890 174 950 278 q 735 31 831 69 q 481 -8 639 -8 m 514 178 q 647 208 596 178 q 727 308 697 239 q 776 501 757 378 q 796 693 796 618 q 776 791 796 757 q 719 838 757 825 q 618 851 682 851 q 487 823 536 851 q 406 722 438 794 q 353 514 375 650 q 332 328 332 392 q 373 209 332 240 q 514 178 414 178 m 356 1293 l 522 1293 l 604 1099 l 483 1099 l 356 1293 m 604 1293 l 769 1293 l 853 1099 l 732 1099 l 604 1293 z "},"Ö":{"ha":968,"x_min":126,"x_max":1003,"o":"m 481 -8 q 289 18 365 -8 q 169 116 213 44 q 126 317 126 188 q 147 542 126 407 q 238 842 178 735 q 395 992 297 949 q 649 1036 493 1036 q 838 1008 761 1036 q 958 906 914 981 q 1003 696 1003 831 q 981 474 1003 603 q 890 174 950 278 q 735 31 831 69 q 481 -8 639 -8 m 514 178 q 647 208 596 178 q 727 308 697 239 q 776 501 757 378 q 796 693 796 618 q 776 791 796 757 q 719 838 757 825 q 618 851 682 851 q 487 823 536 851 q 406 722 438 794 q 353 514 375 650 q 332 328 332 392 q 373 209 332 240 q 514 178 414 178 m 463 1107 q 445 1114 451 1107 q 439 1131 439 1121 l 461 1271 q 493 1301 465 1301 l 589 1301 q 613 1278 613 1301 l 590 1136 q 558 1107 586 1107 l 463 1107 m 740 1107 q 723 1113 729 1107 q 717 1131 717 1119 l 739 1271 q 771 1301 743 1301 l 867 1301 q 890 1278 890 1301 l 868 1136 q 836 1107 864 1107 l 740 1107 z "},"Ȫ":{"ha":968,"x_min":126,"x_max":1003,"o":"m 481 -8 q 289 18 365 -8 q 169 116 213 44 q 126 317 126 188 q 147 542 126 407 q 238 842 178 735 q 395 992 297 949 q 649 1036 493 1036 q 838 1008 761 1036 q 958 906 914 981 q 1003 696 1003 831 q 981 474 1003 603 q 890 174 950 278 q 735 31 831 69 q 481 -8 639 -8 m 514 178 q 647 208 596 178 q 727 308 697 239 q 776 501 757 378 q 796 693 796 618 q 776 791 796 757 q 719 838 757 825 q 618 851 682 851 q 487 823 536 851 q 406 722 438 794 q 353 514 375 650 q 332 328 332 392 q 373 209 332 240 q 514 178 414 178 m 467 1107 q 449 1114 456 1107 q 443 1131 443 1121 l 465 1271 q 497 1301 469 1301 l 593 1301 q 617 1278 617 1301 l 594 1136 q 563 1107 590 1107 l 467 1107 m 744 1107 q 727 1113 733 1107 q 721 1131 721 1119 l 743 1271 q 775 1301 747 1301 l 871 1301 q 894 1278 894 1301 l 872 1136 q 840 1107 868 1107 l 744 1107 m 513 1485 l 903 1485 l 883 1363 l 493 1363 l 513 1485 z "},"Ȱ":{"ha":968,"x_min":126,"x_max":1003,"o":"m 481 -8 q 289 18 365 -8 q 169 116 213 44 q 126 317 126 188 q 147 542 126 407 q 238 842 178 735 q 395 992 297 949 q 649 1036 493 1036 q 838 1008 761 1036 q 958 906 914 981 q 1003 696 1003 831 q 981 474 1003 603 q 890 174 950 278 q 735 31 831 69 q 481 -8 639 -8 m 514 178 q 647 208 596 178 q 727 308 697 239 q 776 501 757 378 q 796 693 796 618 q 776 791 796 757 q 719 838 757 825 q 618 851 682 851 q 487 823 536 851 q 406 722 438 794 q 353 514 375 650 q 332 328 332 392 q 373 209 332 240 q 514 178 414 178 m 610 1117 q 592 1123 599 1117 q 585 1140 585 1129 l 585 1146 l 607 1281 q 640 1311 611 1311 l 735 1311 q 760 1288 760 1311 l 760 1281 l 738 1146 q 726 1124 736 1132 q 704 1117 717 1117 l 610 1117 m 517 1503 l 907 1503 l 888 1381 l 497 1381 l 517 1503 z "},"Ọ":{"ha":968,"x_min":126,"x_max":1003,"o":"m 481 -8 q 289 18 365 -8 q 169 116 213 44 q 126 317 126 188 q 147 542 126 407 q 238 842 178 735 q 395 992 297 949 q 649 1036 493 1036 q 838 1008 761 1036 q 958 906 914 981 q 1003 696 1003 831 q 981 474 1003 603 q 890 174 950 278 q 735 31 831 69 q 481 -8 639 -8 m 514 178 q 647 208 596 178 q 727 308 697 239 q 776 501 757 378 q 796 693 796 618 q 776 791 796 757 q 719 838 757 825 q 618 851 682 851 q 487 823 536 851 q 406 722 438 794 q 353 514 375 650 q 332 328 332 392 q 373 209 332 240 q 514 178 414 178 m 379 -314 q 361 -308 368 -314 q 354 -290 354 -301 l 354 -285 l 376 -150 q 410 -119 381 -119 l 504 -119 q 529 -143 529 -119 l 529 -150 l 507 -285 q 496 -306 506 -299 q 474 -314 486 -314 l 379 -314 z "},"Ò":{"ha":968,"x_min":126,"x_max":1003,"o":"m 481 -8 q 289 18 365 -8 q 169 116 213 44 q 126 317 126 188 q 147 542 126 407 q 238 842 178 735 q 395 992 297 949 q 649 1036 493 1036 q 838 1008 761 1036 q 958 906 914 981 q 1003 696 1003 831 q 981 474 1003 603 q 890 174 950 278 q 735 31 831 69 q 481 -8 639 -8 m 514 178 q 647 208 596 178 q 727 308 697 239 q 776 501 757 378 q 796 693 796 618 q 776 791 796 757 q 719 838 757 825 q 618 851 682 851 q 487 823 536 851 q 406 722 438 794 q 353 514 375 650 q 332 328 332 392 q 373 209 332 240 q 514 178 414 178 m 496 1293 l 661 1293 l 744 1099 l 624 1099 l 496 1293 z "},"Ỏ":{"ha":968,"x_min":126,"x_max":1003,"o":"m 481 -8 q 289 18 365 -8 q 169 116 213 44 q 126 317 126 188 q 147 542 126 407 q 238 842 178 735 q 395 992 297 949 q 649 1036 493 1036 q 838 1008 761 1036 q 958 906 914 981 q 1003 696 1003 831 q 981 474 1003 603 q 890 174 950 278 q 735 31 831 69 q 481 -8 639 -8 m 514 178 q 647 208 596 178 q 727 308 697 239 q 776 501 757 378 q 796 693 796 618 q 776 791 796 757 q 719 838 757 825 q 618 851 682 851 q 487 823 536 851 q 406 722 438 794 q 353 514 375 650 q 332 328 332 392 q 373 209 332 240 q 514 178 414 178 m 638 1151 q 703 1217 703 1169 q 661 1246 703 1246 q 615 1238 646 1246 l 628 1318 q 703 1329 664 1329 q 814 1233 814 1329 q 769 1133 814 1178 q 624 1061 724 1088 l 638 1151 z "},"Ơ":{"ha":972,"x_min":126,"x_max":1115,"o":"m 1115 1181 q 1053 1015 1099 1079 q 943 929 1008 951 q 1003 696 1003 850 q 981 474 1003 603 q 890 174 950 278 q 735 31 831 69 q 481 -8 639 -8 q 289 18 365 -8 q 169 116 213 44 q 126 317 126 188 q 147 542 126 407 q 238 842 178 735 q 395 992 297 949 q 649 1036 493 1036 q 764 1028 710 1036 l 849 1028 q 928 1063 897 1028 q 974 1181 960 1099 l 1115 1181 m 776 501 q 796 693 796 618 q 776 791 796 757 q 719 838 757 825 q 618 851 682 851 q 487 823 536 851 q 406 722 438 794 q 353 514 375 650 q 332 328 332 392 q 373 209 332 240 q 514 178 414 178 q 647 208 596 178 q 727 308 697 239 q 776 501 757 378 z "},"Ớ":{"ha":972,"x_min":126,"x_max":1115,"o":"m 1115 1181 q 1053 1015 1099 1079 q 943 929 1008 951 q 1003 696 1003 850 q 981 474 1003 603 q 890 174 950 278 q 735 31 831 69 q 481 -8 639 -8 q 289 18 365 -8 q 169 116 213 44 q 126 317 126 188 q 147 542 126 407 q 238 842 178 735 q 395 992 297 949 q 649 1036 493 1036 q 764 1028 710 1036 l 849 1028 q 928 1063 897 1028 q 974 1181 960 1099 l 1115 1181 m 776 501 q 796 693 796 618 q 776 791 796 757 q 719 838 757 825 q 618 851 682 851 q 487 823 536 851 q 406 722 438 794 q 353 514 375 650 q 332 328 332 392 q 373 209 332 240 q 514 178 414 178 q 647 208 596 178 q 727 308 697 239 q 776 501 757 378 m 689 1293 l 865 1293 l 685 1099 l 553 1099 l 689 1293 z "},"Ợ":{"ha":972,"x_min":126,"x_max":1115,"o":"m 1115 1181 q 1053 1015 1099 1079 q 943 929 1008 951 q 1003 696 1003 850 q 981 474 1003 603 q 890 174 950 278 q 735 31 831 69 q 481 -8 639 -8 q 289 18 365 -8 q 169 116 213 44 q 126 317 126 188 q 147 542 126 407 q 238 842 178 735 q 395 992 297 949 q 649 1036 493 1036 q 764 1028 710 1036 l 849 1028 q 928 1063 897 1028 q 974 1181 960 1099 l 1115 1181 m 776 501 q 796 693 796 618 q 776 791 796 757 q 719 838 757 825 q 618 851 682 851 q 487 823 536 851 q 406 722 438 794 q 353 514 375 650 q 332 328 332 392 q 373 209 332 240 q 514 178 414 178 q 647 208 596 178 q 727 308 697 239 q 776 501 757 378 m 371 -314 q 353 -308 360 -314 q 346 -290 346 -301 l 346 -285 l 368 -150 q 401 -119 372 -119 l 496 -119 q 521 -143 521 -119 l 521 -150 l 499 -285 q 488 -306 497 -299 q 465 -314 478 -314 l 371 -314 z "},"Ờ":{"ha":972,"x_min":126,"x_max":1115,"o":"m 1115 1181 q 1053 1015 1099 1079 q 943 929 1008 951 q 1003 696 1003 850 q 981 474 1003 603 q 890 174 950 278 q 735 31 831 69 q 481 -8 639 -8 q 289 18 365 -8 q 169 116 213 44 q 126 317 126 188 q 147 542 126 407 q 238 842 178 735 q 395 992 297 949 q 649 1036 493 1036 q 764 1028 710 1036 l 849 1028 q 928 1063 897 1028 q 974 1181 960 1099 l 1115 1181 m 776 501 q 796 693 796 618 q 776 791 796 757 q 719 838 757 825 q 618 851 682 851 q 487 823 536 851 q 406 722 438 794 q 353 514 375 650 q 332 328 332 392 q 373 209 332 240 q 514 178 414 178 q 647 208 596 178 q 727 308 697 239 q 776 501 757 378 m 465 1293 l 631 1293 l 714 1099 l 593 1099 l 465 1293 z "},"Ở":{"ha":972,"x_min":126,"x_max":1115,"o":"m 1115 1181 q 1053 1015 1099 1079 q 943 929 1008 951 q 1003 696 1003 850 q 981 474 1003 603 q 890 174 950 278 q 735 31 831 69 q 481 -8 639 -8 q 289 18 365 -8 q 169 116 213 44 q 126 317 126 188 q 147 542 126 407 q 238 842 178 735 q 395 992 297 949 q 649 1036 493 1036 q 764 1028 710 1036 l 849 1028 q 928 1063 897 1028 q 974 1181 960 1099 l 1115 1181 m 776 501 q 796 693 796 618 q 776 791 796 757 q 719 838 757 825 q 618 851 682 851 q 487 823 536 851 q 406 722 438 794 q 353 514 375 650 q 332 328 332 392 q 373 209 332 240 q 514 178 414 178 q 647 208 596 178 q 727 308 697 239 q 776 501 757 378 m 607 1151 q 672 1217 672 1169 q 631 1246 672 1246 q 585 1238 615 1246 l 597 1318 q 672 1329 633 1329 q 783 1233 783 1329 q 738 1133 783 1178 q 593 1061 693 1088 l 607 1151 z "},"Ỡ":{"ha":972,"x_min":126,"x_max":1115,"o":"m 1115 1181 q 1053 1015 1099 1079 q 943 929 1008 951 q 1003 696 1003 850 q 981 474 1003 603 q 890 174 950 278 q 735 31 831 69 q 481 -8 639 -8 q 289 18 365 -8 q 169 116 213 44 q 126 317 126 188 q 147 542 126 407 q 238 842 178 735 q 395 992 297 949 q 649 1036 493 1036 q 764 1028 710 1036 l 849 1028 q 928 1063 897 1028 q 974 1181 960 1099 l 1115 1181 m 776 501 q 796 693 796 618 q 776 791 796 757 q 719 838 757 825 q 618 851 682 851 q 487 823 536 851 q 406 722 438 794 q 353 514 375 650 q 332 328 332 392 q 373 209 332 240 q 514 178 414 178 q 647 208 596 178 q 727 308 697 239 q 776 501 757 378 m 378 1104 q 550 1276 417 1276 q 609 1267 582 1276 q 668 1243 636 1258 q 747 1219 721 1219 q 791 1236 774 1219 q 814 1283 808 1253 l 917 1283 q 853 1148 894 1190 q 746 1106 811 1106 q 691 1114 717 1106 q 625 1139 665 1122 q 583 1156 604 1149 q 547 1163 563 1163 q 505 1146 522 1163 q 481 1104 488 1129 l 378 1104 z "},"Ő":{"ha":968,"x_min":126,"x_max":1003,"o":"m 481 -8 q 289 18 365 -8 q 169 116 213 44 q 126 317 126 188 q 147 542 126 407 q 238 842 178 735 q 395 992 297 949 q 649 1036 493 1036 q 838 1008 761 1036 q 958 906 914 981 q 1003 696 1003 831 q 981 474 1003 603 q 890 174 950 278 q 735 31 831 69 q 481 -8 639 -8 m 514 178 q 647 208 596 178 q 727 308 697 239 q 776 501 757 378 q 796 693 796 618 q 776 791 796 757 q 719 838 757 825 q 618 851 682 851 q 487 823 536 851 q 406 722 438 794 q 353 514 375 650 q 332 328 332 392 q 373 209 332 240 q 514 178 414 178 m 599 1293 l 754 1293 l 583 1099 l 463 1099 l 599 1293 m 826 1293 l 982 1293 l 811 1099 l 690 1099 l 826 1293 z "},"Ȏ":{"ha":968,"x_min":126,"x_max":1003,"o":"m 481 -8 q 289 18 365 -8 q 169 116 213 44 q 126 317 126 188 q 147 542 126 407 q 238 842 178 735 q 395 992 297 949 q 649 1036 493 1036 q 838 1008 761 1036 q 958 906 914 981 q 1003 696 1003 831 q 981 474 1003 603 q 890 174 950 278 q 735 31 831 69 q 481 -8 639 -8 m 514 178 q 647 208 596 178 q 727 308 697 239 q 776 501 757 378 q 796 693 796 618 q 776 791 796 757 q 719 838 757 825 q 618 851 682 851 q 487 823 536 851 q 406 722 438 794 q 353 514 375 650 q 332 328 332 392 q 373 209 332 240 q 514 178 414 178 m 468 1092 q 544 1250 485 1199 q 697 1301 604 1301 q 818 1263 775 1301 q 861 1146 861 1224 q 856 1092 861 1131 l 761 1092 q 764 1122 764 1114 q 741 1187 764 1167 q 682 1207 718 1207 q 606 1180 638 1207 q 567 1092 575 1153 l 468 1092 z "},"Ō":{"ha":968,"x_min":126,"x_max":1003,"o":"m 481 -8 q 289 18 365 -8 q 169 116 213 44 q 126 317 126 188 q 147 542 126 407 q 238 842 178 735 q 395 992 297 949 q 649 1036 493 1036 q 838 1008 761 1036 q 958 906 914 981 q 1003 696 1003 831 q 981 474 1003 603 q 890 174 950 278 q 735 31 831 69 q 481 -8 639 -8 m 514 178 q 647 208 596 178 q 727 308 697 239 q 776 501 757 378 q 796 693 796 618 q 776 791 796 757 q 719 838 757 825 q 618 851 682 851 q 487 823 536 851 q 406 722 438 794 q 353 514 375 650 q 332 328 332 392 q 373 209 332 240 q 514 178 414 178 m 483 1243 l 874 1243 l 854 1121 l 464 1121 l 483 1243 z "},"Ṓ":{"ha":968,"x_min":126,"x_max":1003,"o":"m 481 -8 q 289 18 365 -8 q 169 116 213 44 q 126 317 126 188 q 147 542 126 407 q 238 842 178 735 q 395 992 297 949 q 649 1036 493 1036 q 838 1008 761 1036 q 958 906 914 981 q 1003 696 1003 831 q 981 474 1003 603 q 890 174 950 278 q 735 31 831 69 q 481 -8 639 -8 m 514 178 q 647 208 596 178 q 727 308 697 239 q 776 501 757 378 q 796 693 796 618 q 776 791 796 757 q 719 838 757 825 q 618 851 682 851 q 487 823 536 851 q 406 722 438 794 q 353 514 375 650 q 332 328 332 392 q 373 209 332 240 q 514 178 414 178 m 483 1243 l 874 1243 l 854 1121 l 464 1121 l 483 1243 m 747 1500 l 924 1500 l 743 1306 l 611 1306 l 747 1500 z "},"Ṑ":{"ha":968,"x_min":126,"x_max":1003,"o":"m 481 -8 q 289 18 365 -8 q 169 116 213 44 q 126 317 126 188 q 147 542 126 407 q 238 842 178 735 q 395 992 297 949 q 649 1036 493 1036 q 838 1008 761 1036 q 958 906 914 981 q 1003 696 1003 831 q 981 474 1003 603 q 890 174 950 278 q 735 31 831 69 q 481 -8 639 -8 m 514 178 q 647 208 596 178 q 727 308 697 239 q 776 501 757 378 q 796 693 796 618 q 776 791 796 757 q 719 838 757 825 q 618 851 682 851 q 487 823 536 851 q 406 722 438 794 q 353 514 375 650 q 332 328 332 392 q 373 209 332 240 q 514 178 414 178 m 483 1243 l 874 1243 l 854 1121 l 464 1121 l 483 1243 m 486 1500 l 651 1500 l 735 1306 l 614 1306 l 486 1500 z "},"Ǫ":{"ha":968,"x_min":126,"x_max":1003,"o":"m 649 1036 q 838 1008 761 1036 q 958 906 914 981 q 1003 696 1003 831 q 981 474 1003 603 q 910 211 956 310 q 794 64 864 113 q 618 0 724 15 l 619 0 q 556 -53 576 -24 q 535 -106 535 -82 q 554 -149 535 -133 q 606 -165 574 -165 l 618 -165 l 603 -261 q 557 -267 590 -267 q 460 -237 492 -267 q 428 -162 428 -207 q 454 -75 428 -115 q 531 -7 481 -35 q 481 -8 514 -8 q 289 18 365 -8 q 169 116 213 44 q 126 317 126 188 q 147 542 126 407 q 238 842 178 735 q 395 992 297 949 q 649 1036 493 1036 m 776 501 q 796 693 796 618 q 776 791 796 757 q 719 838 757 825 q 618 851 682 851 q 487 823 536 851 q 406 722 438 794 q 353 514 375 650 q 332 328 332 392 q 373 209 332 240 q 514 178 414 178 q 647 208 596 178 q 727 308 697 239 q 776 501 757 378 z "},"Ø":{"ha":972,"x_min":60,"x_max":1075,"o":"m 963 899 q 1003 696 1003 825 q 981 474 1003 603 q 890 174 950 278 q 735 31 831 69 q 481 -8 639 -8 q 331 6 394 -8 q 224 54 268 19 l 176 0 l 60 0 l 167 122 q 126 317 126 194 q 147 542 126 407 q 238 842 178 735 q 395 992 297 949 q 649 1036 493 1036 q 797 1021 733 1036 q 907 968 861 1006 l 958 1028 l 1075 1028 l 963 899 m 332 311 l 765 807 q 710 842 746 832 q 618 851 674 851 q 487 823 536 851 q 406 722 438 794 q 353 514 375 650 q 332 328 332 392 l 332 311 m 796 708 l 365 217 q 422 187 386 196 q 514 178 458 178 q 647 208 596 178 q 727 308 697 239 q 776 501 757 378 q 796 693 796 618 l 796 708 z "},"Ǿ":{"ha":972,"x_min":60,"x_max":1075,"o":"m 963 899 q 1003 696 1003 825 q 981 474 1003 603 q 890 174 950 278 q 735 31 831 69 q 481 -8 639 -8 q 331 6 394 -8 q 224 54 268 19 l 176 0 l 60 0 l 167 122 q 126 317 126 194 q 147 542 126 407 q 238 842 178 735 q 395 992 297 949 q 649 1036 493 1036 q 797 1021 733 1036 q 907 968 861 1006 l 958 1028 l 1075 1028 l 963 899 m 332 311 l 765 807 q 710 842 746 832 q 618 851 674 851 q 487 823 536 851 q 406 722 438 794 q 353 514 375 650 q 332 328 332 392 l 332 311 m 796 708 l 365 217 q 422 187 386 196 q 514 178 458 178 q 647 208 596 178 q 727 308 697 239 q 776 501 757 378 q 796 693 796 618 l 796 708 m 701 1293 l 878 1293 l 697 1099 l 565 1099 l 701 1293 z "},"Õ":{"ha":968,"x_min":126,"x_max":1003,"o":"m 481 -8 q 289 18 365 -8 q 169 116 213 44 q 126 317 126 188 q 147 542 126 407 q 238 842 178 735 q 395 992 297 949 q 649 1036 493 1036 q 838 1008 761 1036 q 958 906 914 981 q 1003 696 1003 831 q 981 474 1003 603 q 890 174 950 278 q 735 31 831 69 q 481 -8 639 -8 m 514 178 q 647 208 596 178 q 727 308 697 239 q 776 501 757 378 q 796 693 796 618 q 776 791 796 757 q 719 838 757 825 q 618 851 682 851 q 487 823 536 851 q 406 722 438 794 q 353 514 375 650 q 332 328 332 392 q 373 209 332 240 q 514 178 414 178 m 408 1104 q 581 1276 447 1276 q 640 1267 613 1276 q 699 1243 667 1258 q 778 1219 751 1219 q 822 1236 804 1219 q 844 1283 839 1253 l 947 1283 q 883 1148 925 1190 q 776 1106 842 1106 q 722 1114 747 1106 q 656 1139 696 1122 q 614 1156 635 1149 q 578 1163 593 1163 q 535 1146 553 1163 q 511 1104 518 1129 l 408 1104 z "},"Ṍ":{"ha":968,"x_min":126,"x_max":1003,"o":"m 481 -8 q 289 18 365 -8 q 169 116 213 44 q 126 317 126 188 q 147 542 126 407 q 238 842 178 735 q 395 992 297 949 q 649 1036 493 1036 q 838 1008 761 1036 q 958 906 914 981 q 1003 696 1003 831 q 981 474 1003 603 q 890 174 950 278 q 735 31 831 69 q 481 -8 639 -8 m 514 178 q 647 208 596 178 q 727 308 697 239 q 776 501 757 378 q 796 693 796 618 q 776 791 796 757 q 719 838 757 825 q 618 851 682 851 q 487 823 536 851 q 406 722 438 794 q 353 514 375 650 q 332 328 332 392 q 373 209 332 240 q 514 178 414 178 m 408 1104 q 581 1276 447 1276 q 640 1267 613 1276 q 699 1243 667 1258 q 778 1219 751 1219 q 822 1236 804 1219 q 844 1283 839 1253 l 947 1283 q 883 1148 925 1190 q 776 1106 842 1106 q 722 1114 747 1106 q 656 1139 696 1122 q 614 1156 635 1149 q 578 1163 593 1163 q 535 1146 553 1163 q 511 1104 518 1129 l 408 1104 m 751 1525 l 928 1525 l 747 1331 l 615 1331 l 751 1525 z "},"Ṏ":{"ha":968,"x_min":126,"x_max":1003,"o":"m 481 -8 q 289 18 365 -8 q 169 116 213 44 q 126 317 126 188 q 147 542 126 407 q 238 842 178 735 q 395 992 297 949 q 649 1036 493 1036 q 838 1008 761 1036 q 958 906 914 981 q 1003 696 1003 831 q 981 474 1003 603 q 890 174 950 278 q 735 31 831 69 q 481 -8 639 -8 m 514 178 q 647 208 596 178 q 727 308 697 239 q 776 501 757 378 q 796 693 796 618 q 776 791 796 757 q 719 838 757 825 q 618 851 682 851 q 487 823 536 851 q 406 722 438 794 q 353 514 375 650 q 332 328 332 392 q 373 209 332 240 q 514 178 414 178 m 401 1104 q 574 1276 440 1276 q 633 1267 606 1276 q 692 1243 660 1258 q 771 1219 744 1219 q 815 1236 797 1219 q 838 1283 832 1253 l 940 1283 q 876 1148 918 1190 q 769 1106 835 1106 q 715 1114 740 1106 q 649 1139 689 1122 q 607 1156 628 1149 q 571 1163 586 1163 q 528 1146 546 1163 q 504 1104 511 1129 l 401 1104 m 499 1342 q 481 1349 488 1342 q 475 1365 475 1356 l 497 1506 q 529 1536 501 1536 l 625 1536 q 649 1513 649 1536 l 626 1371 q 594 1342 622 1342 l 499 1342 m 776 1342 q 759 1348 765 1342 q 753 1365 753 1354 l 775 1506 q 807 1536 779 1536 l 903 1536 q 926 1513 926 1536 l 904 1371 q 872 1342 900 1342 l 776 1342 z "},"Ȭ":{"ha":968,"x_min":126,"x_max":1003,"o":"m 481 -8 q 289 18 365 -8 q 169 116 213 44 q 126 317 126 188 q 147 542 126 407 q 238 842 178 735 q 395 992 297 949 q 649 1036 493 1036 q 838 1008 761 1036 q 958 906 914 981 q 1003 696 1003 831 q 981 474 1003 603 q 890 174 950 278 q 735 31 831 69 q 481 -8 639 -8 m 514 178 q 647 208 596 178 q 727 308 697 239 q 776 501 757 378 q 796 693 796 618 q 776 791 796 757 q 719 838 757 825 q 618 851 682 851 q 487 823 536 851 q 406 722 438 794 q 353 514 375 650 q 332 328 332 392 q 373 209 332 240 q 514 178 414 178 m 508 1464 l 899 1464 l 879 1342 l 489 1342 l 508 1464 m 401 1104 q 574 1276 440 1276 q 633 1267 606 1276 q 692 1243 660 1258 q 771 1219 744 1219 q 815 1236 797 1219 q 838 1283 832 1253 l 940 1283 q 876 1148 918 1190 q 769 1106 835 1106 q 715 1114 740 1106 q 649 1139 689 1122 q 607 1156 628 1149 q 571 1163 586 1163 q 528 1146 546 1163 q 504 1104 511 1129 l 401 1104 z "},"Œ":{"ha":1436,"x_min":126,"x_max":1518,"o":"m 1128 838 q 1054 814 1079 838 q 1021 740 1029 790 l 1000 607 l 1385 594 l 1358 432 l 971 421 q 968 406 971 414 l 949 278 q 946 251 946 258 q 967 200 946 215 q 1031 185 988 185 l 1388 185 l 1361 13 q 949 -8 1100 -7 q 772 50 829 -8 q 649 5 719 18 q 481 -8 578 -8 q 289 18 365 -8 q 169 116 213 44 q 126 317 126 188 q 147 542 126 407 q 238 842 178 735 q 395 992 297 949 q 649 1036 493 1036 q 799 1021 735 1036 q 908 967 863 1006 q 1099 1028 978 1028 q 1518 1010 1283 1028 l 1490 838 l 1128 838 m 514 178 q 647 208 596 178 q 727 308 697 239 q 776 501 757 378 q 796 693 796 618 q 776 791 796 757 q 719 838 757 825 q 618 851 682 851 q 487 823 536 851 q 406 722 438 794 q 353 514 375 650 q 332 328 332 392 q 373 209 332 240 q 514 178 414 178 z "},"P":{"ha":847,"x_min":86,"x_max":928,"o":"m 249 1028 l 658 1028 q 856 965 783 1028 q 928 753 928 903 q 915 644 928 719 q 799 397 889 472 q 590 321 710 321 q 459 328 526 321 q 347 344 392 335 l 292 0 l 86 0 l 249 1028 m 563 506 q 660 547 621 506 q 711 667 699 589 q 718 733 718 708 q 694 817 718 792 q 619 843 669 843 l 425 843 l 372 506 l 563 506 z "},"Ṗ":{"ha":847,"x_min":86,"x_max":928,"o":"m 249 1028 l 658 1028 q 856 965 783 1028 q 928 753 928 903 q 915 644 928 719 q 799 397 889 472 q 590 321 710 321 q 459 328 526 321 q 347 344 392 335 l 292 0 l 86 0 l 249 1028 m 563 506 q 660 547 621 506 q 711 667 699 589 q 718 733 718 708 q 694 817 718 792 q 619 843 669 843 l 425 843 l 372 506 l 563 506 m 521 1117 q 503 1123 510 1117 q 496 1140 496 1129 l 496 1146 l 518 1281 q 551 1311 522 1311 l 646 1311 q 671 1288 671 1311 l 671 1281 l 649 1146 q 638 1124 647 1132 q 615 1117 628 1117 l 521 1117 z "},"Þ":{"ha":790,"x_min":86,"x_max":847,"o":"m 564 854 q 772 795 696 854 q 847 594 847 736 q 835 488 847 560 q 720 263 811 332 q 510 194 629 194 q 325 215 429 194 l 292 0 l 86 0 l 249 1028 l 454 1028 l 426 854 l 564 854 m 629 510 q 638 575 638 560 q 609 647 638 625 q 525 669 581 669 l 397 669 l 351 379 l 482 379 q 581 413 542 379 q 629 510 619 446 z "},"Q":{"ha":968,"x_min":126,"x_max":1003,"o":"m 481 -8 q 289 18 365 -8 q 169 116 213 44 q 126 317 126 188 q 147 542 126 407 q 238 842 178 735 q 395 992 297 949 q 649 1036 493 1036 q 838 1008 761 1036 q 958 906 914 981 q 1003 696 1003 831 q 981 474 1003 603 q 890 174 950 278 q 735 31 831 69 q 481 -8 639 -8 m 514 178 q 647 208 596 178 q 727 308 697 239 q 776 501 757 378 q 796 693 796 618 q 776 791 796 757 q 719 838 757 825 q 618 851 682 851 q 487 823 536 851 q 406 722 438 794 q 353 514 375 650 q 332 328 332 392 q 373 209 332 240 q 514 178 414 178 m 688 -272 q 506 -219 575 -272 q 436 -54 438 -165 l 578 -54 q 609 -111 583 -94 q 688 -128 635 -128 q 799 -112 738 -128 l 775 -264 q 688 -272 738 -272 z "},"R":{"ha":879,"x_min":86,"x_max":919,"o":"m 249 1028 l 642 1028 q 919 772 919 1028 q 911 683 919 733 q 836 498 892 554 q 708 414 781 442 l 833 0 l 624 0 l 519 382 q 353 383 401 382 l 292 0 l 86 0 l 249 1028 m 551 546 q 656 579 621 546 q 704 697 690 613 q 708 743 708 722 q 600 843 708 843 l 425 843 l 378 546 l 551 546 z "},"Ŕ":{"ha":879,"x_min":86,"x_max":919,"o":"m 249 1028 l 642 1028 q 919 772 919 1028 q 911 683 919 733 q 836 498 892 554 q 708 414 781 442 l 833 0 l 624 0 l 519 382 q 353 383 401 382 l 292 0 l 86 0 l 249 1028 m 551 546 q 656 579 621 546 q 704 697 690 613 q 708 743 708 722 q 600 843 708 843 l 425 843 l 378 546 l 551 546 m 638 1293 l 814 1293 l 633 1099 l 501 1099 l 638 1293 z "},"Ř":{"ha":879,"x_min":86,"x_max":919,"o":"m 249 1028 l 642 1028 q 919 772 919 1028 q 911 683 919 733 q 836 498 892 554 q 708 414 781 442 l 833 0 l 624 0 l 519 382 q 353 383 401 382 l 292 0 l 86 0 l 249 1028 m 551 546 q 656 579 621 546 q 704 697 690 613 q 708 743 708 722 q 600 843 708 843 l 425 843 l 378 546 l 551 546 m 415 1296 l 535 1296 l 610 1190 l 724 1296 l 844 1296 l 663 1099 l 522 1099 l 415 1296 z "},"Ŗ":{"ha":879,"x_min":86,"x_max":919,"o":"m 249 1028 l 642 1028 q 919 772 919 1028 q 911 683 919 733 q 836 498 892 554 q 708 414 781 442 l 833 0 l 624 0 l 519 382 q 353 383 401 382 l 292 0 l 86 0 l 249 1028 m 551 546 q 656 579 621 546 q 704 697 690 613 q 708 743 708 722 q 600 843 708 843 l 425 843 l 378 546 l 551 546 m 235 -215 l 274 -206 q 334 -176 317 -196 q 360 -101 351 -157 l 486 -101 q 427 -255 469 -210 q 292 -300 385 -300 l 221 -300 l 235 -215 z "},"Ȑ":{"ha":879,"x_min":86,"x_max":919,"o":"m 249 1028 l 642 1028 q 919 772 919 1028 q 911 683 919 733 q 836 498 892 554 q 708 414 781 442 l 833 0 l 624 0 l 519 382 q 353 383 401 382 l 292 0 l 86 0 l 249 1028 m 551 546 q 656 579 621 546 q 704 697 690 613 q 708 743 708 722 q 600 843 708 843 l 425 843 l 378 546 l 551 546 m 274 1293 l 440 1293 l 522 1099 l 401 1099 l 274 1293 m 522 1293 l 688 1293 l 771 1099 l 650 1099 l 522 1293 z "},"Ṛ":{"ha":879,"x_min":86,"x_max":919,"o":"m 249 1028 l 642 1028 q 919 772 919 1028 q 911 683 919 733 q 836 498 892 554 q 708 414 781 442 l 833 0 l 624 0 l 519 382 q 353 383 401 382 l 292 0 l 86 0 l 249 1028 m 551 546 q 656 579 621 546 q 704 697 690 613 q 708 743 708 722 q 600 843 708 843 l 425 843 l 378 546 l 551 546 m 343 -314 q 325 -308 332 -314 q 318 -290 318 -301 l 318 -285 l 340 -150 q 374 -119 344 -119 l 468 -119 q 493 -143 493 -119 l 493 -150 l 471 -285 q 460 -306 469 -299 q 438 -314 450 -314 l 343 -314 z "},"Ȓ":{"ha":879,"x_min":86,"x_max":919,"o":"m 249 1028 l 642 1028 q 919 772 919 1028 q 911 683 919 733 q 836 498 892 554 q 708 414 781 442 l 833 0 l 624 0 l 519 382 q 353 383 401 382 l 292 0 l 86 0 l 249 1028 m 551 546 q 656 579 621 546 q 704 697 690 613 q 708 743 708 722 q 600 843 708 843 l 425 843 l 378 546 l 551 546 m 386 1092 q 463 1250 403 1199 q 615 1301 522 1301 q 736 1263 693 1301 q 779 1146 779 1224 q 774 1092 779 1131 l 679 1092 q 682 1122 682 1114 q 659 1187 682 1167 q 600 1207 636 1207 q 524 1180 556 1207 q 485 1092 493 1153 l 386 1092 z "},"Ṟ":{"ha":879,"x_min":86,"x_max":919,"o":"m 249 1028 l 642 1028 q 919 772 919 1028 q 911 683 919 733 q 836 498 892 554 q 708 414 781 442 l 833 0 l 624 0 l 519 382 q 353 383 401 382 l 292 0 l 86 0 l 249 1028 m 551 546 q 656 579 621 546 q 704 697 690 613 q 708 743 708 722 q 600 843 708 843 l 425 843 l 378 546 l 551 546 m 211 -174 l 601 -174 l 582 -296 l 192 -296 l 211 -174 z "},"S":{"ha":796,"x_min":86,"x_max":869,"o":"m 425 -8 q 236 1 325 -8 q 86 25 147 11 l 111 188 q 421 176 244 176 q 555 198 513 176 q 607 278 597 219 l 613 314 q 615 342 615 333 q 588 397 615 381 q 499 414 560 414 l 417 414 q 236 473 301 414 q 171 631 171 532 q 175 689 171 658 l 189 772 q 303 975 211 914 q 556 1036 394 1036 q 713 1027 628 1036 q 869 1001 797 1018 l 843 839 q 531 850 714 850 q 426 828 463 850 q 381 749 390 806 l 375 713 q 372 682 372 690 q 394 626 372 643 q 465 608 417 608 l 553 608 q 747 549 679 608 q 815 392 815 490 q 811 336 815 368 l 797 240 q 690 51 776 110 q 425 -8 604 -8 z "},"Ś":{"ha":796,"x_min":86,"x_max":869,"o":"m 425 -8 q 236 1 325 -8 q 86 25 147 11 l 111 188 q 421 176 244 176 q 555 198 513 176 q 607 278 597 219 l 613 314 q 615 342 615 333 q 588 397 615 381 q 499 414 560 414 l 417 414 q 236 473 301 414 q 171 631 171 532 q 175 689 171 658 l 189 772 q 303 975 211 914 q 556 1036 394 1036 q 713 1027 628 1036 q 869 1001 797 1018 l 843 839 q 531 850 714 850 q 426 828 463 850 q 381 749 390 806 l 375 713 q 372 682 372 690 q 394 626 372 643 q 465 608 417 608 l 553 608 q 747 549 679 608 q 815 392 815 490 q 811 336 815 368 l 797 240 q 690 51 776 110 q 425 -8 604 -8 m 628 1293 l 804 1293 l 624 1099 l 492 1099 l 628 1293 z "},"Ṥ":{"ha":796,"x_min":86,"x_max":869,"o":"m 425 -8 q 236 1 325 -8 q 86 25 147 11 l 111 188 q 421 176 244 176 q 555 198 513 176 q 607 278 597 219 l 613 314 q 615 342 615 333 q 588 397 615 381 q 499 414 560 414 l 417 414 q 236 473 301 414 q 171 631 171 532 q 175 689 171 658 l 189 772 q 303 975 211 914 q 556 1036 394 1036 q 713 1027 628 1036 q 869 1001 797 1018 l 843 839 q 531 850 714 850 q 426 828 463 850 q 381 749 390 806 l 375 713 q 372 682 372 690 q 394 626 372 643 q 465 608 417 608 l 553 608 q 747 549 679 608 q 815 392 815 490 q 811 336 815 368 l 797 240 q 690 51 776 110 q 425 -8 604 -8 m 586 1293 l 763 1293 l 582 1099 l 450 1099 l 586 1293 m 597 1344 q 579 1351 586 1344 q 572 1368 572 1357 l 572 1374 l 594 1508 q 628 1539 599 1539 l 722 1539 q 747 1515 747 1539 l 747 1508 l 725 1374 q 714 1352 724 1360 q 692 1344 704 1344 l 597 1344 z "},"Š":{"ha":796,"x_min":86,"x_max":869,"o":"m 425 -8 q 236 1 325 -8 q 86 25 147 11 l 111 188 q 421 176 244 176 q 555 198 513 176 q 607 278 597 219 l 613 314 q 615 342 615 333 q 588 397 615 381 q 499 414 560 414 l 417 414 q 236 473 301 414 q 171 631 171 532 q 175 689 171 658 l 189 772 q 303 975 211 914 q 556 1036 394 1036 q 713 1027 628 1036 q 869 1001 797 1018 l 843 839 q 531 850 714 850 q 426 828 463 850 q 381 749 390 806 l 375 713 q 372 682 372 690 q 394 626 372 643 q 465 608 417 608 l 553 608 q 747 549 679 608 q 815 392 815 490 q 811 336 815 368 l 797 240 q 690 51 776 110 q 425 -8 604 -8 m 406 1296 l 525 1296 l 600 1190 l 714 1296 l 835 1296 l 653 1099 l 513 1099 l 406 1296 z "},"Ṧ":{"ha":796,"x_min":86,"x_max":869,"o":"m 425 -8 q 236 1 325 -8 q 86 25 147 11 l 111 188 q 421 176 244 176 q 555 198 513 176 q 607 278 597 219 l 613 314 q 615 342 615 333 q 588 397 615 381 q 499 414 560 414 l 417 414 q 236 473 301 414 q 171 631 171 532 q 175 689 171 658 l 189 772 q 303 975 211 914 q 556 1036 394 1036 q 713 1027 628 1036 q 869 1001 797 1018 l 843 839 q 531 850 714 850 q 426 828 463 850 q 381 749 390 806 l 375 713 q 372 682 372 690 q 394 626 372 643 q 465 608 417 608 l 553 608 q 747 549 679 608 q 815 392 815 490 q 811 336 815 368 l 797 240 q 690 51 776 110 q 425 -8 604 -8 m 406 1296 l 525 1296 l 600 1190 l 714 1296 l 835 1296 l 653 1099 l 513 1099 l 406 1296 m 569 1349 q 551 1355 558 1349 q 544 1372 544 1361 l 544 1378 l 567 1513 q 600 1543 571 1543 l 694 1543 q 719 1519 719 1543 l 719 1513 l 697 1378 q 686 1356 696 1364 q 664 1349 676 1349 l 569 1349 z "},"Ş":{"ha":796,"x_min":86,"x_max":869,"o":"m 375 713 q 372 682 372 690 q 394 626 372 643 q 465 608 417 608 l 553 608 q 747 549 679 608 q 815 392 815 490 q 811 336 815 368 l 797 240 q 690 51 776 110 q 425 -8 604 -8 l 372 -75 q 451 -158 451 -85 q 409 -244 451 -208 q 285 -279 367 -279 l 218 -279 l 231 -194 l 257 -190 q 305 -169 289 -186 q 321 -135 321 -153 q 265 -93 321 -100 l 333 -6 q 86 25 201 0 l 111 188 q 421 176 244 176 q 555 198 513 176 q 607 278 597 219 l 613 314 q 615 342 615 333 q 588 397 615 381 q 499 414 560 414 l 417 414 q 236 473 301 414 q 171 631 171 532 q 175 689 171 658 l 189 772 q 303 975 211 914 q 556 1036 394 1036 q 713 1027 628 1036 q 869 1001 797 1018 l 843 839 q 531 850 714 850 q 426 828 463 850 q 381 749 390 806 l 375 713 z "},"Ŝ":{"ha":796,"x_min":86,"x_max":869,"o":"m 425 -8 q 236 1 325 -8 q 86 25 147 11 l 111 188 q 421 176 244 176 q 555 198 513 176 q 607 278 597 219 l 613 314 q 615 342 615 333 q 588 397 615 381 q 499 414 560 414 l 417 414 q 236 473 301 414 q 171 631 171 532 q 175 689 171 658 l 189 772 q 303 975 211 914 q 556 1036 394 1036 q 713 1027 628 1036 q 869 1001 797 1018 l 843 839 q 531 850 714 850 q 426 828 463 850 q 381 749 390 806 l 375 713 q 372 682 372 690 q 394 626 372 643 q 465 608 417 608 l 553 608 q 747 549 679 608 q 815 392 815 490 q 811 336 815 368 l 797 240 q 690 51 776 110 q 425 -8 604 -8 m 521 1296 l 661 1296 l 767 1099 l 647 1099 l 574 1204 l 458 1099 l 339 1099 l 521 1296 z "},"Ș":{"ha":796,"x_min":86,"x_max":869,"o":"m 425 -8 q 236 1 325 -8 q 86 25 147 11 l 111 188 q 421 176 244 176 q 555 198 513 176 q 607 278 597 219 l 613 314 q 615 342 615 333 q 588 397 615 381 q 499 414 560 414 l 417 414 q 236 473 301 414 q 171 631 171 532 q 175 689 171 658 l 189 772 q 303 975 211 914 q 556 1036 394 1036 q 713 1027 628 1036 q 869 1001 797 1018 l 843 839 q 531 850 714 850 q 426 828 463 850 q 381 749 390 806 l 375 713 q 372 682 372 690 q 394 626 372 643 q 465 608 417 608 l 553 608 q 747 549 679 608 q 815 392 815 490 q 811 336 815 368 l 797 240 q 690 51 776 110 q 425 -8 604 -8 m 218 -215 l 257 -206 q 317 -176 300 -196 q 343 -101 335 -157 l 469 -101 q 410 -255 453 -210 q 275 -300 368 -300 l 204 -300 l 218 -215 z "},"Ṡ":{"ha":796,"x_min":86,"x_max":869,"o":"m 425 -8 q 236 1 325 -8 q 86 25 147 11 l 111 188 q 421 176 244 176 q 555 198 513 176 q 607 278 597 219 l 613 314 q 615 342 615 333 q 588 397 615 381 q 499 414 560 414 l 417 414 q 236 473 301 414 q 171 631 171 532 q 175 689 171 658 l 189 772 q 303 975 211 914 q 556 1036 394 1036 q 713 1027 628 1036 q 869 1001 797 1018 l 843 839 q 531 850 714 850 q 426 828 463 850 q 381 749 390 806 l 375 713 q 372 682 372 690 q 394 626 372 643 q 465 608 417 608 l 553 608 q 747 549 679 608 q 815 392 815 490 q 811 336 815 368 l 797 240 q 690 51 776 110 q 425 -8 604 -8 m 518 1117 q 500 1123 507 1117 q 493 1140 493 1129 l 493 1146 l 515 1281 q 549 1311 519 1311 l 643 1311 q 668 1288 668 1311 l 668 1281 l 646 1146 q 635 1124 644 1132 q 613 1117 625 1117 l 518 1117 z "},"Ṣ":{"ha":796,"x_min":86,"x_max":869,"o":"m 425 -8 q 236 1 325 -8 q 86 25 147 11 l 111 188 q 421 176 244 176 q 555 198 513 176 q 607 278 597 219 l 613 314 q 615 342 615 333 q 588 397 615 381 q 499 414 560 414 l 417 414 q 236 473 301 414 q 171 631 171 532 q 175 689 171 658 l 189 772 q 303 975 211 914 q 556 1036 394 1036 q 713 1027 628 1036 q 869 1001 797 1018 l 843 839 q 531 850 714 850 q 426 828 463 850 q 381 749 390 806 l 375 713 q 372 682 372 690 q 394 626 372 643 q 465 608 417 608 l 553 608 q 747 549 679 608 q 815 392 815 490 q 811 336 815 368 l 797 240 q 690 51 776 110 q 425 -8 604 -8 m 288 -314 q 269 -308 276 -314 q 263 -290 263 -301 l 263 -285 l 285 -150 q 318 -119 289 -119 l 413 -119 q 438 -143 438 -119 l 438 -150 l 415 -285 q 404 -306 414 -299 q 382 -314 394 -314 l 288 -314 z "},"Ṩ":{"ha":796,"x_min":86,"x_max":869,"o":"m 425 -8 q 236 1 325 -8 q 86 25 147 11 l 111 188 q 421 176 244 176 q 555 198 513 176 q 607 278 597 219 l 613 314 q 615 342 615 333 q 588 397 615 381 q 499 414 560 414 l 417 414 q 236 473 301 414 q 171 631 171 532 q 175 689 171 658 l 189 772 q 303 975 211 914 q 556 1036 394 1036 q 713 1027 628 1036 q 869 1001 797 1018 l 843 839 q 531 850 714 850 q 426 828 463 850 q 381 749 390 806 l 375 713 q 372 682 372 690 q 394 626 372 643 q 465 608 417 608 l 553 608 q 747 549 679 608 q 815 392 815 490 q 811 336 815 368 l 797 240 q 690 51 776 110 q 425 -8 604 -8 m 288 -314 q 269 -308 276 -314 q 263 -290 263 -301 l 263 -285 l 285 -150 q 318 -119 289 -119 l 413 -119 q 438 -143 438 -119 l 438 -150 l 415 -285 q 404 -306 414 -299 q 382 -314 394 -314 l 288 -314 m 518 1117 q 500 1123 507 1117 q 493 1140 493 1129 l 493 1146 l 515 1281 q 549 1311 519 1311 l 643 1311 q 668 1288 668 1311 l 668 1281 l 646 1146 q 635 1124 644 1132 q 613 1117 625 1117 l 518 1117 z "},"ẞ":{"ha":1004,"x_min":89,"x_max":1022,"o":"m 893 731 l 746 572 l 747 572 q 932 524 864 572 q 1000 376 1000 475 q 983 257 1000 351 q 915 94 964 151 q 792 14 865 36 q 613 -8 718 -8 q 501 -1 564 -8 q 394 17 438 7 l 424 200 q 613 176 531 176 q 728 199 688 176 q 779 279 769 221 q 786 335 786 325 q 763 389 786 371 q 685 407 739 407 l 506 407 l 532 572 l 682 572 l 635 696 l 768 843 l 524 843 q 449 820 476 843 q 414 756 421 797 l 294 0 l 89 0 l 207 751 q 322 961 229 894 q 546 1028 414 1028 q 796 1023 674 1028 q 1022 1013 918 1018 l 1015 1004 l 1021 1007 l 893 731 z "},"Ə":{"ha":875,"x_min":121,"x_max":913,"o":"m 428 -8 q 200 67 279 -8 q 121 306 121 142 q 133 454 121 374 l 154 588 l 699 588 q 707 678 707 640 q 651 815 707 776 q 471 853 594 853 q 347 849 396 853 q 242 838 299 844 l 267 997 q 553 1038 390 1038 q 821 965 729 1038 q 913 706 913 892 q 894 514 913 633 q 797 194 863 310 q 640 35 731 79 q 428 -8 550 -8 m 454 176 q 588 231 535 176 q 669 422 640 285 l 338 422 q 328 322 328 368 q 356 213 328 249 q 454 176 385 176 z "},"T":{"ha":846,"x_min":165,"x_max":964,"o":"m 446 843 l 165 843 l 194 1028 l 964 1028 l 935 843 l 653 843 l 519 0 l 314 0 l 446 843 z "},"Ŧ":{"ha":835,"x_min":151,"x_max":964,"o":"m 653 843 l 613 585 l 849 585 l 833 481 l 596 481 l 519 0 l 314 0 l 389 481 l 151 481 l 168 585 l 406 585 l 446 843 l 165 843 l 194 1028 l 964 1028 l 935 843 l 653 843 z "},"Ť":{"ha":846,"x_min":165,"x_max":964,"o":"m 446 843 l 165 843 l 194 1028 l 964 1028 l 935 843 l 653 843 l 519 0 l 314 0 l 446 843 m 426 1296 l 546 1296 l 621 1190 l 735 1296 l 856 1296 l 674 1099 l 533 1099 l 426 1296 z "},"Ţ":{"ha":846,"x_min":165,"x_max":964,"o":"m 964 1028 l 935 843 l 653 843 l 519 0 l 453 0 l 393 -75 q 472 -158 472 -85 q 430 -244 472 -208 q 306 -279 388 -279 l 239 -279 l 251 -194 l 278 -190 q 326 -169 310 -186 q 342 -135 342 -153 q 286 -93 342 -100 l 360 0 l 314 0 l 446 843 l 165 843 l 194 1028 l 964 1028 z "},"Ț":{"ha":846,"x_min":165,"x_max":964,"o":"m 446 843 l 165 843 l 194 1028 l 964 1028 l 935 843 l 653 843 l 519 0 l 314 0 l 446 843 m 239 -215 l 278 -206 q 338 -176 321 -196 q 364 -101 356 -157 l 490 -101 q 431 -255 474 -210 q 296 -300 389 -300 l 225 -300 l 239 -215 z "},"Ṫ":{"ha":846,"x_min":165,"x_max":964,"o":"m 446 843 l 165 843 l 194 1028 l 964 1028 l 935 843 l 653 843 l 519 0 l 314 0 l 446 843 m 539 1117 q 521 1123 528 1117 q 514 1140 514 1129 l 514 1146 l 536 1281 q 569 1311 540 1311 l 664 1311 q 689 1288 689 1311 l 689 1281 l 667 1146 q 656 1124 665 1132 q 633 1117 646 1117 l 539 1117 z "},"Ṭ":{"ha":846,"x_min":165,"x_max":964,"o":"m 446 843 l 165 843 l 194 1028 l 964 1028 l 935 843 l 653 843 l 519 0 l 314 0 l 446 843 m 308 -314 q 290 -308 297 -314 q 283 -290 283 -301 l 283 -285 l 306 -150 q 339 -119 310 -119 l 433 -119 q 458 -143 458 -119 l 458 -150 l 436 -285 q 425 -306 435 -299 q 403 -314 415 -314 l 308 -314 z "},"Ṯ":{"ha":846,"x_min":165,"x_max":964,"o":"m 446 843 l 165 843 l 194 1028 l 964 1028 l 935 843 l 653 843 l 519 0 l 314 0 l 446 843 m 185 -174 l 575 -174 l 556 -296 l 165 -296 l 185 -174 z "},"U":{"ha":956,"x_min":143,"x_max":1033,"o":"m 479 -8 q 226 65 310 -8 q 143 301 143 139 q 161 475 143 374 l 249 1028 l 454 1028 l 363 444 q 349 318 349 350 q 386 210 349 244 q 507 176 424 176 q 617 198 575 176 q 689 277 660 219 q 735 444 718 335 l 828 1028 l 1033 1028 l 936 414 q 850 147 908 239 q 704 24 792 56 q 479 -8 617 -8 z "},"Ú":{"ha":956,"x_min":143,"x_max":1033,"o":"m 479 -8 q 226 65 310 -8 q 143 301 143 139 q 161 475 143 374 l 249 1028 l 454 1028 l 363 444 q 349 318 349 350 q 386 210 349 244 q 507 176 424 176 q 617 198 575 176 q 689 277 660 219 q 735 444 718 335 l 828 1028 l 1033 1028 l 936 414 q 850 147 908 239 q 704 24 792 56 q 479 -8 617 -8 m 703 1293 l 879 1293 l 699 1099 l 567 1099 l 703 1293 z "},"Ŭ":{"ha":956,"x_min":143,"x_max":1033,"o":"m 479 -8 q 226 65 310 -8 q 143 301 143 139 q 161 475 143 374 l 249 1028 l 454 1028 l 363 444 q 349 318 349 350 q 386 210 349 244 q 507 176 424 176 q 617 198 575 176 q 689 277 660 219 q 735 444 718 335 l 828 1028 l 1033 1028 l 936 414 q 850 147 908 239 q 704 24 792 56 q 479 -8 617 -8 m 635 1088 q 514 1126 557 1088 q 471 1243 471 1165 q 476 1297 471 1258 l 571 1297 q 568 1267 568 1275 q 591 1203 568 1224 q 649 1182 614 1182 q 765 1297 749 1182 l 864 1297 q 788 1139 847 1190 q 635 1088 728 1088 z "},"Û":{"ha":956,"x_min":143,"x_max":1033,"o":"m 479 -8 q 226 65 310 -8 q 143 301 143 139 q 161 475 143 374 l 249 1028 l 454 1028 l 363 444 q 349 318 349 350 q 386 210 349 244 q 507 176 424 176 q 617 198 575 176 q 689 277 660 219 q 735 444 718 335 l 828 1028 l 1033 1028 l 936 414 q 850 147 908 239 q 704 24 792 56 q 479 -8 617 -8 m 596 1296 l 736 1296 l 842 1099 l 722 1099 l 649 1204 l 533 1099 l 414 1099 l 596 1296 z "},"Ȕ":{"ha":956,"x_min":143,"x_max":1033,"o":"m 479 -8 q 226 65 310 -8 q 143 301 143 139 q 161 475 143 374 l 249 1028 l 454 1028 l 363 444 q 349 318 349 350 q 386 210 349 244 q 507 176 424 176 q 617 198 575 176 q 689 277 660 219 q 735 444 718 335 l 828 1028 l 1033 1028 l 936 414 q 850 147 908 239 q 704 24 792 56 q 479 -8 617 -8 m 339 1293 l 506 1293 l 588 1099 l 467 1099 l 339 1293 m 588 1293 l 753 1293 l 836 1099 l 715 1099 l 588 1293 z "},"Ü":{"ha":956,"x_min":143,"x_max":1033,"o":"m 479 -8 q 226 65 310 -8 q 143 301 143 139 q 161 475 143 374 l 249 1028 l 454 1028 l 363 444 q 349 318 349 350 q 386 210 349 244 q 507 176 424 176 q 617 198 575 176 q 689 277 660 219 q 735 444 718 335 l 828 1028 l 1033 1028 l 936 414 q 850 147 908 239 q 704 24 792 56 q 479 -8 617 -8 m 446 1107 q 428 1114 435 1107 q 422 1131 422 1121 l 444 1271 q 476 1301 449 1301 l 572 1301 q 596 1278 596 1301 l 574 1136 q 542 1107 569 1107 l 446 1107 m 724 1107 q 706 1113 713 1107 q 700 1131 700 1119 l 722 1271 q 754 1301 726 1301 l 850 1301 q 874 1278 874 1301 l 851 1136 q 819 1107 847 1107 l 724 1107 z "},"Ụ":{"ha":956,"x_min":143,"x_max":1033,"o":"m 479 -8 q 226 65 310 -8 q 143 301 143 139 q 161 475 143 374 l 249 1028 l 454 1028 l 363 444 q 349 318 349 350 q 386 210 349 244 q 507 176 424 176 q 617 198 575 176 q 689 277 660 219 q 735 444 718 335 l 828 1028 l 1033 1028 l 936 414 q 850 147 908 239 q 704 24 792 56 q 479 -8 617 -8 m 363 -314 q 344 -308 351 -314 q 338 -290 338 -301 l 338 -285 l 360 -150 q 393 -119 364 -119 l 488 -119 q 513 -143 513 -119 l 513 -150 l 490 -285 q 479 -306 489 -299 q 457 -314 469 -314 l 363 -314 z "},"Ù":{"ha":956,"x_min":143,"x_max":1033,"o":"m 479 -8 q 226 65 310 -8 q 143 301 143 139 q 161 475 143 374 l 249 1028 l 454 1028 l 363 444 q 349 318 349 350 q 386 210 349 244 q 507 176 424 176 q 617 198 575 176 q 689 277 660 219 q 735 444 718 335 l 828 1028 l 1033 1028 l 936 414 q 850 147 908 239 q 704 24 792 56 q 479 -8 617 -8 m 479 1293 l 644 1293 l 728 1099 l 607 1099 l 479 1293 z "},"Ủ":{"ha":956,"x_min":143,"x_max":1033,"o":"m 479 -8 q 226 65 310 -8 q 143 301 143 139 q 161 475 143 374 l 249 1028 l 454 1028 l 363 444 q 349 318 349 350 q 386 210 349 244 q 507 176 424 176 q 617 198 575 176 q 689 277 660 219 q 735 444 718 335 l 828 1028 l 1033 1028 l 936 414 q 850 147 908 239 q 704 24 792 56 q 479 -8 617 -8 m 621 1151 q 686 1217 686 1169 q 644 1246 686 1246 q 599 1238 629 1246 l 611 1318 q 686 1329 647 1329 q 797 1233 797 1329 q 752 1133 797 1178 q 607 1061 707 1088 l 621 1151 z "},"Ư":{"ha":951,"x_min":143,"x_max":1176,"o":"m 1176 1181 q 1119 1022 1160 1085 q 1018 935 1079 960 l 936 414 q 850 147 908 239 q 704 24 792 56 q 479 -8 617 -8 q 226 65 310 -8 q 143 301 143 139 q 161 475 143 374 l 249 1028 l 454 1028 l 363 444 q 349 318 349 350 q 386 210 349 244 q 507 176 424 176 q 617 198 575 176 q 689 277 660 219 q 735 444 718 335 l 828 1028 l 910 1028 q 990 1063 958 1028 q 1035 1181 1021 1099 l 1176 1181 z "},"Ứ":{"ha":951,"x_min":143,"x_max":1176,"o":"m 1176 1181 q 1119 1022 1160 1085 q 1018 935 1079 960 l 936 414 q 850 147 908 239 q 704 24 792 56 q 479 -8 617 -8 q 226 65 310 -8 q 143 301 143 139 q 161 475 143 374 l 249 1028 l 454 1028 l 363 444 q 349 318 349 350 q 386 210 349 244 q 507 176 424 176 q 617 198 575 176 q 689 277 660 219 q 735 444 718 335 l 828 1028 l 910 1028 q 990 1063 958 1028 q 1035 1181 1021 1099 l 1176 1181 m 688 1293 l 864 1293 l 683 1099 l 551 1099 l 688 1293 z "},"Ự":{"ha":951,"x_min":143,"x_max":1176,"o":"m 1176 1181 q 1119 1022 1160 1085 q 1018 935 1079 960 l 936 414 q 850 147 908 239 q 704 24 792 56 q 479 -8 617 -8 q 226 65 310 -8 q 143 301 143 139 q 161 475 143 374 l 249 1028 l 454 1028 l 363 444 q 349 318 349 350 q 386 210 349 244 q 507 176 424 176 q 617 198 575 176 q 689 277 660 219 q 735 444 718 335 l 828 1028 l 910 1028 q 990 1063 958 1028 q 1035 1181 1021 1099 l 1176 1181 m 392 -314 q 374 -308 381 -314 q 367 -290 367 -301 l 367 -285 l 389 -150 q 422 -119 393 -119 l 517 -119 q 542 -143 542 -119 l 542 -150 l 519 -285 q 508 -306 518 -299 q 486 -314 499 -314 l 392 -314 z "},"Ừ":{"ha":951,"x_min":143,"x_max":1176,"o":"m 1176 1181 q 1119 1022 1160 1085 q 1018 935 1079 960 l 936 414 q 850 147 908 239 q 704 24 792 56 q 479 -8 617 -8 q 226 65 310 -8 q 143 301 143 139 q 161 475 143 374 l 249 1028 l 454 1028 l 363 444 q 349 318 349 350 q 386 210 349 244 q 507 176 424 176 q 617 198 575 176 q 689 277 660 219 q 735 444 718 335 l 828 1028 l 910 1028 q 990 1063 958 1028 q 1035 1181 1021 1099 l 1176 1181 m 464 1293 l 629 1293 l 713 1099 l 592 1099 l 464 1293 z "},"Ử":{"ha":951,"x_min":143,"x_max":1176,"o":"m 1176 1181 q 1119 1022 1160 1085 q 1018 935 1079 960 l 936 414 q 850 147 908 239 q 704 24 792 56 q 479 -8 617 -8 q 226 65 310 -8 q 143 301 143 139 q 161 475 143 374 l 249 1028 l 454 1028 l 363 444 q 349 318 349 350 q 386 210 349 244 q 507 176 424 176 q 617 198 575 176 q 689 277 660 219 q 735 444 718 335 l 828 1028 l 910 1028 q 990 1063 958 1028 q 1035 1181 1021 1099 l 1176 1181 m 606 1151 q 671 1217 671 1169 q 629 1246 671 1246 q 583 1238 614 1246 l 596 1318 q 671 1329 632 1329 q 782 1233 782 1329 q 737 1133 782 1178 q 592 1061 692 1088 l 606 1151 z "},"Ữ":{"ha":951,"x_min":143,"x_max":1176,"o":"m 1176 1181 q 1119 1022 1160 1085 q 1018 935 1079 960 l 936 414 q 850 147 908 239 q 704 24 792 56 q 479 -8 617 -8 q 226 65 310 -8 q 143 301 143 139 q 161 475 143 374 l 249 1028 l 454 1028 l 363 444 q 349 318 349 350 q 386 210 349 244 q 507 176 424 176 q 617 198 575 176 q 689 277 660 219 q 735 444 718 335 l 828 1028 l 910 1028 q 990 1063 958 1028 q 1035 1181 1021 1099 l 1176 1181 m 376 1104 q 549 1276 415 1276 q 608 1267 581 1276 q 667 1243 635 1258 q 746 1219 719 1219 q 790 1236 772 1219 q 813 1283 807 1253 l 915 1283 q 851 1148 893 1190 q 744 1106 810 1106 q 690 1114 715 1106 q 624 1139 664 1122 q 582 1156 603 1149 q 546 1163 561 1163 q 503 1146 521 1163 q 479 1104 486 1129 l 376 1104 z "},"Ű":{"ha":956,"x_min":143,"x_max":1033,"o":"m 479 -8 q 226 65 310 -8 q 143 301 143 139 q 161 475 143 374 l 249 1028 l 454 1028 l 363 444 q 349 318 349 350 q 386 210 349 244 q 507 176 424 176 q 617 198 575 176 q 689 277 660 219 q 735 444 718 335 l 828 1028 l 1033 1028 l 936 414 q 850 147 908 239 q 704 24 792 56 q 479 -8 617 -8 m 582 1293 l 738 1293 l 567 1099 l 446 1099 l 582 1293 m 810 1293 l 965 1293 l 794 1099 l 674 1099 l 810 1293 z "},"Ȗ":{"ha":956,"x_min":143,"x_max":1033,"o":"m 479 -8 q 226 65 310 -8 q 143 301 143 139 q 161 475 143 374 l 249 1028 l 454 1028 l 363 444 q 349 318 349 350 q 386 210 349 244 q 507 176 424 176 q 617 198 575 176 q 689 277 660 219 q 735 444 718 335 l 828 1028 l 1033 1028 l 936 414 q 850 147 908 239 q 704 24 792 56 q 479 -8 617 -8 m 451 1092 q 528 1250 468 1199 q 681 1301 588 1301 q 801 1263 758 1301 q 844 1146 844 1224 q 839 1092 844 1131 l 744 1092 q 747 1122 747 1114 q 724 1187 747 1167 q 665 1207 701 1207 q 590 1180 621 1207 q 550 1092 558 1153 l 451 1092 z "},"Ū":{"ha":956,"x_min":143,"x_max":1033,"o":"m 479 -8 q 226 65 310 -8 q 143 301 143 139 q 161 475 143 374 l 249 1028 l 454 1028 l 363 444 q 349 318 349 350 q 386 210 349 244 q 507 176 424 176 q 617 198 575 176 q 689 277 660 219 q 735 444 718 335 l 828 1028 l 1033 1028 l 936 414 q 850 147 908 239 q 704 24 792 56 q 479 -8 617 -8 m 467 1243 l 857 1243 l 838 1121 l 447 1121 l 467 1243 z "},"Ṻ":{"ha":956,"x_min":143,"x_max":1033,"o":"m 479 -8 q 226 65 310 -8 q 143 301 143 139 q 161 475 143 374 l 249 1028 l 454 1028 l 363 444 q 349 318 349 350 q 386 210 349 244 q 507 176 424 176 q 617 198 575 176 q 689 277 660 219 q 735 444 718 335 l 828 1028 l 1033 1028 l 936 414 q 850 147 908 239 q 704 24 792 56 q 479 -8 617 -8 m 467 1243 l 857 1243 l 838 1121 l 447 1121 l 467 1243 m 483 1318 q 466 1325 472 1318 q 460 1342 460 1332 l 482 1482 q 514 1513 486 1513 l 610 1513 q 633 1489 633 1513 l 611 1347 q 579 1318 607 1318 l 483 1318 m 761 1318 q 744 1324 750 1318 q 738 1342 738 1331 l 760 1482 q 792 1513 764 1513 l 888 1513 q 911 1489 911 1513 l 889 1347 q 857 1318 885 1318 l 761 1318 z "},"Ų":{"ha":956,"x_min":143,"x_max":1033,"o":"m 1033 1028 l 936 414 q 871 184 914 271 q 765 55 828 97 q 611 0 701 13 q 547 -53 568 -24 q 526 -106 526 -82 q 546 -149 526 -133 q 597 -165 565 -165 l 610 -165 l 594 -261 q 549 -267 582 -267 q 451 -237 483 -267 q 419 -162 419 -207 q 446 -76 419 -115 q 521 -8 472 -36 l 479 -8 q 226 65 310 -8 q 143 301 143 139 q 161 475 143 374 l 249 1028 l 454 1028 l 363 444 q 349 318 349 350 q 386 210 349 244 q 507 176 424 176 q 617 198 575 176 q 689 277 660 219 q 735 444 718 335 l 828 1028 l 1033 1028 z "},"Ů":{"ha":956,"x_min":143,"x_max":1033,"o":"m 479 -8 q 226 65 310 -8 q 143 301 143 139 q 161 475 143 374 l 249 1028 l 454 1028 l 363 444 q 349 318 349 350 q 386 210 349 244 q 507 176 424 176 q 617 198 575 176 q 689 277 660 219 q 735 444 718 335 l 828 1028 l 1033 1028 l 936 414 q 850 147 908 239 q 704 24 792 56 q 479 -8 617 -8 m 643 1063 q 527 1094 567 1063 q 488 1199 488 1125 q 540 1326 488 1275 q 683 1378 592 1378 q 799 1346 760 1378 q 838 1243 838 1314 q 787 1113 838 1164 q 643 1063 736 1063 m 653 1139 q 718 1167 696 1139 q 740 1239 740 1196 q 675 1303 740 1303 q 607 1273 631 1303 q 583 1201 583 1243 q 653 1139 583 1139 z "},"Ũ":{"ha":956,"x_min":143,"x_max":1033,"o":"m 479 -8 q 226 65 310 -8 q 143 301 143 139 q 161 475 143 374 l 249 1028 l 454 1028 l 363 444 q 349 318 349 350 q 386 210 349 244 q 507 176 424 176 q 617 198 575 176 q 689 277 660 219 q 735 444 718 335 l 828 1028 l 1033 1028 l 936 414 q 850 147 908 239 q 704 24 792 56 q 479 -8 617 -8 m 392 1104 q 564 1276 431 1276 q 623 1267 596 1276 q 682 1243 650 1258 q 761 1219 735 1219 q 805 1236 788 1219 q 828 1283 822 1253 l 931 1283 q 867 1148 908 1190 q 760 1106 825 1106 q 705 1114 731 1106 q 639 1139 679 1122 q 597 1156 618 1149 q 561 1163 576 1163 q 519 1146 536 1163 q 494 1104 501 1129 l 392 1104 z "},"Ṹ":{"ha":956,"x_min":143,"x_max":1033,"o":"m 479 -8 q 226 65 310 -8 q 143 301 143 139 q 161 475 143 374 l 249 1028 l 454 1028 l 363 444 q 349 318 349 350 q 386 210 349 244 q 507 176 424 176 q 617 198 575 176 q 689 277 660 219 q 735 444 718 335 l 828 1028 l 1033 1028 l 936 414 q 850 147 908 239 q 704 24 792 56 q 479 -8 617 -8 m 392 1104 q 564 1276 431 1276 q 623 1267 596 1276 q 682 1243 650 1258 q 761 1219 735 1219 q 805 1236 788 1219 q 828 1283 822 1253 l 931 1283 q 867 1148 908 1190 q 760 1106 825 1106 q 705 1114 731 1106 q 639 1139 679 1122 q 597 1156 618 1149 q 561 1163 576 1163 q 519 1146 536 1163 q 494 1104 501 1129 l 392 1104 m 744 1536 l 921 1536 l 740 1342 l 608 1342 l 744 1536 z "},"V":{"ha":968,"x_min":194,"x_max":1100,"o":"m 194 1028 l 407 1028 l 518 224 l 888 1028 l 1100 1028 l 611 0 l 353 0 l 194 1028 z "},"W":{"ha":1432,"x_min":196,"x_max":1524,"o":"m 196 1028 l 408 1028 l 471 306 l 765 1028 l 954 1028 l 1014 306 l 1310 1028 l 1524 1028 l 1097 0 l 888 0 l 811 724 l 501 0 l 292 0 l 196 1028 z "},"Ẃ":{"ha":1432,"x_min":196,"x_max":1524,"o":"m 196 1028 l 408 1028 l 471 306 l 765 1028 l 954 1028 l 1014 306 l 1310 1028 l 1524 1028 l 1097 0 l 888 0 l 811 724 l 501 0 l 292 0 l 196 1028 m 946 1293 l 1122 1293 l 942 1099 l 810 1099 l 946 1293 z "},"Ŵ":{"ha":1432,"x_min":196,"x_max":1524,"o":"m 196 1028 l 408 1028 l 471 306 l 765 1028 l 954 1028 l 1014 306 l 1310 1028 l 1524 1028 l 1097 0 l 888 0 l 811 724 l 501 0 l 292 0 l 196 1028 m 839 1296 l 979 1296 l 1085 1099 l 965 1099 l 892 1204 l 776 1099 l 657 1099 l 839 1296 z "},"Ẅ":{"ha":1432,"x_min":196,"x_max":1524,"o":"m 196 1028 l 408 1028 l 471 306 l 765 1028 l 954 1028 l 1014 306 l 1310 1028 l 1524 1028 l 1097 0 l 888 0 l 811 724 l 501 0 l 292 0 l 196 1028 m 689 1107 q 672 1114 678 1107 q 665 1131 665 1121 l 688 1271 q 719 1301 692 1301 l 815 1301 q 839 1278 839 1301 l 817 1136 q 785 1107 813 1107 l 689 1107 m 967 1107 q 949 1113 956 1107 q 943 1131 943 1119 l 965 1271 q 997 1301 969 1301 l 1093 1301 q 1117 1278 1117 1301 l 1094 1136 q 1063 1107 1090 1107 l 967 1107 z "},"Ẁ":{"ha":1432,"x_min":196,"x_max":1524,"o":"m 196 1028 l 408 1028 l 471 306 l 765 1028 l 954 1028 l 1014 306 l 1310 1028 l 1524 1028 l 1097 0 l 888 0 l 811 724 l 501 0 l 292 0 l 196 1028 m 722 1293 l 888 1293 l 971 1099 l 850 1099 l 722 1293 z "},"X":{"ha":910,"x_min":26,"x_max":1061,"o":"m 653 500 l 890 0 l 667 0 l 507 346 l 256 0 l 26 0 l 425 521 l 183 1028 l 408 1028 l 572 674 l 832 1028 l 1061 1028 l 653 500 z "},"Y":{"ha":890,"x_min":185,"x_max":1032,"o":"m 381 300 l 185 1028 l 408 1028 l 517 524 l 799 1028 l 1032 1028 l 586 300 l 539 0 l 332 0 l 381 300 z "},"Ý":{"ha":890,"x_min":185,"x_max":1032,"o":"m 381 300 l 185 1028 l 408 1028 l 517 524 l 799 1028 l 1032 1028 l 586 300 l 539 0 l 332 0 l 381 300 m 675 1293 l 851 1293 l 671 1099 l 539 1099 l 675 1293 z "},"Ŷ":{"ha":890,"x_min":185,"x_max":1032,"o":"m 381 300 l 185 1028 l 408 1028 l 517 524 l 799 1028 l 1032 1028 l 586 300 l 539 0 l 332 0 l 381 300 m 568 1296 l 708 1296 l 814 1099 l 694 1099 l 621 1204 l 506 1099 l 386 1099 l 568 1296 z "},"Ÿ":{"ha":890,"x_min":185,"x_max":1032,"o":"m 381 300 l 185 1028 l 408 1028 l 517 524 l 799 1028 l 1032 1028 l 586 300 l 539 0 l 332 0 l 381 300 m 418 1107 q 401 1114 407 1107 q 394 1131 394 1121 l 417 1271 q 449 1301 421 1301 l 544 1301 q 568 1278 568 1301 l 546 1136 q 514 1107 542 1107 l 418 1107 m 696 1107 q 678 1113 685 1107 q 672 1131 672 1119 l 694 1271 q 726 1301 699 1301 l 822 1301 q 846 1278 846 1301 l 824 1136 q 792 1107 819 1107 l 696 1107 z "},"Ẏ":{"ha":890,"x_min":185,"x_max":1032,"o":"m 381 300 l 185 1028 l 408 1028 l 517 524 l 799 1028 l 1032 1028 l 586 300 l 539 0 l 332 0 l 381 300 m 335 -314 q 317 -308 324 -314 q 310 -290 310 -301 l 310 -285 l 332 -150 q 365 -119 336 -119 l 460 -119 q 485 -143 485 -119 l 485 -150 l 463 -285 q 451 -306 461 -299 q 429 -314 442 -314 l 335 -314 z "},"Ỵ":{"ha":890,"x_min":185,"x_max":1032,"o":"m 381 300 l 185 1028 l 408 1028 l 517 524 l 799 1028 l 1032 1028 l 586 300 l 539 0 l 332 0 l 381 300 m 335 -314 q 317 -308 324 -314 q 310 -290 310 -301 l 310 -285 l 332 -150 q 365 -119 336 -119 l 460 -119 q 485 -143 485 -119 l 485 -150 l 463 -285 q 451 -306 461 -299 q 429 -314 442 -314 l 335 -314 z "},"Ỳ":{"ha":890,"x_min":185,"x_max":1032,"o":"m 381 300 l 185 1028 l 408 1028 l 517 524 l 799 1028 l 1032 1028 l 586 300 l 539 0 l 332 0 l 381 300 m 451 1293 l 617 1293 l 700 1099 l 579 1099 l 451 1293 z "},"Ỷ":{"ha":890,"x_min":185,"x_max":1032,"o":"m 381 300 l 185 1028 l 408 1028 l 517 524 l 799 1028 l 1032 1028 l 586 300 l 539 0 l 332 0 l 381 300 m 593 1151 q 658 1217 658 1169 q 617 1246 658 1246 q 571 1238 601 1246 l 583 1318 q 658 1329 619 1329 q 769 1233 769 1329 q 724 1133 769 1178 q 579 1061 679 1088 l 593 1151 z "},"Ȳ":{"ha":890,"x_min":185,"x_max":1032,"o":"m 381 300 l 185 1028 l 408 1028 l 517 524 l 799 1028 l 1032 1028 l 586 300 l 539 0 l 332 0 l 381 300 m 439 1243 l 829 1243 l 810 1121 l 419 1121 l 439 1243 z "},"Ỹ":{"ha":890,"x_min":185,"x_max":1032,"o":"m 381 300 l 185 1028 l 408 1028 l 517 524 l 799 1028 l 1032 1028 l 586 300 l 539 0 l 332 0 l 381 300 m 364 1104 q 536 1276 403 1276 q 595 1267 568 1276 q 654 1243 622 1258 q 733 1219 707 1219 q 777 1236 760 1219 q 800 1283 794 1253 l 903 1283 q 839 1148 881 1190 q 732 1106 797 1106 q 677 1114 703 1106 q 611 1139 651 1122 q 569 1156 590 1149 q 533 1163 549 1163 q 491 1146 508 1163 q 467 1104 474 1129 l 364 1104 z "},"Z":{"ha":789,"x_min":47,"x_max":890,"o":"m 75 175 l 625 843 l 181 843 l 210 1028 l 890 1028 l 863 853 l 314 185 l 771 185 l 742 0 l 47 0 l 75 175 z "},"Ź":{"ha":789,"x_min":47,"x_max":890,"o":"m 75 175 l 625 843 l 181 843 l 210 1028 l 890 1028 l 863 853 l 314 185 l 771 185 l 742 0 l 47 0 l 75 175 m 626 1293 l 803 1293 l 622 1099 l 490 1099 l 626 1293 z "},"Ž":{"ha":789,"x_min":47,"x_max":890,"o":"m 75 175 l 625 843 l 181 843 l 210 1028 l 890 1028 l 863 853 l 314 185 l 771 185 l 742 0 l 47 0 l 75 175 m 404 1296 l 524 1296 l 599 1190 l 713 1296 l 833 1296 l 651 1099 l 511 1099 l 404 1296 z "},"Ż":{"ha":789,"x_min":47,"x_max":890,"o":"m 75 175 l 625 843 l 181 843 l 210 1028 l 890 1028 l 863 853 l 314 185 l 771 185 l 742 0 l 47 0 l 75 175 m 517 1117 q 499 1123 506 1117 q 492 1140 492 1129 l 492 1146 l 514 1281 q 547 1311 518 1311 l 642 1311 q 667 1288 667 1311 l 667 1281 l 644 1146 q 633 1124 643 1132 q 611 1117 624 1117 l 517 1117 z "},"Ẓ":{"ha":789,"x_min":47,"x_max":890,"o":"m 75 175 l 625 843 l 181 843 l 210 1028 l 890 1028 l 863 853 l 314 185 l 771 185 l 742 0 l 47 0 l 75 175 m 286 -314 q 268 -308 275 -314 q 261 -290 261 -301 l 261 -285 l 283 -150 q 317 -119 288 -119 l 411 -119 q 436 -143 436 -119 l 436 -150 l 414 -285 q 403 -306 413 -299 q 381 -314 393 -314 l 286 -314 z "},"a":{"ha":793,"x_min":100,"x_max":825,"o":"m 303 -8 q 157 56 214 -8 q 100 249 100 121 q 117 404 100 311 q 240 669 146 583 q 511 754 333 754 q 689 730 604 754 q 825 667 774 706 l 719 0 l 538 0 l 526 75 q 427 18 492 44 q 303 -8 363 -8 m 403 157 q 476 171 443 157 q 546 208 510 185 l 603 567 q 562 582 590 575 q 500 589 533 589 q 376 540 418 589 q 318 389 335 490 q 307 286 307 319 q 331 192 307 226 q 403 157 354 157 z "},"á":{"ha":793,"x_min":100,"x_max":825,"o":"m 303 -8 q 157 56 214 -8 q 100 249 100 121 q 117 404 100 311 q 240 669 146 583 q 511 754 333 754 q 689 730 604 754 q 825 667 774 706 l 719 0 l 538 0 l 526 75 q 427 18 492 44 q 303 -8 363 -8 m 403 157 q 476 171 443 157 q 546 208 510 185 l 603 567 q 562 582 590 575 q 500 589 533 589 q 376 540 418 589 q 318 389 335 490 q 307 286 307 319 q 331 192 307 226 q 403 157 354 157 m 599 1071 l 775 1071 l 594 876 l 463 876 l 599 1071 z "},"ă":{"ha":793,"x_min":100,"x_max":825,"o":"m 303 -8 q 157 56 214 -8 q 100 249 100 121 q 117 404 100 311 q 240 669 146 583 q 511 754 333 754 q 689 730 604 754 q 825 667 774 706 l 719 0 l 538 0 l 526 75 q 427 18 492 44 q 303 -8 363 -8 m 403 157 q 476 171 443 157 q 546 208 510 185 l 603 567 q 562 582 590 575 q 500 589 533 589 q 376 540 418 589 q 318 389 335 490 q 307 286 307 319 q 331 192 307 226 q 403 157 354 157 m 531 865 q 410 904 453 865 q 367 1021 367 943 q 372 1075 367 1036 l 467 1075 q 464 1044 464 1053 q 487 981 464 1001 q 544 960 510 960 q 661 1075 644 960 l 760 1075 q 683 917 743 968 q 531 865 624 865 z "},"ắ":{"ha":793,"x_min":100,"x_max":825,"o":"m 303 -8 q 157 56 214 -8 q 100 249 100 121 q 117 404 100 311 q 240 669 146 583 q 511 754 333 754 q 689 730 604 754 q 825 667 774 706 l 719 0 l 538 0 l 526 75 q 427 18 492 44 q 303 -8 363 -8 m 403 157 q 476 171 443 157 q 546 208 510 185 l 603 567 q 562 582 590 575 q 500 589 533 589 q 376 540 418 589 q 318 389 335 490 q 307 286 307 319 q 331 192 307 226 q 403 157 354 157 m 599 1240 l 775 1240 l 594 1046 l 463 1046 l 599 1240 m 507 846 q 381 878 425 846 q 338 978 338 911 q 340 1014 338 1000 l 436 1014 q 435 996 435 1007 q 458 945 435 961 q 518 929 482 929 q 631 1014 617 929 l 728 1014 q 507 846 701 846 z "},"ặ":{"ha":793,"x_min":100,"x_max":825,"o":"m 303 -8 q 157 56 214 -8 q 100 249 100 121 q 117 404 100 311 q 240 669 146 583 q 511 754 333 754 q 689 730 604 754 q 825 667 774 706 l 719 0 l 538 0 l 526 75 q 427 18 492 44 q 303 -8 363 -8 m 403 157 q 476 171 443 157 q 546 208 510 185 l 603 567 q 562 582 590 575 q 500 589 533 589 q 376 540 418 589 q 318 389 335 490 q 307 286 307 319 q 331 192 307 226 q 403 157 354 157 m 531 865 q 410 904 453 865 q 367 1021 367 943 q 372 1075 367 1036 l 467 1075 q 464 1044 464 1053 q 487 981 464 1001 q 544 960 510 960 q 661 1075 644 960 l 760 1075 q 683 917 743 968 q 531 865 624 865 m 301 -314 q 283 -308 290 -314 q 276 -290 276 -301 l 276 -285 l 299 -150 q 332 -119 303 -119 l 426 -119 q 451 -143 451 -119 l 451 -150 l 429 -285 q 418 -306 428 -299 q 396 -314 408 -314 l 301 -314 z "},"ằ":{"ha":793,"x_min":100,"x_max":825,"o":"m 303 -8 q 157 56 214 -8 q 100 249 100 121 q 117 404 100 311 q 240 669 146 583 q 511 754 333 754 q 689 730 604 754 q 825 667 774 706 l 719 0 l 538 0 l 526 75 q 427 18 492 44 q 303 -8 363 -8 m 403 157 q 476 171 443 157 q 546 208 510 185 l 603 567 q 562 582 590 575 q 500 589 533 589 q 376 540 418 589 q 318 389 335 490 q 307 286 307 319 q 331 192 307 226 q 403 157 354 157 m 356 1240 l 521 1240 l 604 1046 l 483 1046 l 356 1240 m 507 846 q 381 878 425 846 q 338 978 338 911 q 340 1014 338 1000 l 436 1014 q 435 996 435 1007 q 458 945 435 961 q 518 929 482 929 q 631 1014 617 929 l 728 1014 q 507 846 701 846 z "},"ẳ":{"ha":793,"x_min":100,"x_max":825,"o":"m 303 -8 q 157 56 214 -8 q 100 249 100 121 q 117 404 100 311 q 240 669 146 583 q 511 754 333 754 q 689 730 604 754 q 825 667 774 706 l 719 0 l 538 0 l 526 75 q 427 18 492 44 q 303 -8 363 -8 m 403 157 q 476 171 443 157 q 546 208 510 185 l 603 567 q 562 582 590 575 q 500 589 533 589 q 376 540 418 589 q 318 389 335 490 q 307 286 307 319 q 331 192 307 226 q 403 157 354 157 m 507 1078 q 572 1143 572 1096 q 531 1172 572 1172 q 485 1164 515 1172 l 497 1244 q 572 1256 533 1256 q 683 1160 683 1256 q 638 1059 683 1104 q 493 988 593 1014 l 507 1078 m 507 846 q 381 878 425 846 q 338 978 338 911 q 340 1014 338 1000 l 436 1014 q 435 996 435 1007 q 458 945 435 961 q 518 929 482 929 q 631 1014 617 929 l 728 1014 q 507 846 701 846 z "},"ẵ":{"ha":793,"x_min":100,"x_max":825,"o":"m 303 -8 q 157 56 214 -8 q 100 249 100 121 q 117 404 100 311 q 240 669 146 583 q 511 754 333 754 q 689 730 604 754 q 825 667 774 706 l 719 0 l 538 0 l 526 75 q 427 18 492 44 q 303 -8 363 -8 m 403 157 q 476 171 443 157 q 546 208 510 185 l 603 567 q 562 582 590 575 q 500 589 533 589 q 376 540 418 589 q 318 389 335 490 q 307 286 307 319 q 331 192 307 226 q 403 157 354 157 m 315 1065 q 376 1175 335 1146 q 479 1204 417 1204 q 524 1199 503 1204 q 572 1182 546 1193 q 606 1170 589 1175 q 638 1165 622 1165 q 679 1177 663 1165 q 699 1211 696 1189 l 801 1211 q 744 1098 782 1129 q 639 1067 706 1067 q 590 1074 617 1067 q 542 1089 564 1081 q 479 1106 497 1106 q 439 1094 456 1106 q 418 1065 422 1083 l 315 1065 m 513 846 q 386 878 431 846 q 342 976 342 911 q 346 1014 342 993 l 442 1014 q 440 994 440 1007 q 464 945 440 961 q 524 929 488 929 q 636 1014 622 929 l 733 1014 q 513 846 706 846 z "},"â":{"ha":793,"x_min":100,"x_max":825,"o":"m 303 -8 q 157 56 214 -8 q 100 249 100 121 q 117 404 100 311 q 240 669 146 583 q 511 754 333 754 q 689 730 604 754 q 825 667 774 706 l 719 0 l 538 0 l 526 75 q 427 18 492 44 q 303 -8 363 -8 m 403 157 q 476 171 443 157 q 546 208 510 185 l 603 567 q 562 582 590 575 q 500 589 533 589 q 376 540 418 589 q 318 389 335 490 q 307 286 307 319 q 331 192 307 226 q 403 157 354 157 m 494 1074 l 635 1074 l 740 876 l 621 876 l 547 982 l 432 876 l 313 876 l 494 1074 z "},"ấ":{"ha":793,"x_min":100,"x_max":921,"o":"m 303 -8 q 157 56 214 -8 q 100 249 100 121 q 117 404 100 311 q 240 669 146 583 q 511 754 333 754 q 689 730 604 754 q 825 667 774 706 l 719 0 l 538 0 l 526 75 q 427 18 492 44 q 303 -8 363 -8 m 403 157 q 476 171 443 157 q 546 208 510 185 l 603 567 q 562 582 590 575 q 500 589 533 589 q 376 540 418 589 q 318 389 335 490 q 307 286 307 319 q 331 192 307 226 q 403 157 354 157 m 765 1168 l 921 1168 l 785 994 l 674 994 l 765 1168 m 481 1028 l 621 1028 l 735 876 l 615 876 l 533 936 l 426 876 l 307 876 l 481 1028 z "},"ậ":{"ha":793,"x_min":100,"x_max":825,"o":"m 303 -8 q 157 56 214 -8 q 100 249 100 121 q 117 404 100 311 q 240 669 146 583 q 511 754 333 754 q 689 730 604 754 q 825 667 774 706 l 719 0 l 538 0 l 526 75 q 427 18 492 44 q 303 -8 363 -8 m 403 157 q 476 171 443 157 q 546 208 510 185 l 603 567 q 562 582 590 575 q 500 589 533 589 q 376 540 418 589 q 318 389 335 490 q 307 286 307 319 q 331 192 307 226 q 403 157 354 157 m 494 1074 l 635 1074 l 740 876 l 621 876 l 547 982 l 432 876 l 313 876 l 494 1074 m 301 -314 q 283 -308 290 -314 q 276 -290 276 -301 l 276 -285 l 299 -150 q 332 -119 303 -119 l 426 -119 q 451 -143 451 -119 l 451 -150 l 429 -285 q 418 -306 428 -299 q 396 -314 408 -314 l 301 -314 z "},"ầ":{"ha":793,"x_min":100,"x_max":825,"o":"m 303 -8 q 157 56 214 -8 q 100 249 100 121 q 117 404 100 311 q 240 669 146 583 q 511 754 333 754 q 689 730 604 754 q 825 667 774 706 l 719 0 l 538 0 l 526 75 q 427 18 492 44 q 303 -8 363 -8 m 403 157 q 476 171 443 157 q 546 208 510 185 l 603 567 q 562 582 590 575 q 500 589 533 589 q 376 540 418 589 q 318 389 335 490 q 307 286 307 319 q 331 192 307 226 q 403 157 354 157 m 221 1168 l 378 1168 l 413 994 l 301 994 l 221 1168 m 478 1028 l 618 1028 l 732 876 l 613 876 l 531 936 l 424 876 l 303 876 l 478 1028 z "},"ẩ":{"ha":793,"x_min":100,"x_max":867,"o":"m 303 -8 q 157 56 214 -8 q 100 249 100 121 q 117 404 100 311 q 240 669 146 583 q 511 754 333 754 q 689 730 604 754 q 825 667 774 706 l 719 0 l 538 0 l 526 75 q 427 18 492 44 q 303 -8 363 -8 m 403 157 q 476 171 443 157 q 546 208 510 185 l 603 567 q 562 582 590 575 q 500 589 533 589 q 376 540 418 589 q 318 389 335 490 q 307 286 307 319 q 331 192 307 226 q 403 157 354 157 m 714 1033 q 754 1059 743 1046 q 765 1089 765 1072 q 735 1111 765 1111 q 689 1103 717 1111 l 701 1183 q 775 1194 738 1194 q 867 1114 867 1194 q 701 953 867 999 l 714 1033 m 483 1028 l 624 1028 l 738 876 l 618 876 l 535 936 l 429 876 l 308 876 l 483 1028 z "},"ẫ":{"ha":793,"x_min":100,"x_max":825,"o":"m 303 -8 q 157 56 214 -8 q 100 249 100 121 q 117 404 100 311 q 240 669 146 583 q 511 754 333 754 q 689 730 604 754 q 825 667 774 706 l 719 0 l 538 0 l 526 75 q 427 18 492 44 q 303 -8 363 -8 m 403 157 q 476 171 443 157 q 546 208 510 185 l 603 567 q 562 582 590 575 q 500 589 533 589 q 376 540 418 589 q 318 389 335 490 q 307 286 307 319 q 331 192 307 226 q 403 157 354 157 m 318 1085 q 378 1195 338 1165 q 481 1225 419 1225 q 575 1203 522 1225 q 608 1191 592 1196 q 639 1186 625 1186 q 681 1198 665 1186 q 701 1232 697 1210 l 804 1232 q 747 1119 785 1150 q 640 1088 708 1088 q 580 1098 610 1088 q 544 1110 550 1108 q 519 1119 540 1111 q 482 1126 497 1126 q 442 1115 458 1126 q 421 1085 425 1103 l 318 1085 m 483 1028 l 624 1028 l 736 876 l 617 876 l 535 936 l 428 876 l 307 876 l 483 1028 z "},"ȁ":{"ha":793,"x_min":100,"x_max":825,"o":"m 303 -8 q 157 56 214 -8 q 100 249 100 121 q 117 404 100 311 q 240 669 146 583 q 511 754 333 754 q 689 730 604 754 q 825 667 774 706 l 719 0 l 538 0 l 526 75 q 427 18 492 44 q 303 -8 363 -8 m 403 157 q 476 171 443 157 q 546 208 510 185 l 603 567 q 562 582 590 575 q 500 589 533 589 q 376 540 418 589 q 318 389 335 490 q 307 286 307 319 q 331 192 307 226 q 403 157 354 157 m 232 1071 l 399 1071 l 481 876 l 360 876 l 232 1071 m 481 1071 l 646 1071 l 729 876 l 608 876 l 481 1071 z "},"ä":{"ha":793,"x_min":100,"x_max":825,"o":"m 303 -8 q 157 56 214 -8 q 100 249 100 121 q 117 404 100 311 q 240 669 146 583 q 511 754 333 754 q 689 730 604 754 q 825 667 774 706 l 719 0 l 538 0 l 526 75 q 427 18 492 44 q 303 -8 363 -8 m 403 157 q 476 171 443 157 q 546 208 510 185 l 603 567 q 562 582 590 575 q 500 589 533 589 q 376 540 418 589 q 318 389 335 490 q 307 286 307 319 q 331 192 307 226 q 403 157 354 157 m 340 885 q 323 892 329 885 q 317 908 317 899 l 339 1049 q 371 1079 343 1079 l 467 1079 q 490 1056 490 1079 l 468 914 q 436 885 464 885 l 340 885 m 618 885 q 601 891 607 885 q 594 908 594 897 l 617 1049 q 649 1079 621 1079 l 744 1079 q 768 1056 768 1079 l 746 914 q 714 885 742 885 l 618 885 z "},"ạ":{"ha":793,"x_min":100,"x_max":825,"o":"m 303 -8 q 157 56 214 -8 q 100 249 100 121 q 117 404 100 311 q 240 669 146 583 q 511 754 333 754 q 689 730 604 754 q 825 667 774 706 l 719 0 l 538 0 l 526 75 q 427 18 492 44 q 303 -8 363 -8 m 403 157 q 476 171 443 157 q 546 208 510 185 l 603 567 q 562 582 590 575 q 500 589 533 589 q 376 540 418 589 q 318 389 335 490 q 307 286 307 319 q 331 192 307 226 q 403 157 354 157 m 301 -314 q 283 -308 290 -314 q 276 -290 276 -301 l 276 -285 l 299 -150 q 332 -119 303 -119 l 426 -119 q 451 -143 451 -119 l 451 -150 l 429 -285 q 418 -306 428 -299 q 396 -314 408 -314 l 301 -314 z "},"à":{"ha":793,"x_min":100,"x_max":825,"o":"m 303 -8 q 157 56 214 -8 q 100 249 100 121 q 117 404 100 311 q 240 669 146 583 q 511 754 333 754 q 689 730 604 754 q 825 667 774 706 l 719 0 l 538 0 l 526 75 q 427 18 492 44 q 303 -8 363 -8 m 403 157 q 476 171 443 157 q 546 208 510 185 l 603 567 q 562 582 590 575 q 500 589 533 589 q 376 540 418 589 q 318 389 335 490 q 307 286 307 319 q 331 192 307 226 q 403 157 354 157 m 365 1071 l 531 1071 l 614 876 l 493 876 l 365 1071 z "},"ả":{"ha":793,"x_min":100,"x_max":825,"o":"m 303 -8 q 157 56 214 -8 q 100 249 100 121 q 117 404 100 311 q 240 669 146 583 q 511 754 333 754 q 689 730 604 754 q 825 667 774 706 l 719 0 l 538 0 l 526 75 q 427 18 492 44 q 303 -8 363 -8 m 403 157 q 476 171 443 157 q 546 208 510 185 l 603 567 q 562 582 590 575 q 500 589 533 589 q 376 540 418 589 q 318 389 335 490 q 307 286 307 319 q 331 192 307 226 q 403 157 354 157 m 492 915 q 557 981 557 933 q 515 1010 557 1010 q 469 1001 500 1010 l 482 1082 q 557 1093 518 1093 q 668 997 668 1093 q 623 897 668 942 q 478 825 578 851 l 492 915 z "},"ȃ":{"ha":793,"x_min":100,"x_max":825,"o":"m 303 -8 q 157 56 214 -8 q 100 249 100 121 q 117 404 100 311 q 240 669 146 583 q 511 754 333 754 q 689 730 604 754 q 825 667 774 706 l 719 0 l 538 0 l 526 75 q 427 18 492 44 q 303 -8 363 -8 m 403 157 q 476 171 443 157 q 546 208 510 185 l 603 567 q 562 582 590 575 q 500 589 533 589 q 376 540 418 589 q 318 389 335 490 q 307 286 307 319 q 331 192 307 226 q 403 157 354 157 m 333 869 q 410 1028 350 976 q 563 1079 469 1079 q 683 1040 640 1079 q 726 924 726 1001 q 721 869 726 908 l 626 869 q 629 900 629 892 q 606 965 629 944 q 547 985 583 985 q 472 958 503 985 q 432 869 440 931 l 333 869 z "},"ā":{"ha":793,"x_min":100,"x_max":825,"o":"m 303 -8 q 157 56 214 -8 q 100 249 100 121 q 117 404 100 311 q 240 669 146 583 q 511 754 333 754 q 689 730 604 754 q 825 667 774 706 l 719 0 l 538 0 l 526 75 q 427 18 492 44 q 303 -8 363 -8 m 403 157 q 476 171 443 157 q 546 208 510 185 l 603 567 q 562 582 590 575 q 500 589 533 589 q 376 540 418 589 q 318 389 335 490 q 307 286 307 319 q 331 192 307 226 q 403 157 354 157 m 363 1021 l 753 1021 l 733 899 l 343 899 l 363 1021 z "},"ą":{"ha":793,"x_min":100,"x_max":825,"o":"m 721 0 q 657 -53 678 -24 q 636 -106 636 -82 q 656 -149 636 -133 q 707 -165 675 -165 l 719 -165 l 704 -261 q 658 -267 692 -267 q 561 -237 593 -267 q 529 -162 529 -207 q 560 -69 529 -111 q 646 0 590 -28 l 538 0 l 526 75 q 427 18 492 44 q 303 -8 363 -8 q 157 56 214 -8 q 100 249 100 121 q 117 404 100 311 q 240 669 146 583 q 511 754 333 754 q 689 730 604 754 q 825 667 774 706 l 719 0 l 721 0 m 603 567 q 562 582 590 575 q 500 589 533 589 q 376 540 418 589 q 318 389 335 490 q 307 286 307 319 q 331 192 307 226 q 403 157 354 157 q 476 171 443 157 q 546 208 510 185 l 603 567 z "},"å":{"ha":793,"x_min":100,"x_max":825,"o":"m 303 -8 q 157 56 214 -8 q 100 249 100 121 q 117 404 100 311 q 240 669 146 583 q 511 754 333 754 q 689 730 604 754 q 825 667 774 706 l 719 0 l 538 0 l 526 75 q 427 18 492 44 q 303 -8 363 -8 m 403 157 q 476 171 443 157 q 546 208 510 185 l 603 567 q 562 582 590 575 q 500 589 533 589 q 376 540 418 589 q 318 389 335 490 q 307 286 307 319 q 331 192 307 226 q 403 157 354 157 m 539 813 q 423 844 463 813 q 383 949 383 875 q 435 1076 383 1025 q 579 1128 488 1128 q 694 1096 656 1128 q 733 993 733 1064 q 683 863 733 914 q 539 813 632 813 m 549 889 q 614 917 592 889 q 636 989 636 946 q 571 1053 636 1053 q 503 1023 526 1053 q 479 951 479 993 q 549 889 479 889 z "},"ǻ":{"ha":793,"x_min":100,"x_max":835,"o":"m 303 -8 q 157 56 214 -8 q 100 249 100 121 q 117 404 100 311 q 240 669 146 583 q 511 754 333 754 q 689 730 604 754 q 825 667 774 706 l 719 0 l 538 0 l 526 75 q 427 18 492 44 q 303 -8 363 -8 m 403 157 q 476 171 443 157 q 546 208 510 185 l 603 567 q 562 582 590 575 q 500 589 533 589 q 376 540 418 589 q 318 389 335 490 q 307 286 307 319 q 331 192 307 226 q 403 157 354 157 m 539 813 q 423 844 463 813 q 383 949 383 875 q 435 1076 383 1025 q 579 1128 488 1128 q 694 1096 656 1128 q 733 993 733 1064 q 683 863 733 914 q 539 813 632 813 m 549 889 q 614 917 592 889 q 636 989 636 946 q 571 1053 636 1053 q 503 1023 526 1053 q 479 951 479 993 q 549 889 479 889 m 658 1349 l 835 1349 l 654 1154 l 522 1154 l 658 1349 z "},"ã":{"ha":793,"x_min":100,"x_max":825,"o":"m 303 -8 q 157 56 214 -8 q 100 249 100 121 q 117 404 100 311 q 240 669 146 583 q 511 754 333 754 q 689 730 604 754 q 825 667 774 706 l 719 0 l 538 0 l 526 75 q 427 18 492 44 q 303 -8 363 -8 m 403 157 q 476 171 443 157 q 546 208 510 185 l 603 567 q 562 582 590 575 q 500 589 533 589 q 376 540 418 589 q 318 389 335 490 q 307 286 307 319 q 331 192 307 226 q 403 157 354 157 m 274 882 q 446 1054 313 1054 q 505 1045 478 1054 q 564 1021 532 1036 q 643 997 617 997 q 687 1014 669 997 q 710 1061 704 1031 l 813 1061 q 749 926 790 968 q 642 883 707 883 q 587 892 613 883 q 521 917 561 900 q 479 933 500 926 q 443 940 458 940 q 401 924 418 940 q 376 882 383 907 l 274 882 z "},"æ":{"ha":1217,"x_min":104,"x_max":1244,"o":"m 307 -8 q 160 53 215 -8 q 104 246 104 115 q 211 631 104 508 q 499 754 318 754 q 624 742 561 754 q 736 701 688 729 q 835 741 767 726 q 946 756 904 756 q 1170 699 1096 756 q 1244 525 1244 643 q 1167 344 1244 408 q 932 281 1089 281 q 833 286 886 281 q 761 296 779 292 q 757 247 757 267 q 791 169 757 196 q 911 143 825 143 l 1172 143 l 1153 22 q 1001 0 1092 8 q 826 -8 911 -8 q 683 21 747 -8 q 597 99 619 50 q 453 19 524 47 q 307 -8 382 -8 m 885 396 q 1011 424 971 396 q 1051 503 1051 453 q 1026 574 1051 550 q 951 599 1000 599 q 830 552 867 599 q 775 404 793 506 q 817 399 783 401 q 885 396 850 396 m 397 160 q 488 183 442 160 q 558 235 535 207 q 557 282 557 249 q 572 433 557 357 q 618 565 588 508 q 572 581 601 574 q 518 589 543 589 q 358 506 408 589 q 308 285 308 422 q 397 160 308 160 z "},"ǽ":{"ha":1217,"x_min":104,"x_max":1244,"o":"m 307 -8 q 160 53 215 -8 q 104 246 104 115 q 211 631 104 508 q 499 754 318 754 q 624 742 561 754 q 736 701 688 729 q 835 741 767 726 q 946 756 904 756 q 1170 699 1096 756 q 1244 525 1244 643 q 1167 344 1244 408 q 932 281 1089 281 q 833 286 886 281 q 761 296 779 292 q 757 247 757 267 q 791 169 757 196 q 911 143 825 143 l 1172 143 l 1153 22 q 1001 0 1092 8 q 826 -8 911 -8 q 683 21 747 -8 q 597 99 619 50 q 453 19 524 47 q 307 -8 382 -8 m 885 396 q 1011 424 971 396 q 1051 503 1051 453 q 1026 574 1051 550 q 951 599 1000 599 q 830 552 867 599 q 775 404 793 506 q 817 399 783 401 q 885 396 850 396 m 397 160 q 488 183 442 160 q 558 235 535 207 q 557 282 557 249 q 572 433 557 357 q 618 565 588 508 q 572 581 601 574 q 518 589 543 589 q 358 506 408 589 q 308 285 308 422 q 397 160 308 160 m 815 1071 l 992 1071 l 811 876 l 679 876 l 815 1071 z "},"b":{"ha":807,"x_min":75,"x_max":824,"o":"m 517 -8 q 393 14 453 -8 q 293 71 333 36 l 257 0 l 75 0 l 243 1060 l 449 1060 l 392 699 q 494 739 439 724 q 589 754 549 754 q 761 686 699 754 q 824 493 824 618 q 806 321 824 447 q 706 78 781 164 q 517 -8 631 -8 m 453 157 q 555 208 517 157 q 610 375 593 258 q 617 461 617 431 q 521 589 617 589 q 444 578 485 589 q 368 551 403 568 l 314 201 q 375 168 343 179 q 453 157 407 157 z "},"ḃ":{"ha":807,"x_min":75,"x_max":824,"o":"m 517 -8 q 393 14 453 -8 q 293 71 333 36 l 257 0 l 75 0 l 243 1060 l 449 1060 l 392 699 q 494 739 439 724 q 589 754 549 754 q 761 686 699 754 q 824 493 824 618 q 806 321 824 447 q 706 78 781 164 q 517 -8 631 -8 m 453 157 q 555 208 517 157 q 610 375 593 258 q 617 461 617 431 q 521 589 617 589 q 444 578 485 589 q 368 551 403 568 l 314 201 q 375 168 343 179 q 453 157 407 157 m 322 1172 q 304 1178 311 1172 q 297 1196 297 1185 l 297 1201 l 319 1336 q 353 1367 324 1367 l 447 1367 q 472 1343 472 1367 l 472 1336 l 450 1201 q 439 1180 449 1188 q 417 1172 429 1172 l 322 1172 z "},"c":{"ha":660,"x_min":104,"x_max":719,"o":"m 376 -8 q 174 56 243 -8 q 104 275 104 121 q 118 407 104 321 q 464 754 171 754 q 719 715 567 754 l 700 596 l 511 596 q 382 542 426 596 q 318 372 338 489 q 310 293 310 314 q 342 181 310 215 q 443 147 375 147 l 642 147 l 624 31 q 376 -8 513 -8 z "},"ć":{"ha":660,"x_min":104,"x_max":743,"o":"m 376 -8 q 174 56 243 -8 q 104 275 104 121 q 118 407 104 321 q 464 754 171 754 q 719 715 567 754 l 700 596 l 511 596 q 382 542 426 596 q 318 372 338 489 q 310 293 310 314 q 342 181 310 215 q 443 147 375 147 l 642 147 l 624 31 q 376 -8 513 -8 m 567 1071 l 743 1071 l 563 876 l 431 876 l 567 1071 z "},"č":{"ha":660,"x_min":104,"x_max":760,"o":"m 376 -8 q 174 56 243 -8 q 104 275 104 121 q 118 407 104 321 q 464 754 171 754 q 719 715 567 754 l 700 596 l 511 596 q 382 542 426 596 q 318 372 338 489 q 310 293 310 314 q 342 181 310 215 q 443 147 375 147 l 642 147 l 624 31 q 376 -8 513 -8 m 331 1074 l 450 1074 l 525 968 l 639 1074 l 760 1074 l 578 876 l 438 876 l 331 1074 z "},"ç":{"ha":660,"x_min":104,"x_max":719,"o":"m 511 596 q 382 542 426 596 q 318 372 338 489 q 310 293 310 314 q 342 181 310 215 q 443 147 375 147 l 642 147 l 624 31 q 389 -8 514 -7 l 336 -75 q 415 -158 415 -85 q 373 -244 415 -208 q 249 -279 331 -279 l 182 -279 l 194 -194 l 221 -190 q 269 -169 253 -186 q 285 -135 285 -153 q 229 -93 285 -100 l 300 -3 q 154 78 204 13 q 104 275 104 143 q 118 407 104 321 q 464 754 171 754 q 719 715 567 754 l 700 596 l 511 596 z "},"ḉ":{"ha":660,"x_min":104,"x_max":743,"o":"m 563 876 l 431 876 l 567 1071 l 743 1071 l 563 876 m 118 407 q 464 754 171 754 q 719 715 567 754 l 700 596 l 511 596 q 382 542 426 596 q 318 372 338 489 q 310 293 310 314 q 342 181 310 215 q 443 147 375 147 l 642 147 l 624 31 q 389 -8 514 -7 l 336 -75 q 415 -158 415 -85 q 373 -244 415 -208 q 249 -279 331 -279 l 182 -279 l 194 -194 l 221 -190 q 269 -169 253 -186 q 285 -135 285 -153 q 229 -93 285 -100 l 300 -3 q 154 78 204 13 q 104 275 104 143 q 118 407 104 321 z "},"ĉ":{"ha":660,"x_min":104,"x_max":719,"o":"m 376 -8 q 174 56 243 -8 q 104 275 104 121 q 118 407 104 321 q 464 754 171 754 q 719 715 567 754 l 700 596 l 511 596 q 382 542 426 596 q 318 372 338 489 q 310 293 310 314 q 342 181 310 215 q 443 147 375 147 l 642 147 l 624 31 q 376 -8 513 -8 m 463 1074 l 603 1074 l 708 876 l 589 876 l 515 982 l 400 876 l 281 876 l 463 1074 z "},"ċ":{"ha":660,"x_min":104,"x_max":719,"o":"m 376 -8 q 174 56 243 -8 q 104 275 104 121 q 118 407 104 321 q 464 754 171 754 q 719 715 567 754 l 700 596 l 511 596 q 382 542 426 596 q 318 372 338 489 q 310 293 310 314 q 342 181 310 215 q 443 147 375 147 l 642 147 l 624 31 q 376 -8 513 -8 m 454 894 q 436 901 443 894 q 429 918 429 907 l 429 924 l 451 1058 q 485 1089 456 1089 l 579 1089 q 604 1065 604 1089 l 604 1058 l 582 924 q 571 902 581 910 q 549 894 561 894 l 454 894 z "},"d":{"ha":799,"x_min":104,"x_max":890,"o":"m 313 -8 q 158 59 211 -8 q 104 250 104 126 q 119 408 104 333 q 181 599 142 525 q 294 714 219 674 q 494 754 369 754 q 633 735 575 754 l 685 1060 l 890 1060 l 722 0 l 540 0 l 528 75 q 428 15 485 38 q 313 -8 371 -8 m 404 157 q 479 171 444 157 q 550 208 514 185 l 607 567 q 503 589 563 589 q 383 543 426 589 q 318 374 340 497 q 308 285 308 318 q 404 157 308 157 z "},"ð":{"ha":797,"x_min":104,"x_max":860,"o":"m 722 936 q 824 624 824 833 q 797 338 824 510 q 729 125 776 200 q 603 21 682 50 q 397 -8 524 -8 q 104 251 104 -8 q 113 372 104 314 q 179 597 136 519 q 290 704 222 675 q 465 733 357 733 q 572 717 522 733 q 656 668 621 700 q 628 791 651 742 q 558 871 604 840 l 336 782 l 318 847 l 469 907 q 290 925 397 925 l 313 1060 q 663 985 540 1060 l 842 1056 l 860 990 l 722 936 m 592 365 q 603 479 603 436 q 576 551 603 529 q 486 572 549 572 q 398 553 429 572 q 347 486 367 535 q 314 342 328 438 q 308 261 308 299 q 335 179 308 201 q 419 157 363 157 q 507 174 475 157 q 558 234 539 190 q 592 365 578 278 z "},"ď":{"ha":799,"x_min":104,"x_max":1150,"o":"m 313 -8 q 158 59 211 -8 q 104 250 104 126 q 119 408 104 333 q 181 599 142 525 q 294 714 219 674 q 494 754 369 754 q 633 735 575 754 l 685 1060 l 890 1060 l 722 0 l 540 0 l 528 75 q 428 15 485 38 q 313 -8 371 -8 m 404 157 q 479 171 444 157 q 550 208 514 185 l 607 567 q 503 589 563 589 q 383 543 426 589 q 318 374 340 497 q 308 285 308 318 q 404 157 308 157 m 949 997 l 963 1090 l 1150 1090 l 1135 997 l 1093 803 l 932 803 l 949 997 z "},"đ":{"ha":801,"x_min":104,"x_max":953,"o":"m 939 854 l 858 854 l 722 0 l 540 0 l 528 75 q 428 15 485 38 q 313 -8 371 -8 q 158 59 211 -8 q 104 250 104 126 q 119 408 104 333 q 181 599 142 525 q 294 714 219 674 q 494 754 369 754 q 633 735 575 754 l 653 854 l 489 854 l 503 936 l 665 936 l 685 1060 l 890 1060 l 871 936 l 953 936 l 939 854 m 607 567 q 503 589 563 589 q 383 543 426 589 q 318 374 340 497 q 308 285 308 318 q 404 157 308 157 q 479 171 444 157 q 550 208 514 185 l 607 567 z "},"ḋ":{"ha":799,"x_min":104,"x_max":914,"o":"m 313 -8 q 158 59 211 -8 q 104 250 104 126 q 119 408 104 333 q 181 599 142 525 q 294 714 219 674 q 494 754 369 754 q 633 735 575 754 l 685 1060 l 890 1060 l 722 0 l 540 0 l 528 75 q 428 15 485 38 q 313 -8 371 -8 m 404 157 q 479 171 444 157 q 550 208 514 185 l 607 567 q 503 589 563 589 q 383 543 426 589 q 318 374 340 497 q 308 285 308 318 q 404 157 308 157 m 764 1172 q 746 1178 753 1172 q 739 1196 739 1185 l 739 1201 l 761 1336 q 794 1367 765 1367 l 889 1367 q 914 1343 914 1367 l 914 1336 l 892 1201 q 881 1180 890 1188 q 858 1172 871 1172 l 764 1172 z "},"ḍ":{"ha":799,"x_min":104,"x_max":890,"o":"m 313 -8 q 158 59 211 -8 q 104 250 104 126 q 119 408 104 333 q 181 599 142 525 q 294 714 219 674 q 494 754 369 754 q 633 735 575 754 l 685 1060 l 890 1060 l 722 0 l 540 0 l 528 75 q 428 15 485 38 q 313 -8 371 -8 m 404 157 q 479 171 444 157 q 550 208 514 185 l 607 567 q 503 589 563 589 q 383 543 426 589 q 318 374 340 497 q 308 285 308 318 q 404 157 308 157 m 314 -314 q 296 -308 303 -314 q 289 -290 289 -301 l 289 -285 l 311 -150 q 344 -119 315 -119 l 439 -119 q 464 -143 464 -119 l 464 -150 l 442 -285 q 431 -306 440 -299 q 408 -314 421 -314 l 314 -314 z "},"ḏ":{"ha":799,"x_min":104,"x_max":890,"o":"m 313 -8 q 158 59 211 -8 q 104 250 104 126 q 119 408 104 333 q 181 599 142 525 q 294 714 219 674 q 494 754 369 754 q 633 735 575 754 l 685 1060 l 890 1060 l 722 0 l 540 0 l 528 75 q 428 15 485 38 q 313 -8 371 -8 m 404 157 q 479 171 444 157 q 550 208 514 185 l 607 567 q 503 589 563 589 q 383 543 426 589 q 318 374 340 497 q 308 285 308 318 q 404 157 308 157 m 196 -174 l 586 -174 l 567 -296 l 176 -296 l 196 -174 z "},"e":{"ha":761,"x_min":104,"x_max":792,"o":"m 400 -8 q 174 62 243 -8 q 104 269 104 132 q 118 413 104 324 q 242 674 146 592 q 508 756 339 756 q 792 533 792 756 q 706 335 792 389 q 469 281 619 281 q 310 296 371 281 q 307 246 307 263 q 348 168 307 193 q 481 143 389 143 l 721 143 l 701 22 q 400 -8 554 -8 m 417 396 q 557 423 514 396 q 600 511 600 450 q 494 599 600 599 q 378 551 418 599 q 324 404 339 503 q 417 396 376 396 z "},"é":{"ha":761,"x_min":104,"x_max":792,"o":"m 400 -8 q 174 62 243 -8 q 104 269 104 132 q 118 413 104 324 q 242 674 146 592 q 508 756 339 756 q 792 533 792 756 q 706 335 792 389 q 469 281 619 281 q 310 296 371 281 q 307 246 307 263 q 348 168 307 193 q 481 143 389 143 l 721 143 l 701 22 q 400 -8 554 -8 m 417 396 q 557 423 514 396 q 600 511 600 450 q 494 599 600 599 q 378 551 418 599 q 324 404 339 503 q 417 396 376 396 m 597 1071 l 774 1071 l 593 876 l 461 876 l 597 1071 z "},"ĕ":{"ha":761,"x_min":104,"x_max":792,"o":"m 400 -8 q 174 62 243 -8 q 104 269 104 132 q 118 413 104 324 q 242 674 146 592 q 508 756 339 756 q 792 533 792 756 q 706 335 792 389 q 469 281 619 281 q 310 296 371 281 q 307 246 307 263 q 348 168 307 193 q 481 143 389 143 l 721 143 l 701 22 q 400 -8 554 -8 m 417 396 q 557 423 514 396 q 600 511 600 450 q 494 599 600 599 q 378 551 418 599 q 324 404 339 503 q 417 396 376 396 m 529 865 q 408 904 451 865 q 365 1021 365 943 q 371 1075 365 1036 l 465 1075 q 463 1044 463 1053 q 485 981 463 1001 q 543 960 508 960 q 660 1075 643 960 l 758 1075 q 682 917 742 968 q 529 865 622 865 z "},"ě":{"ha":761,"x_min":104,"x_max":792,"o":"m 400 -8 q 174 62 243 -8 q 104 269 104 132 q 118 413 104 324 q 242 674 146 592 q 508 756 339 756 q 792 533 792 756 q 706 335 792 389 q 469 281 619 281 q 310 296 371 281 q 307 246 307 263 q 348 168 307 193 q 481 143 389 143 l 721 143 l 701 22 q 400 -8 554 -8 m 417 396 q 557 423 514 396 q 600 511 600 450 q 494 599 600 599 q 378 551 418 599 q 324 404 339 503 q 417 396 376 396 m 361 1074 l 481 1074 l 556 968 l 669 1074 l 790 1074 l 608 876 l 468 876 l 361 1074 z "},"ḝ":{"ha":761,"x_min":104,"x_max":792,"o":"m 529 865 q 408 904 451 865 q 365 1021 365 943 q 371 1075 365 1036 l 465 1075 q 463 1044 463 1053 q 485 981 463 1001 q 543 960 508 960 q 660 1075 643 960 l 758 1075 q 682 917 742 968 q 529 865 622 865 m 469 281 q 310 296 371 281 q 307 246 307 263 q 348 168 307 193 q 481 143 389 143 l 721 143 l 701 22 q 449 -7 569 -4 l 394 -75 q 474 -158 474 -85 q 431 -244 474 -208 q 307 -279 389 -279 l 240 -279 l 253 -194 l 279 -190 q 327 -169 311 -186 q 343 -135 343 -153 q 288 -93 343 -100 l 356 -7 q 163 72 222 3 q 104 269 104 142 q 118 413 104 324 q 242 674 146 592 q 508 756 339 756 q 792 533 792 756 q 706 335 792 389 q 469 281 619 281 m 494 599 q 378 551 418 599 q 324 404 339 503 q 417 396 376 396 q 557 423 514 396 q 600 511 600 450 q 494 599 600 599 z "},"ê":{"ha":761,"x_min":104,"x_max":792,"o":"m 400 -8 q 174 62 243 -8 q 104 269 104 132 q 118 413 104 324 q 242 674 146 592 q 508 756 339 756 q 792 533 792 756 q 706 335 792 389 q 469 281 619 281 q 310 296 371 281 q 307 246 307 263 q 348 168 307 193 q 481 143 389 143 l 721 143 l 701 22 q 400 -8 554 -8 m 417 396 q 557 423 514 396 q 600 511 600 450 q 494 599 600 599 q 378 551 418 599 q 324 404 339 503 q 417 396 376 396 m 493 1074 l 633 1074 l 739 876 l 619 876 l 546 982 l 431 876 l 311 876 l 493 1074 z "},"ế":{"ha":761,"x_min":104,"x_max":919,"o":"m 400 -8 q 174 62 243 -8 q 104 269 104 132 q 118 413 104 324 q 242 674 146 592 q 508 756 339 756 q 792 533 792 756 q 706 335 792 389 q 469 281 619 281 q 310 296 371 281 q 307 246 307 263 q 348 168 307 193 q 481 143 389 143 l 721 143 l 701 22 q 400 -8 554 -8 m 417 396 q 557 423 514 396 q 600 511 600 450 q 494 599 600 599 q 378 551 418 599 q 324 404 339 503 q 417 396 376 396 m 764 1168 l 919 1168 l 783 994 l 672 994 l 764 1168 m 479 1028 l 619 1028 l 733 876 l 614 876 l 532 936 l 425 876 l 306 876 l 479 1028 z "},"ệ":{"ha":761,"x_min":104,"x_max":792,"o":"m 400 -8 q 174 62 243 -8 q 104 269 104 132 q 118 413 104 324 q 242 674 146 592 q 508 756 339 756 q 792 533 792 756 q 706 335 792 389 q 469 281 619 281 q 310 296 371 281 q 307 246 307 263 q 348 168 307 193 q 481 143 389 143 l 721 143 l 701 22 q 400 -8 554 -8 m 417 396 q 557 423 514 396 q 600 511 600 450 q 494 599 600 599 q 378 551 418 599 q 324 404 339 503 q 417 396 376 396 m 493 1074 l 633 1074 l 739 876 l 619 876 l 546 982 l 431 876 l 311 876 l 493 1074 m 328 -314 q 310 -308 317 -314 q 303 -290 303 -301 l 303 -285 l 325 -150 q 358 -119 329 -119 l 453 -119 q 478 -143 478 -119 l 478 -150 l 456 -285 q 444 -306 454 -299 q 422 -314 435 -314 l 328 -314 z "},"ề":{"ha":761,"x_min":104,"x_max":792,"o":"m 400 -8 q 174 62 243 -8 q 104 269 104 132 q 118 413 104 324 q 242 674 146 592 q 508 756 339 756 q 792 533 792 756 q 706 335 792 389 q 469 281 619 281 q 310 296 371 281 q 307 246 307 263 q 348 168 307 193 q 481 143 389 143 l 721 143 l 701 22 q 400 -8 554 -8 m 417 396 q 557 423 514 396 q 600 511 600 450 q 494 599 600 599 q 378 551 418 599 q 324 404 339 503 q 417 396 376 396 m 219 1168 l 376 1168 l 411 994 l 300 994 l 219 1168 m 476 1028 l 617 1028 l 731 876 l 611 876 l 529 936 l 422 876 l 301 876 l 476 1028 z "},"ể":{"ha":761,"x_min":104,"x_max":864,"o":"m 400 -8 q 174 62 243 -8 q 104 269 104 132 q 118 413 104 324 q 242 674 146 592 q 508 756 339 756 q 792 533 792 756 q 706 335 792 389 q 469 281 619 281 q 310 296 371 281 q 307 246 307 263 q 348 168 307 193 q 481 143 389 143 l 721 143 l 701 22 q 400 -8 554 -8 m 417 396 q 557 423 514 396 q 600 511 600 450 q 494 599 600 599 q 378 551 418 599 q 324 404 339 503 q 417 396 376 396 m 711 1033 q 751 1059 740 1046 q 763 1089 763 1072 q 732 1111 763 1111 q 686 1103 714 1111 l 699 1183 q 772 1194 735 1194 q 864 1114 864 1194 q 699 953 864 999 l 711 1033 m 481 1028 l 621 1028 l 735 876 l 615 876 l 532 936 l 426 876 l 306 876 l 481 1028 z "},"ễ":{"ha":761,"x_min":104,"x_max":803,"o":"m 400 -8 q 174 62 243 -8 q 104 269 104 132 q 118 413 104 324 q 242 674 146 592 q 508 756 339 756 q 792 533 792 756 q 706 335 792 389 q 469 281 619 281 q 310 296 371 281 q 307 246 307 263 q 348 168 307 193 q 481 143 389 143 l 721 143 l 701 22 q 400 -8 554 -8 m 417 396 q 557 423 514 396 q 600 511 600 450 q 494 599 600 599 q 378 551 418 599 q 324 404 339 503 q 417 396 376 396 m 317 1085 q 377 1195 336 1165 q 479 1225 418 1225 q 574 1203 521 1225 q 607 1191 590 1196 q 638 1186 624 1186 q 680 1198 664 1186 q 700 1232 696 1210 l 803 1232 q 745 1119 783 1150 q 639 1088 707 1088 q 578 1098 608 1088 q 543 1110 549 1108 q 517 1119 539 1111 q 481 1126 496 1126 q 440 1115 457 1126 q 419 1085 424 1103 l 317 1085 m 482 1028 l 622 1028 l 735 876 l 615 876 l 533 936 l 426 876 l 306 876 l 482 1028 z "},"ȅ":{"ha":761,"x_min":104,"x_max":792,"o":"m 400 -8 q 174 62 243 -8 q 104 269 104 132 q 118 413 104 324 q 242 674 146 592 q 508 756 339 756 q 792 533 792 756 q 706 335 792 389 q 469 281 619 281 q 310 296 371 281 q 307 246 307 263 q 348 168 307 193 q 481 143 389 143 l 721 143 l 701 22 q 400 -8 554 -8 m 417 396 q 557 423 514 396 q 600 511 600 450 q 494 599 600 599 q 378 551 418 599 q 324 404 339 503 q 417 396 376 396 m 231 1071 l 397 1071 l 479 876 l 358 876 l 231 1071 m 479 1071 l 644 1071 l 728 876 l 607 876 l 479 1071 z "},"ë":{"ha":761,"x_min":104,"x_max":792,"o":"m 400 -8 q 174 62 243 -8 q 104 269 104 132 q 118 413 104 324 q 242 674 146 592 q 508 756 339 756 q 792 533 792 756 q 706 335 792 389 q 469 281 619 281 q 310 296 371 281 q 307 246 307 263 q 348 168 307 193 q 481 143 389 143 l 721 143 l 701 22 q 400 -8 554 -8 m 417 396 q 557 423 514 396 q 600 511 600 450 q 494 599 600 599 q 378 551 418 599 q 324 404 339 503 q 417 396 376 396 m 339 885 q 322 892 328 885 q 315 908 315 899 l 338 1049 q 369 1079 342 1079 l 465 1079 q 489 1056 489 1079 l 467 914 q 435 885 463 885 l 339 885 m 617 885 q 599 891 606 885 q 593 908 593 897 l 615 1049 q 647 1079 619 1079 l 743 1079 q 767 1056 767 1079 l 744 914 q 713 885 740 885 l 617 885 z "},"ė":{"ha":761,"x_min":104,"x_max":792,"o":"m 400 -8 q 174 62 243 -8 q 104 269 104 132 q 118 413 104 324 q 242 674 146 592 q 508 756 339 756 q 792 533 792 756 q 706 335 792 389 q 469 281 619 281 q 310 296 371 281 q 307 246 307 263 q 348 168 307 193 q 481 143 389 143 l 721 143 l 701 22 q 400 -8 554 -8 m 417 396 q 557 423 514 396 q 600 511 600 450 q 494 599 600 599 q 378 551 418 599 q 324 404 339 503 q 417 396 376 396 m 485 894 q 467 901 474 894 q 460 918 460 907 l 460 924 l 482 1058 q 515 1089 486 1089 l 610 1089 q 635 1065 635 1089 l 635 1058 l 613 924 q 601 902 611 910 q 579 894 592 894 l 485 894 z "},"ẹ":{"ha":761,"x_min":104,"x_max":792,"o":"m 400 -8 q 174 62 243 -8 q 104 269 104 132 q 118 413 104 324 q 242 674 146 592 q 508 756 339 756 q 792 533 792 756 q 706 335 792 389 q 469 281 619 281 q 310 296 371 281 q 307 246 307 263 q 348 168 307 193 q 481 143 389 143 l 721 143 l 701 22 q 400 -8 554 -8 m 417 396 q 557 423 514 396 q 600 511 600 450 q 494 599 600 599 q 378 551 418 599 q 324 404 339 503 q 417 396 376 396 m 328 -314 q 310 -308 317 -314 q 303 -290 303 -301 l 303 -285 l 325 -150 q 358 -119 329 -119 l 453 -119 q 478 -143 478 -119 l 478 -150 l 456 -285 q 444 -306 454 -299 q 422 -314 435 -314 l 328 -314 z "},"è":{"ha":761,"x_min":104,"x_max":792,"o":"m 400 -8 q 174 62 243 -8 q 104 269 104 132 q 118 413 104 324 q 242 674 146 592 q 508 756 339 756 q 792 533 792 756 q 706 335 792 389 q 469 281 619 281 q 310 296 371 281 q 307 246 307 263 q 348 168 307 193 q 481 143 389 143 l 721 143 l 701 22 q 400 -8 554 -8 m 417 396 q 557 423 514 396 q 600 511 600 450 q 494 599 600 599 q 378 551 418 599 q 324 404 339 503 q 417 396 376 396 m 364 1071 l 529 1071 l 613 876 l 492 876 l 364 1071 z "},"ẻ":{"ha":761,"x_min":104,"x_max":792,"o":"m 400 -8 q 174 62 243 -8 q 104 269 104 132 q 118 413 104 324 q 242 674 146 592 q 508 756 339 756 q 792 533 792 756 q 706 335 792 389 q 469 281 619 281 q 310 296 371 281 q 307 246 307 263 q 348 168 307 193 q 481 143 389 143 l 721 143 l 701 22 q 400 -8 554 -8 m 417 396 q 557 423 514 396 q 600 511 600 450 q 494 599 600 599 q 378 551 418 599 q 324 404 339 503 q 417 396 376 396 m 490 915 q 556 981 556 933 q 514 1010 556 1010 q 468 1001 499 1010 l 481 1082 q 556 1093 517 1093 q 667 997 667 1093 q 622 897 667 942 q 476 825 576 851 l 490 915 z "},"ȇ":{"ha":761,"x_min":104,"x_max":792,"o":"m 400 -8 q 174 62 243 -8 q 104 269 104 132 q 118 413 104 324 q 242 674 146 592 q 508 756 339 756 q 792 533 792 756 q 706 335 792 389 q 469 281 619 281 q 310 296 371 281 q 307 246 307 263 q 348 168 307 193 q 481 143 389 143 l 721 143 l 701 22 q 400 -8 554 -8 m 417 396 q 557 423 514 396 q 600 511 600 450 q 494 599 600 599 q 378 551 418 599 q 324 404 339 503 q 417 396 376 396 m 332 869 q 408 1028 349 976 q 561 1079 468 1079 q 682 1040 639 1079 q 725 924 725 1001 q 719 869 725 908 l 625 869 q 628 900 628 892 q 605 965 628 944 q 546 985 582 985 q 470 958 501 985 q 431 869 439 931 l 332 869 z "},"ē":{"ha":761,"x_min":104,"x_max":792,"o":"m 400 -8 q 174 62 243 -8 q 104 269 104 132 q 118 413 104 324 q 242 674 146 592 q 508 756 339 756 q 792 533 792 756 q 706 335 792 389 q 469 281 619 281 q 310 296 371 281 q 307 246 307 263 q 348 168 307 193 q 481 143 389 143 l 721 143 l 701 22 q 400 -8 554 -8 m 417 396 q 557 423 514 396 q 600 511 600 450 q 494 599 600 599 q 378 551 418 599 q 324 404 339 503 q 417 396 376 396 m 361 1021 l 751 1021 l 732 899 l 342 899 l 361 1021 z "},"ḗ":{"ha":761,"x_min":104,"x_max":801,"o":"m 400 -8 q 174 62 243 -8 q 104 269 104 132 q 118 413 104 324 q 242 674 146 592 q 508 756 339 756 q 792 533 792 756 q 706 335 792 389 q 469 281 619 281 q 310 296 371 281 q 307 246 307 263 q 348 168 307 193 q 481 143 389 143 l 721 143 l 701 22 q 400 -8 554 -8 m 417 396 q 557 423 514 396 q 600 511 600 450 q 494 599 600 599 q 378 551 418 599 q 324 404 339 503 q 417 396 376 396 m 361 1021 l 751 1021 l 732 899 l 342 899 l 361 1021 m 625 1278 l 801 1278 l 621 1083 l 489 1083 l 625 1278 z "},"ḕ":{"ha":761,"x_min":104,"x_max":792,"o":"m 400 -8 q 174 62 243 -8 q 104 269 104 132 q 118 413 104 324 q 242 674 146 592 q 508 756 339 756 q 792 533 792 756 q 706 335 792 389 q 469 281 619 281 q 310 296 371 281 q 307 246 307 263 q 348 168 307 193 q 481 143 389 143 l 721 143 l 701 22 q 400 -8 554 -8 m 417 396 q 557 423 514 396 q 600 511 600 450 q 494 599 600 599 q 378 551 418 599 q 324 404 339 503 q 417 396 376 396 m 361 1021 l 751 1021 l 732 899 l 342 899 l 361 1021 m 364 1278 l 529 1278 l 613 1083 l 492 1083 l 364 1278 z "},"ę":{"ha":761,"x_min":104,"x_max":792,"o":"m 469 281 q 310 296 371 281 q 307 246 307 263 q 348 168 307 193 q 481 143 389 143 l 721 143 l 701 22 q 638 -31 658 -1 q 617 -83 617 -60 q 636 -127 617 -111 q 688 -143 656 -143 l 700 -143 l 685 -239 q 639 -244 672 -244 q 542 -215 574 -244 q 510 -140 510 -185 q 596 4 510 -51 q 400 -8 490 -8 q 174 62 243 -8 q 104 269 104 132 q 118 413 104 324 q 242 674 146 592 q 508 756 339 756 q 792 533 792 756 q 706 335 792 389 q 469 281 619 281 m 494 599 q 378 551 418 599 q 324 404 339 503 q 417 396 376 396 q 557 423 514 396 q 600 511 600 450 q 494 599 600 599 z "},"ẽ":{"ha":761,"x_min":104,"x_max":811,"o":"m 400 -8 q 174 62 243 -8 q 104 269 104 132 q 118 413 104 324 q 242 674 146 592 q 508 756 339 756 q 792 533 792 756 q 706 335 792 389 q 469 281 619 281 q 310 296 371 281 q 307 246 307 263 q 348 168 307 193 q 481 143 389 143 l 721 143 l 701 22 q 400 -8 554 -8 m 417 396 q 557 423 514 396 q 600 511 600 450 q 494 599 600 599 q 378 551 418 599 q 324 404 339 503 q 417 396 376 396 m 272 882 q 444 1054 311 1054 q 503 1045 476 1054 q 563 1021 531 1036 q 642 997 615 997 q 685 1014 668 997 q 708 1061 703 1031 l 811 1061 q 747 926 789 968 q 640 883 706 883 q 585 892 611 883 q 519 917 560 900 q 478 933 499 926 q 442 940 457 940 q 399 924 417 940 q 375 882 382 907 l 272 882 z "},"ə":{"ha":763,"x_min":94,"x_max":782,"o":"m 486 757 q 713 687 643 757 q 782 479 782 617 q 768 336 782 425 q 644 75 740 157 q 378 -7 547 -7 q 94 215 94 -7 q 181 414 94 360 q 417 468 267 468 q 576 453 515 468 q 579 503 579 486 q 538 581 579 556 q 406 606 497 606 l 165 606 l 185 726 q 486 757 332 757 m 469 353 q 329 326 372 353 q 286 238 286 299 q 392 150 286 150 q 508 198 468 150 q 563 344 547 246 q 469 353 510 353 z "},"f":{"ha":542,"x_min":114,"x_max":700,"o":"m 218 581 l 114 581 l 135 713 l 243 746 l 263 856 q 344 1016 281 964 q 532 1068 407 1068 q 700 1056 625 1068 l 676 904 l 569 904 q 489 880 514 904 q 457 799 464 856 l 450 746 l 631 746 l 604 581 l 424 581 l 332 0 l 126 0 l 218 581 z "},"ḟ":{"ha":542,"x_min":114,"x_max":700,"o":"m 218 581 l 114 581 l 135 713 l 243 746 l 263 856 q 344 1016 281 964 q 532 1068 407 1068 q 700 1056 625 1068 l 676 904 l 569 904 q 489 880 514 904 q 457 799 464 856 l 450 746 l 631 746 l 604 581 l 424 581 l 332 0 l 126 0 l 218 581 m 458 1172 q 440 1178 447 1172 q 433 1196 433 1185 l 433 1201 l 456 1336 q 489 1367 460 1367 l 583 1367 q 608 1343 608 1367 l 608 1336 l 586 1201 q 575 1180 585 1188 q 553 1172 565 1172 l 458 1172 z "},"g":{"ha":800,"x_min":50,"x_max":833,"o":"m 50 -311 l 72 -169 l 307 -169 q 446 -142 394 -169 q 507 -49 497 -115 l 528 75 q 419 16 485 40 q 297 -8 354 -8 q 153 65 204 -8 q 103 247 103 138 q 119 421 103 310 q 250 678 149 601 q 510 754 351 754 q 690 741 606 754 q 833 708 774 728 l 708 -81 q 595 -269 688 -210 q 336 -328 503 -328 q 235 -324 289 -328 l 50 -311 m 401 157 q 547 208 469 157 l 607 579 q 497 589 543 589 q 382 543 426 589 q 321 397 338 497 q 308 282 308 324 q 333 188 308 219 q 401 157 357 157 z "},"ğ":{"ha":800,"x_min":50,"x_max":833,"o":"m 50 -311 l 72 -169 l 307 -169 q 446 -142 394 -169 q 507 -49 497 -115 l 528 75 q 419 16 485 40 q 297 -8 354 -8 q 153 65 204 -8 q 103 247 103 138 q 119 421 103 310 q 250 678 149 601 q 510 754 351 754 q 690 741 606 754 q 833 708 774 728 l 708 -81 q 595 -269 688 -210 q 336 -328 503 -328 q 235 -324 289 -328 l 50 -311 m 401 157 q 547 208 469 157 l 607 579 q 497 589 543 589 q 382 543 426 589 q 321 397 338 497 q 308 282 308 324 q 333 188 308 219 q 401 157 357 157 m 531 865 q 410 904 453 865 q 367 1021 367 943 q 372 1075 367 1036 l 467 1075 q 464 1044 464 1053 q 487 981 464 1001 q 544 960 510 960 q 661 1075 644 960 l 760 1075 q 683 917 743 968 q 531 865 624 865 z "},"ǧ":{"ha":800,"x_min":50,"x_max":833,"o":"m 50 -311 l 72 -169 l 307 -169 q 446 -142 394 -169 q 507 -49 497 -115 l 528 75 q 419 16 485 40 q 297 -8 354 -8 q 153 65 204 -8 q 103 247 103 138 q 119 421 103 310 q 250 678 149 601 q 510 754 351 754 q 690 741 606 754 q 833 708 774 728 l 708 -81 q 595 -269 688 -210 q 336 -328 503 -328 q 235 -324 289 -328 l 50 -311 m 401 157 q 547 208 469 157 l 607 579 q 497 589 543 589 q 382 543 426 589 q 321 397 338 497 q 308 282 308 324 q 333 188 308 219 q 401 157 357 157 m 363 1074 l 482 1074 l 557 968 l 671 1074 l 792 1074 l 610 876 l 469 876 l 363 1074 z "},"ĝ":{"ha":800,"x_min":50,"x_max":833,"o":"m 50 -311 l 72 -169 l 307 -169 q 446 -142 394 -169 q 507 -49 497 -115 l 528 75 q 419 16 485 40 q 297 -8 354 -8 q 153 65 204 -8 q 103 247 103 138 q 119 421 103 310 q 250 678 149 601 q 510 754 351 754 q 690 741 606 754 q 833 708 774 728 l 708 -81 q 595 -269 688 -210 q 336 -328 503 -328 q 235 -324 289 -328 l 50 -311 m 401 157 q 547 208 469 157 l 607 579 q 497 589 543 589 q 382 543 426 589 q 321 397 338 497 q 308 282 308 324 q 333 188 308 219 q 401 157 357 157 m 494 1074 l 635 1074 l 740 876 l 621 876 l 547 982 l 432 876 l 313 876 l 494 1074 z "},"ģ":{"ha":800,"x_min":50,"x_max":833,"o":"m 50 -311 l 72 -169 l 307 -169 q 446 -142 394 -169 q 507 -49 497 -115 l 528 75 q 419 16 485 40 q 297 -8 354 -8 q 153 65 204 -8 q 103 247 103 138 q 119 421 103 310 q 250 678 149 601 q 510 754 351 754 q 690 741 606 754 q 833 708 774 728 l 708 -81 q 595 -269 688 -210 q 336 -328 503 -328 q 235 -324 289 -328 l 50 -311 m 401 157 q 547 208 469 157 l 607 579 q 497 589 543 589 q 382 543 426 589 q 321 397 338 497 q 308 282 308 324 q 333 188 308 219 q 401 157 357 157 m 428 872 q 487 1026 444 981 q 622 1071 529 1071 l 693 1071 l 679 988 l 640 976 q 594 960 610 969 q 569 931 579 951 q 553 872 558 911 l 428 872 z "},"ġ":{"ha":800,"x_min":50,"x_max":833,"o":"m 50 -311 l 72 -169 l 307 -169 q 446 -142 394 -169 q 507 -49 497 -115 l 528 75 q 419 16 485 40 q 297 -8 354 -8 q 153 65 204 -8 q 103 247 103 138 q 119 421 103 310 q 250 678 149 601 q 510 754 351 754 q 690 741 606 754 q 833 708 774 728 l 708 -81 q 595 -269 688 -210 q 336 -328 503 -328 q 235 -324 289 -328 l 50 -311 m 401 157 q 547 208 469 157 l 607 579 q 497 589 543 589 q 382 543 426 589 q 321 397 338 497 q 308 282 308 324 q 333 188 308 219 q 401 157 357 157 m 486 894 q 468 901 475 894 q 461 918 461 907 l 461 924 l 483 1058 q 517 1089 488 1089 l 611 1089 q 636 1065 636 1089 l 636 1058 l 614 924 q 603 902 613 910 q 581 894 593 894 l 486 894 z "},"ḡ":{"ha":800,"x_min":50,"x_max":833,"o":"m 50 -311 l 72 -169 l 307 -169 q 446 -142 394 -169 q 507 -49 497 -115 l 528 75 q 419 16 485 40 q 297 -8 354 -8 q 153 65 204 -8 q 103 247 103 138 q 119 421 103 310 q 250 678 149 601 q 510 754 351 754 q 690 741 606 754 q 833 708 774 728 l 708 -81 q 595 -269 688 -210 q 336 -328 503 -328 q 235 -324 289 -328 l 50 -311 m 401 157 q 547 208 469 157 l 607 579 q 497 589 543 589 q 382 543 426 589 q 321 397 338 497 q 308 282 308 324 q 333 188 308 219 q 401 157 357 157 m 363 1021 l 753 1021 l 733 899 l 343 899 l 363 1021 z "},"h":{"ha":819,"x_min":75,"x_max":832,"o":"m 243 1060 l 449 1060 l 386 669 q 503 731 438 707 q 646 756 568 756 q 832 569 832 756 q 824 483 832 532 l 747 0 l 542 0 l 614 458 q 615 490 615 469 q 531 571 615 571 q 442 555 482 571 q 361 508 403 539 l 281 0 l 75 0 l 243 1060 z "},"ħ":{"ha":821,"x_min":75,"x_max":832,"o":"m 646 756 q 832 569 832 756 q 824 483 832 532 l 747 0 l 542 0 l 614 458 q 615 490 615 469 q 531 571 615 571 q 442 555 482 571 q 361 508 403 539 l 281 0 l 75 0 l 211 854 l 135 854 l 149 936 l 224 936 l 243 1060 l 449 1060 l 429 936 l 597 936 l 585 854 l 415 854 l 386 669 q 503 731 438 707 q 646 756 568 756 z "},"ḫ":{"ha":819,"x_min":75,"x_max":832,"o":"m 243 1060 l 449 1060 l 386 669 q 503 731 438 707 q 646 756 568 756 q 832 569 832 756 q 824 483 832 532 l 747 0 l 542 0 l 614 458 q 615 490 615 469 q 531 571 615 571 q 442 555 482 571 q 361 508 403 539 l 281 0 l 75 0 l 243 1060 m 357 -315 q 235 -277 278 -315 q 193 -160 193 -239 q 197 -106 193 -135 l 293 -106 q 290 -136 290 -128 q 313 -201 290 -181 q 371 -221 335 -221 q 488 -106 469 -221 l 585 -106 q 509 -264 568 -212 q 357 -315 450 -315 z "},"ĥ":{"ha":819,"x_min":75,"x_max":832,"o":"m 243 1060 l 449 1060 l 386 669 q 503 731 438 707 q 646 756 568 756 q 832 569 832 756 q 824 483 832 532 l 747 0 l 542 0 l 614 458 q 615 490 615 469 q 531 571 615 571 q 442 555 482 571 q 361 508 403 539 l 281 0 l 75 0 l 243 1060 m 433 1351 l 574 1351 l 679 1154 l 560 1154 l 486 1260 l 371 1154 l 251 1154 l 433 1351 z "},"ḥ":{"ha":819,"x_min":75,"x_max":832,"o":"m 243 1060 l 449 1060 l 386 669 q 503 731 438 707 q 646 756 568 756 q 832 569 832 756 q 824 483 832 532 l 747 0 l 542 0 l 614 458 q 615 490 615 469 q 531 571 615 571 q 442 555 482 571 q 361 508 403 539 l 281 0 l 75 0 l 243 1060 m 314 -314 q 296 -308 303 -314 q 289 -290 289 -301 l 289 -285 l 311 -150 q 344 -119 315 -119 l 439 -119 q 464 -143 464 -119 l 464 -150 l 442 -285 q 431 -306 440 -299 q 408 -314 421 -314 l 314 -314 z "},"i":{"ha":353,"x_min":74,"x_max":449,"o":"m 235 856 q 215 863 222 856 q 211 883 208 871 l 232 1019 q 265 1049 236 1049 l 424 1049 q 446 1019 449 1049 l 425 883 q 393 856 418 856 l 235 856 m 192 746 l 397 746 l 281 0 l 74 0 l 192 746 z "},"ı":{"ha":354,"x_min":75,"x_max":399,"o":"m 193 746 l 399 746 l 282 0 l 75 0 l 193 746 z "},"í":{"ha":354,"x_min":75,"x_max":565,"o":"m 193 746 l 399 746 l 282 0 l 75 0 l 193 746 m 389 1071 l 565 1071 l 385 876 l 253 876 l 389 1071 z "},"ĭ":{"ha":354,"x_min":75,"x_max":550,"o":"m 193 746 l 399 746 l 282 0 l 75 0 l 193 746 m 321 865 q 200 904 243 865 q 157 1021 157 943 q 163 1075 157 1036 l 257 1075 q 254 1044 254 1053 q 277 981 254 1001 q 335 960 300 960 q 451 1075 435 960 l 550 1075 q 474 917 533 968 q 321 865 414 865 z "},"î":{"ha":354,"x_min":75,"x_max":531,"o":"m 193 746 l 399 746 l 282 0 l 75 0 l 193 746 m 285 1074 l 425 1074 l 531 876 l 411 876 l 338 982 l 222 876 l 103 876 l 285 1074 z "},"ȉ":{"ha":354,"x_min":22,"x_max":519,"o":"m 193 746 l 399 746 l 282 0 l 75 0 l 193 746 m 22 1071 l 189 1071 l 271 876 l 150 876 l 22 1071 m 271 1071 l 436 1071 l 519 876 l 399 876 l 271 1071 z "},"ï":{"ha":354,"x_min":75,"x_max":558,"o":"m 193 746 l 399 746 l 282 0 l 75 0 l 193 746 m 131 885 q 113 892 119 885 q 107 908 107 899 l 129 1049 q 161 1079 133 1079 l 257 1079 q 281 1056 281 1079 l 258 914 q 226 885 254 885 l 131 885 m 408 885 q 391 891 397 885 q 385 908 385 897 l 407 1049 q 439 1079 411 1079 l 535 1079 q 558 1056 558 1079 l 536 914 q 504 885 532 885 l 408 885 z "},"ḯ":{"ha":354,"x_min":75,"x_max":589,"o":"m 193 746 l 399 746 l 282 0 l 75 0 l 193 746 m 131 885 q 113 892 119 885 q 107 908 107 899 l 129 1049 q 161 1079 133 1079 l 257 1079 q 281 1056 281 1079 l 258 914 q 226 885 254 885 l 131 885 m 408 885 q 391 891 397 885 q 385 908 385 897 l 407 1049 q 439 1079 411 1079 l 535 1079 q 558 1056 558 1079 l 536 914 q 504 885 532 885 l 408 885 m 413 1333 l 589 1333 l 408 1139 l 276 1139 l 413 1333 z "},"ị":{"ha":353,"x_min":74,"x_max":446,"o":"m 235 856 q 215 863 222 856 q 211 883 208 871 l 232 1019 q 265 1049 236 1049 l 424 1049 q 446 1019 449 1049 l 425 883 q 393 856 418 856 l 235 856 m 192 746 l 397 746 l 281 0 l 74 0 l 192 746 m 104 -314 q 86 -308 93 -314 q 79 -290 79 -301 l 79 -285 l 101 -150 q 135 -119 106 -119 l 229 -119 q 254 -143 254 -119 l 254 -150 l 232 -285 q 221 -306 231 -299 q 199 -314 211 -314 l 104 -314 z "},"ì":{"ha":354,"x_min":75,"x_max":404,"o":"m 193 746 l 399 746 l 282 0 l 75 0 l 193 746 m 156 1071 l 321 1071 l 404 876 l 283 876 l 156 1071 z "},"ỉ":{"ha":354,"x_min":75,"x_max":458,"o":"m 193 746 l 399 746 l 282 0 l 75 0 l 193 746 m 282 915 q 347 981 347 933 q 306 1010 347 1010 q 260 1001 290 1010 l 272 1082 q 347 1093 308 1093 q 458 997 458 1093 q 413 897 458 942 q 268 825 368 851 l 282 915 z "},"ȋ":{"ha":354,"x_min":75,"x_max":517,"o":"m 193 746 l 399 746 l 282 0 l 75 0 l 193 746 m 124 869 q 200 1028 140 976 q 353 1079 260 1079 q 474 1040 431 1079 q 517 924 517 1001 q 511 869 517 908 l 417 869 q 419 900 419 892 q 397 965 419 944 q 338 985 374 985 q 262 958 293 985 q 222 869 231 931 l 124 869 z "},"ī":{"ha":354,"x_min":75,"x_max":543,"o":"m 193 746 l 399 746 l 282 0 l 75 0 l 193 746 m 153 1021 l 543 1021 l 524 899 l 133 899 l 153 1021 z "},"į":{"ha":353,"x_min":74,"x_max":446,"o":"m 235 856 q 215 863 222 856 q 211 883 208 871 l 232 1019 q 265 1049 236 1049 l 424 1049 q 446 1019 449 1049 l 425 883 q 393 856 418 856 l 235 856 m 192 746 l 397 746 l 281 0 l 74 0 l 192 746 m 218 -267 q 121 -237 153 -267 q 89 -162 89 -207 q 119 -69 89 -111 q 206 0 150 -28 l 281 0 q 217 -53 238 -24 q 196 -106 196 -82 q 215 -149 196 -133 q 267 -165 235 -165 l 279 -165 l 264 -261 q 218 -267 251 -267 z "},"ĩ":{"ha":354,"x_min":64,"x_max":603,"o":"m 193 746 l 399 746 l 282 0 l 75 0 l 193 746 m 64 882 q 236 1054 103 1054 q 295 1045 268 1054 q 354 1021 322 1036 q 433 997 407 997 q 477 1014 460 997 q 500 1061 494 1031 l 603 1061 q 539 926 581 968 q 432 883 497 883 q 377 892 403 883 q 311 917 351 900 q 269 933 290 926 q 233 940 249 940 q 191 924 208 940 q 167 882 174 907 l 64 882 z "},"j":{"ha":353,"x_min":21,"x_max":449,"o":"m 235 856 q 215 863 222 856 q 211 883 208 871 l 232 1019 q 265 1049 236 1049 l 424 1049 q 446 1019 449 1049 l 425 883 q 393 856 418 856 l 235 856 m 192 746 l 397 746 l 279 -6 q 174 -329 257 -147 l 21 -329 l 192 746 z "},"ȷ":{"ha":354,"x_min":22,"x_max":399,"o":"m 193 746 l 399 746 l 281 -6 q 175 -329 258 -147 l 22 -329 l 193 746 z "},"ĵ":{"ha":354,"x_min":22,"x_max":531,"o":"m 193 746 l 399 746 l 281 -6 q 175 -329 258 -147 l 22 -329 l 193 746 m 285 1074 l 425 1074 l 531 876 l 411 876 l 338 982 l 222 876 l 103 876 l 285 1074 z "},"k":{"ha":782,"x_min":75,"x_max":828,"o":"m 243 1060 l 449 1060 l 357 482 q 621 746 561 517 l 828 746 q 589 403 757 493 l 785 0 l 574 0 l 417 340 q 332 328 369 328 l 281 0 l 75 0 l 243 1060 z "},"ķ":{"ha":782,"x_min":75,"x_max":828,"o":"m 243 1060 l 449 1060 l 357 482 q 621 746 561 517 l 828 746 q 589 403 757 493 l 785 0 l 574 0 l 417 340 q 332 328 369 328 l 281 0 l 75 0 l 243 1060 m 254 -215 l 293 -206 q 353 -176 336 -196 q 379 -101 371 -157 l 506 -101 q 447 -255 489 -210 q 311 -300 404 -300 l 240 -300 l 254 -215 z "},"ĸ":{"ha":782,"x_min":74,"x_max":826,"o":"m 192 746 l 397 746 l 354 475 q 621 746 557 507 l 826 746 q 724 520 786 601 q 588 396 663 439 l 783 0 l 572 0 l 415 332 q 331 321 374 321 l 279 0 l 74 0 l 192 746 z "},"l":{"ha":447,"x_min":110,"x_max":449,"o":"m 333 0 q 167 45 225 0 q 110 167 110 90 q 115 258 110 224 l 243 1060 l 449 1060 l 332 329 q 321 228 321 246 q 338 176 321 192 q 393 157 356 161 l 446 149 l 422 0 l 333 0 z "},"ĺ":{"ha":447,"x_min":110,"x_max":610,"o":"m 333 0 q 167 45 225 0 q 110 167 110 90 q 115 258 110 224 l 243 1060 l 449 1060 l 332 329 q 321 228 321 246 q 338 176 321 192 q 393 157 356 161 l 446 149 l 422 0 l 333 0 m 433 1349 l 610 1349 l 429 1154 l 297 1154 l 433 1349 z "},"ľ":{"ha":447,"x_min":110,"x_max":710,"o":"m 333 0 q 167 45 225 0 q 110 167 110 90 q 115 258 110 224 l 243 1060 l 449 1060 l 332 329 q 321 228 321 246 q 338 176 321 192 q 393 157 356 161 l 446 149 l 422 0 l 333 0 m 508 997 l 522 1090 l 710 1090 l 694 997 l 653 803 l 492 803 l 508 997 z "},"ļ":{"ha":447,"x_min":83,"x_max":449,"o":"m 333 0 q 167 45 225 0 q 110 167 110 90 q 115 258 110 224 l 243 1060 l 449 1060 l 332 329 q 321 228 321 246 q 338 176 321 192 q 393 157 356 161 l 446 149 l 422 0 l 333 0 m 97 -215 l 136 -206 q 197 -176 179 -196 q 222 -101 214 -157 l 349 -101 q 290 -255 332 -210 q 154 -300 247 -300 l 83 -300 l 97 -215 z "},"ŀ":{"ha":503,"x_min":110,"x_max":628,"o":"m 333 0 q 167 45 225 0 q 110 167 110 90 q 115 258 110 224 l 243 1060 l 449 1060 l 332 329 q 321 228 321 246 q 338 176 321 192 q 393 157 356 161 l 446 149 l 422 0 l 333 0 m 454 464 q 435 472 442 464 q 429 492 428 479 l 449 615 q 460 637 451 629 q 482 644 468 644 l 601 644 q 626 615 633 644 l 607 492 q 574 464 601 464 l 454 464 z "},"ḷ":{"ha":447,"x_min":110,"x_max":449,"o":"m 333 0 q 167 45 225 0 q 110 167 110 90 q 115 258 110 224 l 243 1060 l 449 1060 l 332 329 q 321 228 321 246 q 338 176 321 192 q 393 157 356 161 l 446 149 l 422 0 l 333 0 m 164 -314 q 146 -308 153 -314 q 139 -290 139 -301 l 139 -285 l 161 -150 q 194 -119 165 -119 l 289 -119 q 314 -143 314 -119 l 314 -150 l 292 -285 q 281 -306 290 -299 q 258 -314 271 -314 l 164 -314 z "},"ḻ":{"ha":447,"x_min":26,"x_max":449,"o":"m 333 0 q 167 45 225 0 q 110 167 110 90 q 115 258 110 224 l 243 1060 l 449 1060 l 332 329 q 321 228 321 246 q 338 176 321 192 q 393 157 356 161 l 446 149 l 422 0 l 333 0 m 46 -174 l 436 -174 l 417 -296 l 26 -296 l 46 -174 z "},"ł":{"ha":447,"x_min":67,"x_max":519,"o":"m 332 329 q 321 228 321 246 q 338 176 321 192 q 393 157 356 161 l 446 149 l 422 0 l 333 0 q 167 45 225 0 q 110 167 110 90 q 115 258 110 224 l 154 501 l 67 469 l 85 581 l 172 613 l 243 1060 l 449 1060 l 388 681 l 519 729 l 501 618 l 371 571 l 332 329 z "},"m":{"ha":1288,"x_min":75,"x_max":1297,"o":"m 192 746 l 363 746 l 386 669 q 504 733 442 710 q 646 756 567 756 q 756 729 713 756 q 825 646 799 703 q 958 728 885 700 q 1100 756 1031 756 q 1297 576 1297 756 q 1288 465 1297 526 l 1214 0 l 1008 0 l 1081 460 q 1083 489 1083 479 q 992 571 1083 571 q 824 504 908 571 q 819 454 824 486 l 747 0 l 542 0 l 614 456 q 617 490 617 483 q 526 571 617 571 q 443 556 479 571 q 361 508 407 540 l 281 0 l 75 0 l 192 746 z "},"ṁ":{"ha":1288,"x_min":75,"x_max":1297,"o":"m 192 746 l 363 746 l 386 669 q 504 733 442 710 q 646 756 567 756 q 756 729 713 756 q 825 646 799 703 q 958 728 885 700 q 1100 756 1031 756 q 1297 576 1297 756 q 1288 465 1297 526 l 1214 0 l 1008 0 l 1081 460 q 1083 489 1083 479 q 992 571 1083 571 q 824 504 908 571 q 819 454 824 486 l 747 0 l 542 0 l 614 456 q 617 490 617 483 q 526 571 617 571 q 443 556 479 571 q 361 508 407 540 l 281 0 l 75 0 l 192 746 m 749 894 q 731 901 738 894 q 724 918 724 907 l 724 924 l 746 1058 q 779 1089 750 1089 l 874 1089 q 899 1065 899 1089 l 899 1058 l 876 924 q 865 902 875 910 q 843 894 856 894 l 749 894 z "},"ṃ":{"ha":1288,"x_min":75,"x_max":1297,"o":"m 192 746 l 363 746 l 386 669 q 504 733 442 710 q 646 756 567 756 q 756 729 713 756 q 825 646 799 703 q 958 728 885 700 q 1100 756 1031 756 q 1297 576 1297 756 q 1288 465 1297 526 l 1214 0 l 1008 0 l 1081 460 q 1083 489 1083 479 q 992 571 1083 571 q 824 504 908 571 q 819 454 824 486 l 747 0 l 542 0 l 614 456 q 617 490 617 483 q 526 571 617 571 q 443 556 479 571 q 361 508 407 540 l 281 0 l 75 0 l 192 746 m 564 -314 q 546 -308 553 -314 q 539 -290 539 -301 l 539 -285 l 561 -150 q 594 -119 565 -119 l 689 -119 q 714 -143 714 -119 l 714 -150 l 692 -285 q 681 -306 690 -299 q 658 -314 671 -314 l 564 -314 z "},"n":{"ha":819,"x_min":75,"x_max":832,"o":"m 192 746 l 363 746 l 386 669 q 643 756 501 756 q 783 709 733 756 q 832 588 832 663 q 815 433 832 535 l 747 0 l 542 0 l 608 426 q 617 492 617 485 q 526 571 617 571 q 441 555 481 571 q 361 508 401 539 l 281 0 l 75 0 l 192 746 z "},"ń":{"ha":819,"x_min":75,"x_max":832,"o":"m 192 746 l 363 746 l 386 669 q 643 756 501 756 q 783 709 733 756 q 832 588 832 663 q 815 433 832 535 l 747 0 l 542 0 l 608 426 q 617 492 617 485 q 526 571 617 571 q 441 555 481 571 q 361 508 401 539 l 281 0 l 75 0 l 192 746 m 611 1071 l 788 1071 l 607 876 l 475 876 l 611 1071 z "},"ň":{"ha":819,"x_min":75,"x_max":832,"o":"m 192 746 l 363 746 l 386 669 q 643 756 501 756 q 783 709 733 756 q 832 588 832 663 q 815 433 832 535 l 747 0 l 542 0 l 608 426 q 617 492 617 485 q 526 571 617 571 q 441 555 481 571 q 361 508 401 539 l 281 0 l 75 0 l 192 746 m 375 1074 l 494 1074 l 569 968 l 683 1074 l 804 1074 l 622 876 l 482 876 l 375 1074 z "},"ņ":{"ha":819,"x_min":75,"x_max":832,"o":"m 192 746 l 363 746 l 386 669 q 643 756 501 756 q 783 709 733 756 q 832 588 832 663 q 815 433 832 535 l 747 0 l 542 0 l 608 426 q 617 492 617 485 q 526 571 617 571 q 441 555 481 571 q 361 508 401 539 l 281 0 l 75 0 l 192 746 m 246 -215 l 285 -206 q 345 -176 328 -196 q 371 -101 363 -157 l 497 -101 q 438 -255 481 -210 q 303 -300 396 -300 l 232 -300 l 246 -215 z "},"ṅ":{"ha":819,"x_min":75,"x_max":832,"o":"m 192 746 l 363 746 l 386 669 q 643 756 501 756 q 783 709 733 756 q 832 588 832 663 q 815 433 832 535 l 747 0 l 542 0 l 608 426 q 617 492 617 485 q 526 571 617 571 q 441 555 481 571 q 361 508 401 539 l 281 0 l 75 0 l 192 746 m 314 -314 q 296 -308 303 -314 q 289 -290 289 -301 l 289 -285 l 311 -150 q 344 -119 315 -119 l 439 -119 q 464 -143 464 -119 l 464 -150 l 442 -285 q 431 -306 440 -299 q 408 -314 421 -314 l 314 -314 z "},"ṇ":{"ha":819,"x_min":75,"x_max":832,"o":"m 192 746 l 363 746 l 386 669 q 643 756 501 756 q 783 709 733 756 q 832 588 832 663 q 815 433 832 535 l 747 0 l 542 0 l 608 426 q 617 492 617 485 q 526 571 617 571 q 441 555 481 571 q 361 508 401 539 l 281 0 l 75 0 l 192 746 m 314 -314 q 296 -308 303 -314 q 289 -290 289 -301 l 289 -285 l 311 -150 q 344 -119 315 -119 l 439 -119 q 464 -143 464 -119 l 464 -150 l 442 -285 q 431 -306 440 -299 q 408 -314 421 -314 l 314 -314 z "},"ŋ":{"ha":819,"x_min":75,"x_max":832,"o":"m 832 588 q 815 433 832 535 l 750 17 l 740 -46 q 669 -223 724 -150 q 538 -329 614 -296 l 374 -329 q 474 -223 432 -289 q 533 -51 517 -157 l 542 0 l 608 426 q 617 492 617 485 q 526 571 617 571 q 441 555 481 571 q 361 508 401 539 l 281 0 l 75 0 l 192 746 l 363 746 l 386 669 q 643 756 501 756 q 783 709 733 756 q 832 588 832 663 z "},"ṉ":{"ha":819,"x_min":75,"x_max":832,"o":"m 192 746 l 363 746 l 386 669 q 643 756 501 756 q 783 709 733 756 q 832 588 832 663 q 815 433 832 535 l 747 0 l 542 0 l 608 426 q 617 492 617 485 q 526 571 617 571 q 441 555 481 571 q 361 508 401 539 l 281 0 l 75 0 l 192 746 m 196 -174 l 586 -174 l 567 -296 l 176 -296 l 196 -174 z "},"ñ":{"ha":819,"x_min":75,"x_max":832,"o":"m 192 746 l 363 746 l 386 669 q 643 756 501 756 q 783 709 733 756 q 832 588 832 663 q 815 433 832 535 l 747 0 l 542 0 l 608 426 q 617 492 617 485 q 526 571 617 571 q 441 555 481 571 q 361 508 401 539 l 281 0 l 75 0 l 192 746 m 286 882 q 458 1054 325 1054 q 517 1045 490 1054 q 576 1021 544 1036 q 656 997 629 997 q 699 1014 682 997 q 722 1061 717 1031 l 825 1061 q 761 926 803 968 q 654 883 719 883 q 599 892 625 883 q 533 917 574 900 q 492 933 513 926 q 456 940 471 940 q 413 924 431 940 q 389 882 396 907 l 286 882 z "},"o":{"ha":797,"x_min":104,"x_max":810,"o":"m 397 -8 q 104 251 104 -8 q 115 393 104 322 q 186 618 139 540 q 311 725 233 696 q 517 754 389 754 q 697 725 633 754 q 785 638 760 696 q 810 482 810 579 q 797 332 810 414 q 728 124 776 197 q 602 21 681 50 q 397 -8 524 -8 m 419 157 q 507 174 475 157 q 558 233 539 190 q 592 363 578 276 q 604 492 604 457 q 578 570 604 547 q 490 593 553 593 q 401 574 433 593 q 350 507 369 556 q 317 363 331 458 q 308 261 308 303 q 335 179 308 201 q 419 157 363 157 z "},"ó":{"ha":797,"x_min":104,"x_max":810,"o":"m 397 -8 q 104 251 104 -8 q 115 393 104 322 q 186 618 139 540 q 311 725 233 696 q 517 754 389 754 q 697 725 633 754 q 785 638 760 696 q 810 482 810 579 q 797 332 810 414 q 728 124 776 197 q 602 21 681 50 q 397 -8 524 -8 m 419 157 q 507 174 475 157 q 558 233 539 190 q 592 363 578 276 q 604 492 604 457 q 578 570 604 547 q 490 593 553 593 q 401 574 433 593 q 350 507 369 556 q 317 363 331 458 q 308 261 308 303 q 335 179 308 201 q 419 157 363 157 m 594 1071 l 771 1071 l 590 876 l 458 876 l 594 1071 z "},"ŏ":{"ha":797,"x_min":104,"x_max":810,"o":"m 397 -8 q 104 251 104 -8 q 115 393 104 322 q 186 618 139 540 q 311 725 233 696 q 517 754 389 754 q 697 725 633 754 q 785 638 760 696 q 810 482 810 579 q 797 332 810 414 q 728 124 776 197 q 602 21 681 50 q 397 -8 524 -8 m 419 157 q 507 174 475 157 q 558 233 539 190 q 592 363 578 276 q 604 492 604 457 q 578 570 604 547 q 490 593 553 593 q 401 574 433 593 q 350 507 369 556 q 317 363 331 458 q 308 261 308 303 q 335 179 308 201 q 419 157 363 157 m 526 865 q 406 904 449 865 q 363 1021 363 943 q 368 1075 363 1036 l 463 1075 q 460 1044 460 1053 q 483 981 460 1001 q 540 960 506 960 q 657 1075 640 960 l 756 1075 q 679 917 739 968 q 526 865 619 865 z "},"ô":{"ha":797,"x_min":104,"x_max":810,"o":"m 397 -8 q 104 251 104 -8 q 115 393 104 322 q 186 618 139 540 q 311 725 233 696 q 517 754 389 754 q 697 725 633 754 q 785 638 760 696 q 810 482 810 579 q 797 332 810 414 q 728 124 776 197 q 602 21 681 50 q 397 -8 524 -8 m 419 157 q 507 174 475 157 q 558 233 539 190 q 592 363 578 276 q 604 492 604 457 q 578 570 604 547 q 490 593 553 593 q 401 574 433 593 q 350 507 369 556 q 317 363 331 458 q 308 261 308 303 q 335 179 308 201 q 419 157 363 157 m 490 1074 l 631 1074 l 736 876 l 617 876 l 543 982 l 428 876 l 308 876 l 490 1074 z "},"ố":{"ha":797,"x_min":104,"x_max":918,"o":"m 397 -8 q 104 251 104 -8 q 115 393 104 322 q 186 618 139 540 q 311 725 233 696 q 517 754 389 754 q 697 725 633 754 q 785 638 760 696 q 810 482 810 579 q 797 332 810 414 q 728 124 776 197 q 602 21 681 50 q 397 -8 524 -8 m 419 157 q 507 174 475 157 q 558 233 539 190 q 592 363 578 276 q 604 492 604 457 q 578 570 604 547 q 490 593 553 593 q 401 574 433 593 q 350 507 369 556 q 317 363 331 458 q 308 261 308 303 q 335 179 308 201 q 419 157 363 157 m 763 1168 l 918 1168 l 782 994 l 671 994 l 763 1168 m 478 1028 l 618 1028 l 732 876 l 613 876 l 531 936 l 424 876 l 304 876 l 478 1028 z "},"ộ":{"ha":797,"x_min":104,"x_max":810,"o":"m 397 -8 q 104 251 104 -8 q 115 393 104 322 q 186 618 139 540 q 311 725 233 696 q 517 754 389 754 q 697 725 633 754 q 785 638 760 696 q 810 482 810 579 q 797 332 810 414 q 728 124 776 197 q 602 21 681 50 q 397 -8 524 -8 m 419 157 q 507 174 475 157 q 558 233 539 190 q 592 363 578 276 q 604 492 604 457 q 578 570 604 547 q 490 593 553 593 q 401 574 433 593 q 350 507 369 556 q 317 363 331 458 q 308 261 308 303 q 335 179 308 201 q 419 157 363 157 m 490 1074 l 631 1074 l 736 876 l 617 876 l 543 982 l 428 876 l 308 876 l 490 1074 m 297 -314 q 279 -308 286 -314 q 272 -290 272 -301 l 272 -285 l 294 -150 q 328 -119 299 -119 l 422 -119 q 447 -143 447 -119 l 447 -150 l 425 -285 q 414 -306 424 -299 q 392 -314 404 -314 l 297 -314 z "},"ồ":{"ha":797,"x_min":104,"x_max":810,"o":"m 397 -8 q 104 251 104 -8 q 115 393 104 322 q 186 618 139 540 q 311 725 233 696 q 517 754 389 754 q 697 725 633 754 q 785 638 760 696 q 810 482 810 579 q 797 332 810 414 q 728 124 776 197 q 602 21 681 50 q 397 -8 524 -8 m 419 157 q 507 174 475 157 q 558 233 539 190 q 592 363 578 276 q 604 492 604 457 q 578 570 604 547 q 490 593 553 593 q 401 574 433 593 q 350 507 369 556 q 317 363 331 458 q 308 261 308 303 q 335 179 308 201 q 419 157 363 157 m 218 1168 l 375 1168 l 410 994 l 299 994 l 218 1168 m 475 1028 l 615 1028 l 729 876 l 610 876 l 528 936 l 421 876 l 300 876 l 475 1028 z "},"ổ":{"ha":797,"x_min":104,"x_max":863,"o":"m 397 -8 q 104 251 104 -8 q 115 393 104 322 q 186 618 139 540 q 311 725 233 696 q 517 754 389 754 q 697 725 633 754 q 785 638 760 696 q 810 482 810 579 q 797 332 810 414 q 728 124 776 197 q 602 21 681 50 q 397 -8 524 -8 m 419 157 q 507 174 475 157 q 558 233 539 190 q 592 363 578 276 q 604 492 604 457 q 578 570 604 547 q 490 593 553 593 q 401 574 433 593 q 350 507 369 556 q 317 363 331 458 q 308 261 308 303 q 335 179 308 201 q 419 157 363 157 m 710 1033 q 750 1059 739 1046 q 761 1089 761 1072 q 731 1111 761 1111 q 685 1103 713 1111 l 697 1183 q 771 1194 733 1194 q 863 1114 863 1194 q 697 953 863 999 l 710 1033 m 479 1028 l 619 1028 l 733 876 l 614 876 l 531 936 l 425 876 l 304 876 l 479 1028 z "},"ỗ":{"ha":797,"x_min":104,"x_max":810,"o":"m 397 -8 q 104 251 104 -8 q 115 393 104 322 q 186 618 139 540 q 311 725 233 696 q 517 754 389 754 q 697 725 633 754 q 785 638 760 696 q 810 482 810 579 q 797 332 810 414 q 728 124 776 197 q 602 21 681 50 q 397 -8 524 -8 m 419 157 q 507 174 475 157 q 558 233 539 190 q 592 363 578 276 q 604 492 604 457 q 578 570 604 547 q 490 593 553 593 q 401 574 433 593 q 350 507 369 556 q 317 363 331 458 q 308 261 308 303 q 335 179 308 201 q 419 157 363 157 m 315 1085 q 376 1195 335 1165 q 478 1225 417 1225 q 572 1203 519 1225 q 606 1191 589 1196 q 636 1186 622 1186 q 678 1198 663 1186 q 699 1232 694 1210 l 801 1232 q 744 1119 782 1150 q 638 1088 706 1088 q 577 1098 607 1088 q 542 1110 547 1108 q 516 1119 538 1111 q 479 1126 494 1126 q 439 1115 456 1126 q 418 1085 422 1103 l 315 1085 m 481 1028 l 621 1028 l 733 876 l 614 876 l 532 936 l 425 876 l 304 876 l 481 1028 z "},"ȍ":{"ha":797,"x_min":104,"x_max":810,"o":"m 397 -8 q 104 251 104 -8 q 115 393 104 322 q 186 618 139 540 q 311 725 233 696 q 517 754 389 754 q 697 725 633 754 q 785 638 760 696 q 810 482 810 579 q 797 332 810 414 q 728 124 776 197 q 602 21 681 50 q 397 -8 524 -8 m 419 157 q 507 174 475 157 q 558 233 539 190 q 592 363 578 276 q 604 492 604 457 q 578 570 604 547 q 490 593 553 593 q 401 574 433 593 q 350 507 369 556 q 317 363 331 458 q 308 261 308 303 q 335 179 308 201 q 419 157 363 157 m 229 1071 l 396 1071 l 478 876 l 357 876 l 229 1071 m 478 1071 l 643 1071 l 726 876 l 606 876 l 478 1071 z "},"ö":{"ha":797,"x_min":104,"x_max":810,"o":"m 397 -8 q 104 251 104 -8 q 115 393 104 322 q 186 618 139 540 q 311 725 233 696 q 517 754 389 754 q 697 725 633 754 q 785 638 760 696 q 810 482 810 579 q 797 332 810 414 q 728 124 776 197 q 602 21 681 50 q 397 -8 524 -8 m 419 157 q 507 174 475 157 q 558 233 539 190 q 592 363 578 276 q 604 492 604 457 q 578 570 604 547 q 490 593 553 593 q 401 574 433 593 q 350 507 369 556 q 317 363 331 458 q 308 261 308 303 q 335 179 308 201 q 419 157 363 157 m 336 885 q 319 892 325 885 q 313 908 313 899 l 335 1049 q 367 1079 339 1079 l 463 1079 q 486 1056 486 1079 l 464 914 q 432 885 460 885 l 336 885 m 614 885 q 597 891 603 885 q 590 908 590 897 l 613 1049 q 644 1079 617 1079 l 740 1079 q 764 1056 764 1079 l 742 914 q 710 885 738 885 l 614 885 z "},"ȫ":{"ha":797,"x_min":104,"x_max":810,"o":"m 397 -8 q 104 251 104 -8 q 115 393 104 322 q 186 618 139 540 q 311 725 233 696 q 517 754 389 754 q 697 725 633 754 q 785 638 760 696 q 810 482 810 579 q 797 332 810 414 q 728 124 776 197 q 602 21 681 50 q 397 -8 524 -8 m 419 157 q 507 174 475 157 q 558 233 539 190 q 592 363 578 276 q 604 492 604 457 q 578 570 604 547 q 490 593 553 593 q 401 574 433 593 q 350 507 369 556 q 317 363 331 458 q 308 261 308 303 q 335 179 308 201 q 419 157 363 157 m 333 864 q 316 871 322 864 q 310 888 310 878 l 332 1028 q 364 1058 336 1058 l 460 1058 q 483 1035 483 1058 l 461 893 q 429 864 457 864 l 333 864 m 611 864 q 594 870 600 864 q 588 888 588 876 l 610 1028 q 642 1058 614 1058 l 738 1058 q 761 1035 761 1058 l 739 893 q 707 864 735 864 l 611 864 m 382 1246 l 772 1246 l 753 1124 l 363 1124 l 382 1246 z "},"ȱ":{"ha":797,"x_min":104,"x_max":810,"o":"m 397 -8 q 104 251 104 -8 q 115 393 104 322 q 186 618 139 540 q 311 725 233 696 q 517 754 389 754 q 697 725 633 754 q 785 638 760 696 q 810 482 810 579 q 797 332 810 414 q 728 124 776 197 q 602 21 681 50 q 397 -8 524 -8 m 419 157 q 507 174 475 157 q 558 233 539 190 q 592 363 578 276 q 604 492 604 457 q 578 570 604 547 q 490 593 553 593 q 401 574 433 593 q 350 507 369 556 q 317 363 331 458 q 308 261 308 303 q 335 179 308 201 q 419 157 363 157 m 476 864 q 458 870 465 864 q 451 888 451 876 l 451 893 l 474 1028 q 507 1058 478 1058 l 601 1058 q 626 1035 626 1058 l 626 1028 l 604 893 q 593 872 603 879 q 571 864 583 864 l 476 864 m 379 1246 l 769 1246 l 750 1124 l 360 1124 l 379 1246 z "},"ọ":{"ha":797,"x_min":104,"x_max":810,"o":"m 397 -8 q 104 251 104 -8 q 115 393 104 322 q 186 618 139 540 q 311 725 233 696 q 517 754 389 754 q 697 725 633 754 q 785 638 760 696 q 810 482 810 579 q 797 332 810 414 q 728 124 776 197 q 602 21 681 50 q 397 -8 524 -8 m 419 157 q 507 174 475 157 q 558 233 539 190 q 592 363 578 276 q 604 492 604 457 q 578 570 604 547 q 490 593 553 593 q 401 574 433 593 q 350 507 369 556 q 317 363 331 458 q 308 261 308 303 q 335 179 308 201 q 419 157 363 157 m 297 -314 q 279 -308 286 -314 q 272 -290 272 -301 l 272 -285 l 294 -150 q 328 -119 299 -119 l 422 -119 q 447 -143 447 -119 l 447 -150 l 425 -285 q 414 -306 424 -299 q 392 -314 404 -314 l 297 -314 z "},"ò":{"ha":797,"x_min":104,"x_max":810,"o":"m 397 -8 q 104 251 104 -8 q 115 393 104 322 q 186 618 139 540 q 311 725 233 696 q 517 754 389 754 q 697 725 633 754 q 785 638 760 696 q 810 482 810 579 q 797 332 810 414 q 728 124 776 197 q 602 21 681 50 q 397 -8 524 -8 m 419 157 q 507 174 475 157 q 558 233 539 190 q 592 363 578 276 q 604 492 604 457 q 578 570 604 547 q 490 593 553 593 q 401 574 433 593 q 350 507 369 556 q 317 363 331 458 q 308 261 308 303 q 335 179 308 201 q 419 157 363 157 m 361 1071 l 526 1071 l 610 876 l 489 876 l 361 1071 z "},"ỏ":{"ha":797,"x_min":104,"x_max":810,"o":"m 397 -8 q 104 251 104 -8 q 115 393 104 322 q 186 618 139 540 q 311 725 233 696 q 517 754 389 754 q 697 725 633 754 q 785 638 760 696 q 810 482 810 579 q 797 332 810 414 q 728 124 776 197 q 602 21 681 50 q 397 -8 524 -8 m 419 157 q 507 174 475 157 q 558 233 539 190 q 592 363 578 276 q 604 492 604 457 q 578 570 604 547 q 490 593 553 593 q 401 574 433 593 q 350 507 369 556 q 317 363 331 458 q 308 261 308 303 q 335 179 308 201 q 419 157 363 157 m 489 915 q 554 981 554 933 q 513 1010 554 1010 q 467 1001 497 1010 l 479 1082 q 554 1093 515 1093 q 665 997 665 1093 q 620 897 665 942 q 475 825 575 851 l 489 915 z "},"ơ":{"ha":804,"x_min":104,"x_max":917,"o":"m 917 899 q 865 748 903 808 q 774 658 828 688 q 810 482 810 600 q 797 332 810 414 q 728 124 776 197 q 602 21 681 50 q 397 -8 524 -8 q 104 251 104 -8 q 115 393 104 322 q 186 618 139 540 q 311 725 233 696 q 517 754 389 754 q 626 746 578 754 l 651 746 q 731 781 701 746 q 774 899 761 815 l 917 899 m 592 363 q 604 492 604 457 q 578 570 604 547 q 490 593 553 593 q 401 574 433 593 q 350 507 369 556 q 317 363 331 458 q 308 261 308 303 q 335 179 308 201 q 419 157 363 157 q 507 174 475 157 q 558 233 539 190 q 592 363 578 276 z "},"ớ":{"ha":804,"x_min":104,"x_max":917,"o":"m 917 899 q 865 748 903 808 q 774 658 828 688 q 810 482 810 600 q 797 332 810 414 q 728 124 776 197 q 602 21 681 50 q 397 -8 524 -8 q 104 251 104 -8 q 115 393 104 322 q 186 618 139 540 q 311 725 233 696 q 517 754 389 754 q 626 746 578 754 l 651 746 q 731 781 701 746 q 774 899 761 815 l 917 899 m 592 363 q 604 492 604 457 q 578 570 604 547 q 490 593 553 593 q 401 574 433 593 q 350 507 369 556 q 317 363 331 458 q 308 261 308 303 q 335 179 308 201 q 419 157 363 157 q 507 174 475 157 q 558 233 539 190 q 592 363 578 276 m 563 1071 l 739 1071 l 558 876 l 426 876 l 563 1071 z "},"ợ":{"ha":804,"x_min":104,"x_max":917,"o":"m 917 899 q 865 748 903 808 q 774 658 828 688 q 810 482 810 600 q 797 332 810 414 q 728 124 776 197 q 602 21 681 50 q 397 -8 524 -8 q 104 251 104 -8 q 115 393 104 322 q 186 618 139 540 q 311 725 233 696 q 517 754 389 754 q 626 746 578 754 l 651 746 q 731 781 701 746 q 774 899 761 815 l 917 899 m 592 363 q 604 492 604 457 q 578 570 604 547 q 490 593 553 593 q 401 574 433 593 q 350 507 369 556 q 317 363 331 458 q 308 261 308 303 q 335 179 308 201 q 419 157 363 157 q 507 174 475 157 q 558 233 539 190 q 592 363 578 276 m 315 -314 q 297 -308 304 -314 q 290 -290 290 -301 l 290 -285 l 313 -150 q 346 -119 317 -119 l 440 -119 q 465 -143 465 -119 l 465 -150 l 443 -285 q 432 -306 442 -299 q 410 -314 422 -314 l 315 -314 z "},"ờ":{"ha":804,"x_min":104,"x_max":917,"o":"m 917 899 q 865 748 903 808 q 774 658 828 688 q 810 482 810 600 q 797 332 810 414 q 728 124 776 197 q 602 21 681 50 q 397 -8 524 -8 q 104 251 104 -8 q 115 393 104 322 q 186 618 139 540 q 311 725 233 696 q 517 754 389 754 q 626 746 578 754 l 651 746 q 731 781 701 746 q 774 899 761 815 l 917 899 m 592 363 q 604 492 604 457 q 578 570 604 547 q 490 593 553 593 q 401 574 433 593 q 350 507 369 556 q 317 363 331 458 q 308 261 308 303 q 335 179 308 201 q 419 157 363 157 q 507 174 475 157 q 558 233 539 190 q 592 363 578 276 m 329 1071 l 494 1071 l 578 876 l 457 876 l 329 1071 z "},"ở":{"ha":804,"x_min":104,"x_max":917,"o":"m 917 899 q 865 748 903 808 q 774 658 828 688 q 810 482 810 600 q 797 332 810 414 q 728 124 776 197 q 602 21 681 50 q 397 -8 524 -8 q 104 251 104 -8 q 115 393 104 322 q 186 618 139 540 q 311 725 233 696 q 517 754 389 754 q 626 746 578 754 l 651 746 q 731 781 701 746 q 774 899 761 815 l 917 899 m 592 363 q 604 492 604 457 q 578 570 604 547 q 490 593 553 593 q 401 574 433 593 q 350 507 369 556 q 317 363 331 458 q 308 261 308 303 q 335 179 308 201 q 419 157 363 157 q 507 174 475 157 q 558 233 539 190 q 592 363 578 276 m 457 915 q 522 981 522 933 q 481 1010 522 1010 q 435 1001 465 1010 l 447 1082 q 522 1093 483 1093 q 633 997 633 1093 q 588 897 633 942 q 443 825 543 851 l 457 915 z "},"ỡ":{"ha":804,"x_min":104,"x_max":917,"o":"m 917 899 q 865 748 903 808 q 774 658 828 688 q 810 482 810 600 q 797 332 810 414 q 728 124 776 197 q 602 21 681 50 q 397 -8 524 -8 q 104 251 104 -8 q 115 393 104 322 q 186 618 139 540 q 311 725 233 696 q 517 754 389 754 q 626 746 578 754 l 651 746 q 731 781 701 746 q 774 899 761 815 l 917 899 m 592 363 q 604 492 604 457 q 578 570 604 547 q 490 593 553 593 q 401 574 433 593 q 350 507 369 556 q 317 363 331 458 q 308 261 308 303 q 335 179 308 201 q 419 157 363 157 q 507 174 475 157 q 558 233 539 190 q 592 363 578 276 m 238 882 q 410 1054 276 1054 q 469 1045 442 1054 q 528 1021 496 1036 q 607 997 581 997 q 651 1014 633 997 q 674 1061 668 1031 l 776 1061 q 713 926 754 968 q 606 883 671 883 q 551 892 576 883 q 485 917 525 900 q 443 933 464 926 q 407 940 422 940 q 365 924 382 940 q 340 882 347 907 l 238 882 z "},"ő":{"ha":797,"x_min":104,"x_max":857,"o":"m 397 -8 q 104 251 104 -8 q 115 393 104 322 q 186 618 139 540 q 311 725 233 696 q 517 754 389 754 q 697 725 633 754 q 785 638 760 696 q 810 482 810 579 q 797 332 810 414 q 728 124 776 197 q 602 21 681 50 q 397 -8 524 -8 m 419 157 q 507 174 475 157 q 558 233 539 190 q 592 363 578 276 q 604 492 604 457 q 578 570 604 547 q 490 593 553 593 q 401 574 433 593 q 350 507 369 556 q 317 363 331 458 q 308 261 308 303 q 335 179 308 201 q 419 157 363 157 m 474 1071 l 629 1071 l 458 876 l 338 876 l 474 1071 m 701 1071 l 857 1071 l 686 876 l 565 876 l 701 1071 z "},"ȏ":{"ha":797,"x_min":104,"x_max":810,"o":"m 397 -8 q 104 251 104 -8 q 115 393 104 322 q 186 618 139 540 q 311 725 233 696 q 517 754 389 754 q 697 725 633 754 q 785 638 760 696 q 810 482 810 579 q 797 332 810 414 q 728 124 776 197 q 602 21 681 50 q 397 -8 524 -8 m 419 157 q 507 174 475 157 q 558 233 539 190 q 592 363 578 276 q 604 492 604 457 q 578 570 604 547 q 490 593 553 593 q 401 574 433 593 q 350 507 369 556 q 317 363 331 458 q 308 261 308 303 q 335 179 308 201 q 419 157 363 157 m 329 869 q 406 1028 346 976 q 558 1079 465 1079 q 679 1040 636 1079 q 722 924 722 1001 q 717 869 722 908 l 622 869 q 625 900 625 892 q 602 965 625 944 q 543 985 579 985 q 467 958 499 985 q 428 869 436 931 l 329 869 z "},"ō":{"ha":797,"x_min":104,"x_max":810,"o":"m 397 -8 q 104 251 104 -8 q 115 393 104 322 q 186 618 139 540 q 311 725 233 696 q 517 754 389 754 q 697 725 633 754 q 785 638 760 696 q 810 482 810 579 q 797 332 810 414 q 728 124 776 197 q 602 21 681 50 q 397 -8 524 -8 m 419 157 q 507 174 475 157 q 558 233 539 190 q 592 363 578 276 q 604 492 604 457 q 578 570 604 547 q 490 593 553 593 q 401 574 433 593 q 350 507 369 556 q 317 363 331 458 q 308 261 308 303 q 335 179 308 201 q 419 157 363 157 m 358 1021 l 749 1021 l 729 899 l 339 899 l 358 1021 z "},"ṓ":{"ha":797,"x_min":104,"x_max":810,"o":"m 397 -8 q 104 251 104 -8 q 115 393 104 322 q 186 618 139 540 q 311 725 233 696 q 517 754 389 754 q 697 725 633 754 q 785 638 760 696 q 810 482 810 579 q 797 332 810 414 q 728 124 776 197 q 602 21 681 50 q 397 -8 524 -8 m 419 157 q 507 174 475 157 q 558 233 539 190 q 592 363 578 276 q 604 492 604 457 q 578 570 604 547 q 490 593 553 593 q 401 574 433 593 q 350 507 369 556 q 317 363 331 458 q 308 261 308 303 q 335 179 308 201 q 419 157 363 157 m 358 1021 l 749 1021 l 729 899 l 339 899 l 358 1021 m 633 1278 l 810 1278 l 629 1083 l 497 1083 l 633 1278 z "},"ṑ":{"ha":797,"x_min":104,"x_max":810,"o":"m 397 -8 q 104 251 104 -8 q 115 393 104 322 q 186 618 139 540 q 311 725 233 696 q 517 754 389 754 q 697 725 633 754 q 785 638 760 696 q 810 482 810 579 q 797 332 810 414 q 728 124 776 197 q 602 21 681 50 q 397 -8 524 -8 m 419 157 q 507 174 475 157 q 558 233 539 190 q 592 363 578 276 q 604 492 604 457 q 578 570 604 547 q 490 593 553 593 q 401 574 433 593 q 350 507 369 556 q 317 363 331 458 q 308 261 308 303 q 335 179 308 201 q 419 157 363 157 m 358 1021 l 749 1021 l 729 899 l 339 899 l 358 1021 m 361 1278 l 526 1278 l 610 1083 l 489 1083 l 361 1278 z "},"ǫ":{"ha":797,"x_min":104,"x_max":810,"o":"m 517 754 q 697 725 633 754 q 785 638 760 696 q 810 482 810 579 q 797 332 810 414 q 707 94 772 169 q 521 0 642 19 l 522 0 q 458 -53 479 -24 q 438 -106 438 -82 q 457 -149 438 -133 q 508 -165 476 -165 l 521 -165 l 506 -261 q 460 -267 493 -267 q 363 -237 394 -267 q 331 -162 331 -207 q 357 -76 331 -115 q 432 -8 383 -36 l 397 -8 q 104 251 104 -8 q 115 393 104 322 q 186 618 139 540 q 311 725 233 696 q 517 754 389 754 m 592 363 q 604 492 604 457 q 578 570 604 547 q 490 593 553 593 q 401 574 433 593 q 350 507 369 556 q 317 363 331 458 q 308 261 308 303 q 335 179 308 201 q 419 157 363 157 q 507 174 475 157 q 558 233 539 190 q 592 363 578 276 z "},"ø":{"ha":792,"x_min":42,"x_max":868,"o":"m 778 653 q 810 482 810 594 q 797 332 810 414 q 728 124 776 197 q 602 21 681 50 q 397 -8 524 -8 q 186 50 258 -8 l 138 0 l 42 0 l 140 101 q 104 251 104 161 q 115 393 104 322 q 186 618 139 540 q 311 725 233 696 q 517 754 389 754 q 732 704 665 754 l 772 746 l 868 746 l 778 653 m 317 363 q 308 272 310 310 l 589 558 q 490 593 565 593 q 401 574 433 593 q 350 507 369 556 q 317 363 331 458 m 596 396 q 604 476 603 442 l 325 192 q 361 165 338 172 q 419 157 385 157 q 507 174 475 157 q 558 233 539 190 q 592 363 578 276 l 596 396 z "},"ǿ":{"ha":792,"x_min":42,"x_max":868,"o":"m 778 653 q 810 482 810 594 q 797 332 810 414 q 728 124 776 197 q 602 21 681 50 q 397 -8 524 -8 q 186 50 258 -8 l 138 0 l 42 0 l 140 101 q 104 251 104 161 q 115 393 104 322 q 186 618 139 540 q 311 725 233 696 q 517 754 389 754 q 732 704 665 754 l 772 746 l 868 746 l 778 653 m 317 363 q 308 272 310 310 l 589 558 q 490 593 565 593 q 401 574 433 593 q 350 507 369 556 q 317 363 331 458 m 596 396 q 604 476 603 442 l 325 192 q 361 165 338 172 q 419 157 385 157 q 507 174 475 157 q 558 233 539 190 q 592 363 578 276 l 596 396 m 551 1071 l 728 1071 l 547 876 l 415 876 l 551 1071 z "},"õ":{"ha":797,"x_min":104,"x_max":810,"o":"m 397 -8 q 104 251 104 -8 q 115 393 104 322 q 186 618 139 540 q 311 725 233 696 q 517 754 389 754 q 697 725 633 754 q 785 638 760 696 q 810 482 810 579 q 797 332 810 414 q 728 124 776 197 q 602 21 681 50 q 397 -8 524 -8 m 419 157 q 507 174 475 157 q 558 233 539 190 q 592 363 578 276 q 604 492 604 457 q 578 570 604 547 q 490 593 553 593 q 401 574 433 593 q 350 507 369 556 q 317 363 331 458 q 308 261 308 303 q 335 179 308 201 q 419 157 363 157 m 269 882 q 442 1054 308 1054 q 501 1045 474 1054 q 560 1021 528 1036 q 639 997 613 997 q 683 1014 665 997 q 706 1061 700 1031 l 808 1061 q 744 926 786 968 q 638 883 703 883 q 583 892 608 883 q 517 917 557 900 q 475 933 496 926 q 439 940 454 940 q 397 924 414 940 q 372 882 379 907 l 269 882 z "},"ṍ":{"ha":797,"x_min":104,"x_max":810,"o":"m 397 -8 q 104 251 104 -8 q 115 393 104 322 q 186 618 139 540 q 311 725 233 696 q 517 754 389 754 q 697 725 633 754 q 785 638 760 696 q 810 482 810 579 q 797 332 810 414 q 728 124 776 197 q 602 21 681 50 q 397 -8 524 -8 m 419 157 q 507 174 475 157 q 558 233 539 190 q 592 363 578 276 q 604 492 604 457 q 578 570 604 547 q 490 593 553 593 q 401 574 433 593 q 350 507 369 556 q 317 363 331 458 q 308 261 308 303 q 335 179 308 201 q 419 157 363 157 m 269 882 q 442 1054 308 1054 q 501 1045 474 1054 q 560 1021 528 1036 q 639 997 613 997 q 683 1014 665 997 q 706 1061 700 1031 l 808 1061 q 744 926 786 968 q 638 883 703 883 q 583 892 608 883 q 517 917 557 900 q 475 933 496 926 q 439 940 454 940 q 397 924 414 940 q 372 882 379 907 l 269 882 m 613 1293 l 789 1293 l 608 1099 l 476 1099 l 613 1293 z "},"ṏ":{"ha":797,"x_min":104,"x_max":810,"o":"m 397 -8 q 104 251 104 -8 q 115 393 104 322 q 186 618 139 540 q 311 725 233 696 q 517 754 389 754 q 697 725 633 754 q 785 638 760 696 q 810 482 810 579 q 797 332 810 414 q 728 124 776 197 q 602 21 681 50 q 397 -8 524 -8 m 419 157 q 507 174 475 157 q 558 233 539 190 q 592 363 578 276 q 604 492 604 457 q 578 570 604 547 q 490 593 553 593 q 401 574 433 593 q 350 507 369 556 q 317 363 331 458 q 308 261 308 303 q 335 179 308 201 q 419 157 363 157 m 269 882 q 442 1054 308 1054 q 501 1045 474 1054 q 560 1021 528 1036 q 639 997 613 997 q 683 1014 665 997 q 706 1061 700 1031 l 808 1061 q 744 926 786 968 q 638 883 703 883 q 583 892 608 883 q 517 917 557 900 q 475 933 496 926 q 439 940 454 940 q 397 924 414 940 q 372 882 379 907 l 269 882 m 364 1119 q 347 1126 353 1119 q 340 1143 340 1133 l 363 1283 q 394 1314 367 1314 l 490 1314 q 514 1290 514 1314 l 492 1149 q 460 1119 488 1119 l 364 1119 m 642 1119 q 624 1126 631 1119 q 618 1143 618 1132 l 640 1283 q 672 1314 644 1314 l 768 1314 q 792 1290 792 1314 l 769 1149 q 738 1119 765 1119 l 642 1119 z "},"ȭ":{"ha":797,"x_min":104,"x_max":810,"o":"m 397 -8 q 104 251 104 -8 q 115 393 104 322 q 186 618 139 540 q 311 725 233 696 q 517 754 389 754 q 697 725 633 754 q 785 638 760 696 q 810 482 810 579 q 797 332 810 414 q 728 124 776 197 q 602 21 681 50 q 397 -8 524 -8 m 419 157 q 507 174 475 157 q 558 233 539 190 q 592 363 578 276 q 604 492 604 457 q 578 570 604 547 q 490 593 553 593 q 401 574 433 593 q 350 507 369 556 q 317 363 331 458 q 308 261 308 303 q 335 179 308 201 q 419 157 363 157 m 369 1225 l 760 1225 l 740 1103 l 350 1103 l 369 1225 m 258 861 q 431 1033 297 1033 q 490 1024 463 1033 q 549 1000 517 1015 q 628 976 601 976 q 672 993 654 976 q 694 1040 689 1010 l 797 1040 q 733 905 775 947 q 626 863 692 863 q 572 871 597 863 q 506 896 546 879 q 464 913 485 906 q 428 919 443 919 q 385 903 403 919 q 361 861 368 886 l 258 861 z "},"œ":{"ha":1243,"x_min":104,"x_max":1275,"o":"m 388 -8 q 176 57 247 -8 q 104 251 104 122 q 115 393 104 319 q 185 618 139 540 q 308 725 232 696 q 507 754 383 754 q 740 626 668 754 q 851 724 788 692 q 1000 756 914 756 q 1275 533 1275 756 q 1189 335 1275 389 q 951 281 1103 281 q 793 296 851 281 q 789 246 789 274 q 831 167 789 192 q 964 143 874 143 l 1203 143 l 1183 22 q 1051 1 1124 10 q 917 -8 979 -8 q 758 19 817 -8 q 668 104 699 47 q 548 20 614 49 q 388 -8 482 -8 m 899 396 q 1040 423 997 396 q 1083 511 1083 450 q 976 599 1083 599 q 861 551 900 599 q 806 404 822 503 q 899 396 858 396 m 419 157 q 506 174 474 157 q 558 234 538 190 q 592 363 578 278 q 604 492 604 457 q 578 570 604 547 q 490 593 551 593 q 401 574 433 593 q 350 507 369 556 q 317 363 331 458 q 308 261 308 303 q 335 180 308 203 q 419 157 363 157 z "},"p":{"ha":794,"x_min":22,"x_max":808,"o":"m 188 717 q 380 744 293 735 q 563 754 467 754 q 751 689 693 754 q 808 488 808 624 q 794 339 808 425 q 676 78 767 165 q 447 -8 586 -8 q 283 21 340 -8 l 228 -329 l 22 -329 l 188 717 m 424 167 q 539 216 499 167 q 599 378 579 265 q 606 453 606 438 q 582 556 606 522 q 506 589 558 589 l 372 588 l 308 186 q 363 171 338 175 q 424 167 388 167 z "},"ṗ":{"ha":794,"x_min":22,"x_max":808,"o":"m 188 717 q 380 744 293 735 q 563 754 467 754 q 751 689 693 754 q 808 488 808 624 q 794 339 808 425 q 676 78 767 165 q 447 -8 586 -8 q 283 21 340 -8 l 228 -329 l 22 -329 l 188 717 m 424 167 q 539 216 499 167 q 599 378 579 265 q 606 453 606 438 q 582 556 606 522 q 506 589 558 589 l 372 588 l 308 186 q 363 171 338 175 q 424 167 388 167 m 493 894 q 475 901 482 894 q 468 918 468 907 l 468 924 l 490 1058 q 524 1089 494 1089 l 618 1089 q 643 1065 643 1089 l 643 1058 l 621 924 q 610 902 619 910 q 588 894 600 894 l 493 894 z "},"þ":{"ha":799,"x_min":21,"x_max":808,"o":"m 242 1060 l 449 1060 l 399 747 q 563 754 457 754 q 751 689 693 754 q 808 488 808 624 q 794 339 808 425 q 676 78 767 165 q 449 -8 586 -8 q 283 21 340 -8 l 228 -329 l 21 -329 l 242 1060 m 422 167 q 539 216 497 167 q 599 378 581 265 q 606 453 606 438 q 581 555 606 521 q 504 589 557 589 l 372 588 l 308 186 q 363 171 338 175 q 422 167 388 167 z "},"q":{"ha":792,"x_min":103,"x_max":832,"o":"m 525 75 q 419 15 481 39 q 299 -8 357 -8 q 151 57 200 -8 q 103 244 103 122 q 117 397 103 304 q 244 673 147 592 q 503 754 342 754 q 688 741 597 754 q 832 708 779 728 l 667 -329 l 461 -329 l 525 75 m 399 157 q 546 208 467 157 l 606 579 q 500 589 538 589 q 376 539 415 589 q 317 382 336 489 q 306 283 306 315 q 331 190 306 222 q 399 157 356 157 z "}}}
